<?xml version="1.0" encoding="UTF-8"?>
<!-- Created with Inkscape (http://www.inkscape.org/) -->
<svg width="89.631mm" height="113.35mm" version="1.1" viewBox="0 0 89.631 113.35" xmlns="http://www.w3.org/2000/svg">
<g transform="translate(-60.06 -91.81)">
<g transform="translate(28.261 12.553)">
<path d="m57.876 79.258a5.0751 5.0464 0 0 0-4.3938 2.5236l-2.3992 4.1317c3.8109 0.70318 6.9359 1.7022 7.5324 1.9026 0.0047-0.20156 0.03849-2.0036 0.03849-2.0036s0.0047-0.04242 0.02639-0.06284c0.02828-0.02671 0.06912-0.01885 0.06912-0.01885 0.4075 0.0597 9.1057 1.3484 12.772 3.4849 0.45278 0.26487 0.67655 0.54639 0.95581 0.832 1.0135 1.0482 2.3522 5.4067 2.496 6.3055 0.0063 0.03456-0.03786 0.07384-0.05656 0.08798-0.10416 0.08169-0.2171 0.16558-0.33063 0.24115-0.86753 0.58205-2.8666 1.9813-5.4308 1.7529-2.3033-0.20376-5.312-1.525-8.9397-3.9152 0.35668 0.83498 0.70761 1.6725 1.0592 2.5098 0.52536 0.27272 5.596 2.8565 8.0987 2.8061 2.0157-0.04242 4.1716-1.0248 5.034-1.5438 0 0 0.18924-0.11468 0.27172-0.05027 0.09033 0.06912 0.0652 0.17658 0.04383 0.28561-0.0531 0.24743-0.17396 0.69925-0.25609 0.91369l-0.06912 0.17438c-0.09882 0.2644-0.19298 0.51042-0.37572 0.66186-0.50806 0.46188-1.3191 0.8298-2.5897 1.382-1.9641 0.85917-5.1505 1.4051-8.1089 1.3862-1.0596-0.0236-2.0834-0.14139-2.9823-0.24586-2.7541-0.3109-4.7447-0.53759-5.1585 1.9639-0.41933 2.5068 1.4453 5.3987 2.1341 6.5441 0.16109 0.26786 0.62221 0.97952 0.66367 1.0417 0.21047 0.11625 0.41634 0.22669 0.63061 0.34876 1.3124 0.74764 3.0545 1.3718 4.7569 1.8454-0.11201-0.5189-0.14846-1.1121-0.05169-1.7763a0.51631 0.5152 63.05 0 1 0.54644-0.43893l0.42742 0.0299-0.02278-0.42794a0.51631 0.5152 63.05 0 1 0.44124-0.53744c1.3723-0.19386 2.4751 0.25545 3.2456 0.97386 0.25694-0.40327 0.62287-0.86546 1.1223-1.1819 0.48077-0.30446 1.0747-0.55691 1.7992-0.68354a0.51631 0.5152 63.05 0 1 0.58974 0.38175l0.10636 0.41538 0.39856-0.15553a0.51631 0.5152 63.05 0 1 0.64804 0.25246c0.63696 1.2841 0.53271 2.5098 0.05719 3.482 0.47131 0.12568 1.0444 0.34012 1.5119 0.73868 0.43378 0.36997 0.85107 0.8631 1.1879 1.5185a0.51631 0.5152 63.05 0 1-0.18816 0.67459l-0.3649 0.22355 0.26751 0.33666a0.51631 0.5152 63.05 0 1-0.04697 0.69501c-1.0031 0.95736-2.1616 1.2331-3.2053 1.0958 0.01885 0.44506-0.01869 0.98486-0.22842 1.5132-0.21014 0.52943-0.5429 1.083-1.0544 1.6117a0.51631 0.5152 63.05 0 1-0.69914 0.0361l-0.33003-0.27414-0.23084 0.3607a0.51631 0.5152 63.05 0 1-0.67268 0.17673c-0.86072-0.45228-1.4297-1.0837-1.7644-1.7763-0.13699-0.28372-0.2346-0.57781-0.29696-0.8741-0.44296 0.17077-1.0054 0.323-1.5876 0.28372-0.56809-0.0377-1.1947-0.18459-1.8551-0.51041a0.51631 0.5152 63.05 0 1-0.25188-0.65637l0.15932-0.3973-0.4148-0.11154a0.51631 0.5152 63.05 0 1-0.37691-0.58614h5.97e-4c0.09614-0.56351 0.28268-1.0491 0.53261-1.462-1.9458-0.42416-4.1045-1.0089-5.9442-1.8156-5.0329-2.2066-6.6164-2.7569-11.728-2.2723-3.3595 0.31844-7.002 0.85431-10.143 0.79115a5.0751 5.0464 0 0 0 0.49775 3.6862l2.4581 4.2327c0.27686-0.15725 0.55869-0.2922 0.84702-0.38175h5.97e-4c0.38868-0.12096 0.78328-0.18255 1.1728-0.1948-0.13416-0.56116-0.23496-1.2835-0.08122-1.9843 0.14265-0.65008 0.42107-1.3507 0.91314-2.0596a0.5153 0.51615 66.907 0 1 0.68472-0.15238l0.53502 0.31435 0.24707-0.5698a0.5153 0.51615 66.907 0 1 0.44725-0.31027 0.5153 0.51615 66.907 0 1 0.18817 0.0251c1.6101 0.53068 2.5378 1.6352 2.942 2.841 0.13793-0.0848 0.28531-0.17124 0.44846-0.25434 0.42494-0.21617 0.92629-0.40485 1.456-0.45622 0.66301-0.0644 1.4147-0.0157 2.2405 0.23628a0.5153 0.51615 66.907 0 1 0.35288 0.6042l-0.13463 0.60531 0.61738 0.0597a0.5153 0.51615 66.907 0 1 0.46528 0.51575c-0.01414 1.675-0.7665 2.8884-1.7746 3.6453 0.44447 0.37499 0.96388 0.90505 1.2576 1.5708 0.26844 0.6086 0.45601 1.3372 0.47672 2.1991a0.5153 0.51615 66.907 0 1-0.46409 0.5266l-0.61677 0.0613 0.13652 0.60467a0.5153 0.51615 66.907 0 1-0.34626 0.60358c-1.5979 0.51482-2.9872 0.18255-4.0223-0.53618-0.20007 0.52895-0.51188 1.1547-1.0063 1.6338-0.32059 0.31075-0.71097 0.60405-1.1704 0.86217l9.7627 16.813a5.0751 5.0464 0 0 0 4.3938 2.5226h9.2944l1.3015-9.0395a0.51575 0.51575 0 0 1 0.51096-0.44129h9.0864v-9.6333h-3.1428a0.51575 0.51575 0 0 1-0.13338-0.0456c-0.67655-0.0644-1.1933-0.39306-1.4638-0.84991a0.5157 0.5157 0 0 1 0.17974-0.70647 0.5157 0.5157 0 0 1 0.39075-0.0566 0.5157 0.5157 0 0 1 0.3156 0.23864c0.0908 0.15395 0.26704 0.32425 0.58914 0.37264 1.4194-0.87536 4.0678-2.5538 5.6321-4.4893a0.51575 0.51575 0 0 1 0.39977-0.19119h0.34747v-4.2032h-2.8627a0.51575 0.51575 0 0 1-0.0063 0c-0.75123-0.0267-1.3255-0.36934-1.6147-0.86091a0.5157 0.5157 0 0 1 0.18395-0.70694 0.5157 0.5157 0 0 1 0.39075-0.0534 0.5157 0.5157 0 0 1 0.3156 0.23864c0.08829 0.14924 0.25568 0.31577 0.55967 0.36855 1.3822-0.90725 3.9562-2.1523 5.3298-4.0181a0.51575 0.51575 0 0 1 0.4154-0.20863h0.4749v-4.4395h-2.3066-0.2603-0.15694a0.51575 0.51575 0 0 1-0.06441-0.0204c-0.62728-0.0864-1.1066-0.40406-1.3628-0.8386a0.5157 0.5157 0 0 1 0.18154-0.70632 0.5157 0.5157 0 0 1 0.39075-0.055 0.5157 0.5157 0 0 1 0.31619 0.23612c0.07085 0.12096 0.19323 0.25088 0.39616 0.32535 0.59385-0.44318 1.4894-0.92485 2.419-1.5162 0.99321-0.63169 1.9601-1.3748 2.5242-2.1106v-4.0872a0.51575 0.51575 0 0 1 0.0047-0.0157v-1.5523a0.5157 0.5157 0 0 1 0.51579-0.51576 0.5157 0.5157 0 0 1 0.51579 0.51576v1.0521h17.079v-1.0521a0.5157 0.5157 0 0 1 0.51579-0.51576 0.5157 0.5157 0 0 1 0.51579 0.51576v5.6551c0.56416 0.73569 1.5335 1.4789 2.5266 2.1106 0.92997 0.59147 1.8237 1.0733 2.4172 1.5166 0.20375-0.0738 0.32632-0.20533 0.39735-0.32582a0.5157 0.5157 0 0 1 0.70454-0.18208v6.3e-4a0.5157 0.5157 0 0 1 0.18396 0.70632c-0.23678 0.40139-0.66377 0.70349-1.2221 0.81519a0.51575 0.51575 0 0 1-0.20681 0.044h-0.15506-0.2603-2.309v4.4395h0.47491a0.51575 0.51575 0 0 1 0.416 0.20863c1.3737 1.866 3.9477 3.1107 5.3298 4.018 0.30495-0.0534 0.4731-0.21884 0.56147-0.36903a0.5157 0.5157 0 0 1 0.16172-0.12253l1.7566-3.025a5.0751 5.0464 0 0 0 0-5.0467l-18.033-31.055a5.0751 5.0464 0 0 0-4.3938-2.5235zm10.599 10.154c-0.99427-0.03142-1.9428 0.31938-2.6697 0.9979-0.72654 0.67647-1.1426 1.5986-1.1795 2.5921-0.06865 2.0498 1.5409 3.7767 3.5889 3.8522 0.99879 0.03299 1.9446-0.31703 2.6715-0.99978 0.72468-0.67427 1.1408-1.5968 1.1795-2.5903 0.07038-2.0479-1.5405-3.7789-3.5907-3.8522zm-0.03126 1.0959c1.4328 0.05027 2.5539 1.2548 2.5056 2.6872-0.02215 0.69061-0.31316 1.3316-0.81937 1.8063-0.50693 0.47271-1.1696 0.71842-1.8648 0.69736-1.4295-0.05341-2.5515-1.2581-2.5032-2.6908 0.02105-0.69328 0.31838-1.3338 0.82237-1.8063 0.50396-0.47271 1.1638-0.71873 1.8594-0.69375zm0.42442 1.3027c-0.63663 0-1.1512 0.34326-1.1512 0.76947 0 0.42228 0.51456 0.76649 1.1512 0.76649 0.63624 0 1.1524-0.34436 1.1524-0.76649 0-0.42621-0.5158-0.76947-1.1524-0.76947zm-25.262 11.538c-0.67749 0-1.3371 0.0848-1.9694 0.23989-0.34157 0.0801-0.73056 0.26-1.0995 0.48622l-1.8888 3.2529c-0.03472 0.29331-0.05577 0.58363-0.06315 0.85541-0.0031 0.11625 0.0016 0.2113 0.0016 0.32048 1.899 0.39715 3.7182 0.739 5.0689 0.84033 1.4792 0.11154 2.6584 0.0267 3.5786-0.077 0.92027-0.10369 1.548-0.24759 2.113-0.18883 1.0855 0.11311 2.2785 0.42338 3.566 0.89153-0.22699-0.26754-0.4647-0.54403-0.4647-0.54403-0.3552-0.34248-1.063-1.1064-2.5146-2.7827-2.1029-2.4343-4.2964-3.2829-6.3289-3.2944zm43.872 1.1289v3.7897a0.51575 0.51575 0 0 1-0.09787 0.30241c-0.70775 0.98266-1.8371 1.7807-2.906 2.4605-0.39699 0.25246-0.61657 0.39589-0.92818 0.5885a0.5157 0.5157 0 0 1 0.05169 0.0848h24.844a0.5157 0.5157 0 0 1 0.0517-0.0848c-0.31185-0.19261-0.53164-0.33604-0.92879-0.5885-1.0688-0.67977-2.1982-1.4778-2.906-2.4605a0.51575 0.51575 0 0 1-0.0974-0.30241v-3.7897zm-50.036 4.9282-1.9928 3.4314a5.0751 5.0464 0 0 0-0.10636 0.29032c2.9208 0.0236 6.3799-0.43501 9.6544-0.74544 5.2119-0.49407 7.1891 0.13825 12.242 2.3535 1.7339 0.7602 3.8414 1.3203 5.7482 1.7363 0.16489-0.16464 0.34376-0.30226 0.52723-0.43406-0.10557-0.15396-0.20692-0.30415-0.29998-0.48638-1.7873-0.49015-3.6488-1.1211-5.1146-1.9562-3.5781-2.0384-6.5839-3.2545-8.8585-3.492-0.24275-0.0251-0.93479 0.0801-1.8906 0.1882-0.95581 0.1084-2.2121 0.19701-3.7716 0.0801-1.3876-0.10368-3.1392-0.42731-4.9529-0.80497 2.2e-4 0 3.93e-4 0.0157 5.97e-4 0.0157zm33.165 2.2827c-0.35107 0.10683-0.71886 0.20564-0.97688 0.36903-0.36959 0.23407-0.75563 0.78628-0.97988 1.1693 0.02247 0.0377 0.04635 0.0738 0.0674 0.10997 0.3865 0.68511 0.60392 1.4335 0.62039 2.13 0.24223 0.12411 0.4532 0.31231 0.60416 0.55472 0.4576-0.17894 0.95419-0.48245 1.3351-0.90222 0.64411-0.70978 0.97238-1.6489 0.56809-2.8188l-0.44124 0.17203a0.51631 0.5152 63.05 0 1-0.68772-0.35474zm-5.2823 0.72548 0.02529 0.47492a0.51631 0.5152 63.05 0 1-0.55004 0.53995l-0.44184-0.0314c-0.0079 0.36792-0.02985 0.74858 0.04446 1.0455 0.10777 0.43014 0.51953 0.97999 0.81335 1.3129 0.02985 0 0.0597-0.0157 0.08955-0.022 0.75758-0.15553 1.5234-0.13354 2.184 0.0581 0.12317-0.13511 0.27172-0.25026 0.44365-0.33651 0.1051-0.0534 0.21345-0.0911 0.32342-0.11783-0.03425-0.47711-0.16836-1.0193-0.43582-1.4932-0.47191-0.83655-1.26-1.4448-2.496-1.4296zm20.077 0.36322v4.3967h7.762a0.51575 0.51575 0 0 1 0.07635-0.0566c1.0403-0.45826 1.958-0.64772 2.7629-0.67442a0.51575 0.51575 0 0 1 0.03425 0c0.80506 0.0267 1.725 0.21616 2.7653 0.67442a0.51575 0.51575 0 0 1 0.07572 0.0566h7.7602v-4.3967h-7.8113v2.4358a0.51575 0.51575 0 0 1-0.51577 0.51576h-2.2627a0.51575 0.51575 0 0 1-0.01571 0 0.51575 0.51575 0 0 1-0.04147 0h-2.2603a0.51575 0.51575 0 0 1-0.51579-0.51576v-2.4358zm8.8453 0.0628v1.8564h1.2294v-1.8564zm2.3174 0v1.8564h1.2312v-1.8564zm-24.507 2.9547c-0.0063 0-0.011 0.0157-0.01634 0.0189-0.54448 0.59996-1.2102 1.0477-1.887 1.2744-0.04509 0.27492-0.16258 0.53633-0.34265 0.75203 0.30829 0.39385 0.75423 0.7921 1.2804 1.0383 0.86907 0.40657 1.8631 0.44428 2.8585-0.28733l-0.29638-0.3728a0.51631 0.5152 63.05 0 1 0.13291-0.76036l0.37812-0.23204c-0.20753-0.3043-0.41085-0.6273-0.64382-0.82603-0.34766-0.29644-1.0332-0.50916-1.4638-0.60546zm-5.9442 0.88667c-0.19919 0-0.4014 0.0236-0.59995 0.0644-0.93861 0.19214-1.7562 0.75581-2.1185 1.9375l0.45809 0.12254a0.51631 0.5152 63.05 0 1 0.34686 0.69139l-0.16532 0.41113c0.3475 0.12097 0.70249 0.2578 1.0075 0.27838 0.4237 0.0283 1.0365-0.17532 1.4446-0.34876 0.0031-0.0581 0.0063-0.11782 0.01414-0.17611 0.08672-0.79099 0.35266-1.5328 0.75384-2.11-0.0031 0-0.0063-0.0157-0.011-0.0189-0.11861-0.23644-0.16989-0.48999-0.1617-0.73868-0.29518-0.0738-0.62782-0.11783-0.96907-0.11311zm29.908 0.79587c-0.64536 0.0236-1.399 0.18538-2.2814 0.56147l-2.6559 3.1285c0.72047-0.1637 1.3108-0.40233 1.8311-0.71779 0.79594-0.48261 1.6712-1.0587 3.1061-1.0587a0.51575 0.51575 0 0 1 0.01257 0c1.3733 0.0377 2.2056 0.61143 2.9967 1.0815 0.52964 0.31467 1.1589 0.55158 1.9363 0.70883l-2.6679-3.1423c-0.88053-0.37499-1.6341-0.53822-2.2784-0.56147zm-53.062 0.5134-0.26509 0.6108a0.5153 0.51615 66.907 0 1-0.7346 0.24052l-0.54766-0.32107c-0.2375 0.42998-0.47177 0.86075-0.55786 1.2529-0.11892 0.54199 0.03221 1.3459 0.17193 1.8618 0.08703 0.0173 0.17344 0.0377 0.25849 0.0597 0.91941 0.24288 1.7459 0.70004 2.3445 1.281 0.02718-0.0157 0.05483-0.0204 0.08295-0.0298 0.30999-0.10211 0.62967-0.10997 0.92819-0.0409 0.24371-0.55581 0.40739-1.254 0.3703-1.9537-0.06315-1.1916-0.62411-2.3171-2.0511-2.9607zm41.115 0.21397c-1.1648 1.4502-2.6269 2.4253-3.9123 3.1808h9.3833l2.7015-3.1808zm15.718 0 2.7016 3.1808h9.3833c-1.2853-0.75549-2.7475-1.7306-3.9123-3.1808zm-31.73 0.0738c-0.25983 0.41144-0.47772 0.94149-0.53863 1.4975-0.10447 0.9539 0.18044 1.9092 1.1933 2.6198l0.2567-0.39966a0.51631 0.5152 63.05 0 1 0.76284-0.11626l0.34147 0.28388c0.22046-0.29346 0.46016-0.58897 0.57288-0.873 0.1743-0.43878 0.16943-1.0188 0.12741-1.4246-0.041-0.0173-0.08264-0.0346-0.1227-0.0534-0.63622-0.29771-1.1923-0.71622-1.6015-1.1999-0.06677-0.0785-0.12772-0.16008-0.18637-0.24224-0.27398 0.0408-0.55231 0-0.80553-0.0927zm-20.102 1.6725c-0.05247 1e-3 -0.10384 0-0.15396 0.0157-0.57571 0.055-1.3363 0.47742-1.7794 0.7712 0.0047 0.055 0.011 0.10997 0.01414 0.16526 0.04902 0.92296-0.1205 1.8258-0.4701 2.5628 0.14956 0.17045 0.26754 0.37311 0.34204 0.60122 0.05027 0.15395 0.07667 0.30995 0.08295 0.46454 0.59996 0.0581 1.3076 0 1.9561-0.2512 1.1164-0.42653 2.0176-1.3064 2.1954-2.8614l-0.66307-0.0644a0.5153 0.51615 66.907 0 1-0.45207-0.62463l0.13825-0.61913c-0.4223-0.0817-0.84378-0.16087-1.2107-0.15395zm48.049 0.47302c-1.1667 0-1.737 0.40862-2.5585 0.90662-0.40115 0.24319-0.85657 0.49974-1.4211 0.69909a0.51575 0.51575 0 0 1 0.0012 0.0236v2.8854a0.51575 0.51575 0 0 1-0.5158 0.51576h-2.2609a0.51575 0.51575 0 0 1-0.51577-0.51576v-2.5218h-1.7608v2.5218a0.51575 0.51575 0 0 1-0.51577 0.51576h-2.2603a0.51575 0.51575 0 0 1-0.51579-0.51576v-2.5218h-1.4704v4.2032h11.754c0.54345-0.55865 1.084-1.1405 1.6213-1.7518a0.51575 0.51575 0 0 1 0.38654-0.17485 0.51575 0.51575 0 0 1 0.38835 0.17485c0.54162 0.61615 1.0867 1.2029 1.6345 1.7656a0.5157 0.5157 0 0 1 0.03299-0.0157h11.79v-4.2032h-1.4698v2.5218a0.51575 0.51575 0 0 1-0.51577 0.51576h-2.2608a0.51575 0.51575 0 0 1-0.51579-0.51576v-2.5218h-1.7608v2.5218a0.51575 0.51575 0 0 1-0.51579 0.51576h-2.2603a0.51575 0.51575 0 0 1-0.51577-0.51576v-2.8778c-0.60343-0.19559-1.0838-0.45401-1.5023-0.7027-0.83216-0.4944-1.3884-0.90238-2.4966-0.93412zm17.73 1.9887c-3e-3 1.6e-4 -6e-3 9.5e-4 -0.011 1e-3a0.51575 0.51575 0 0 1-0.0126 0h-2.8627v4.2032h0.34748a0.51575 0.51575 0 0 1 0.074 0.0361zm-73.599 0.15082c-0.57648-0.0157-1.1575 0.12097-1.7109 0.45323l2.1028 3.6213c0.51637-0.84048 1.2195-1.5232 1.979-1.9182-0.02388-0.3772 0.07729-0.74811 0.27653-1.0581-0.45636-0.40924-1.0801-0.7877-1.7686-0.96962-0.28872-0.077-0.58318-0.12096-0.87888-0.12882zm44.576 0v1.8564h1.2294v-1.8564zm5.0533 0v1.8564h1.2294v-1.8564zm11.27 0v1.8564h1.2287v-1.8564zm5.0526 0v1.8564h1.2294v-1.8564zm-45.348 1.2986a0.5163 0.5152 62.633 0 1 0.43524 0.38521l0.08122 0.32111 0.30839-0.11939a0.5163 0.5152 62.633 0 1 0.64924 0.25245c0.5695 1.1479 0.48943 2.2506 0.07682 3.1326 0.41763 0.11468 0.91476 0.31043 1.3267 0.66186 0.3963 0.33792 0.77675 0.78911 1.0839 1.3869a0.5163 0.5152 62.633 0 1-0.18756 0.67506l-0.28133 0.17249 0.2056 0.25969a0.5163 0.5152 62.633 0 1-0.04635 0.69438c-0.89699 0.85619-1.9357 1.1157-2.8771 1.0087 0.011 0.39495-0.02796 0.86546-0.2122 1.3297-0.19198 0.48371-0.4954 0.9891-0.96184 1.4711a0.5163 0.5152 62.633 0 1-0.70035 0.0377l-0.25309-0.21287-0.17912 0.27901a0.5163 0.5152 62.633 0 1-0.67209 0.17674c-0.7857-0.41286-1.3065-0.99114-1.6135-1.6261-0.11688-0.24177-0.2026-0.49203-0.2603-0.74418-0.39484 0.14768-0.88681 0.27273-1.4013 0.23801-0.51898-0.0346-1.0924-0.16951-1.6946-0.46643a0.5163 0.5152 62.633 0 1-0.25128-0.65526l0.12317-0.30666-0.3204-0.0864a0.5163 0.5152 62.633 0 1-0.37633-0.58614c0.21133-1.2368 0.90133-2.0701 1.7313-2.5434-0.05059-0.0628-0.10164-0.13039-0.15207-0.20077l-5.97e-4 6.2e-4c-0.21596-0.30241-0.42008-0.67002-0.52421-1.0857-0.12662-0.50523-0.17504-1.0939-0.07824-1.7584a0.5163 0.5152 62.633 0 1 0.54584-0.43815l0.32944 0.0236-0.01807-0.33054a0.5163 0.5152 62.633 0 1 0.44184-0.53806c1.2271-0.17344 2.2231 0.21994 2.9276 0.85431 0.23204-0.35631 0.55748-0.7555 0.9991-1.0353 0.43922-0.27807 0.98165-0.5079 1.6423-0.62337a0.5163 0.5152 62.633 0 1 0.15396 0zm-0.4226 1.1902c-0.29013 0.0943-0.60497 0.17344-0.82177 0.31074-0.31252 0.19795-0.64995 0.67254-0.85303 1.0136 0.01571 0.0251 0.03142 0.0503 0.04572 0.0754 0.34783 0.61662 0.54551 1.2874 0.56568 1.9166 0.20322 0.10997 0.38117 0.26895 0.51458 0.46941 0.39551-0.16024 0.82289-0.42386 1.1512-0.78566 0.563-0.62054 0.8531-1.4312 0.52058-2.4467l-0.35047 0.13668a0.5163 0.5152 62.633 0 1-0.6877-0.35411zm-11.808 0.10054c-0.06472 0.0283-0.12882 0.0566-0.19416 0.0817-0.87715 0.3351-1.803 0.44899-2.621 0.33494-0.19694 0.29409-0.48281 0.53115-0.8338 0.66296 0.12552 0.60624 0.40984 1.2912 0.86688 1.8509 0.75463 0.92453 1.873 1.5009 3.4067 1.1795l-0.1472-0.64615a0.5153 0.51615 66.907 0 1 0.45267-0.62824l0.6324-0.0644c-0.0619-0.48638-0.12788-0.97118-0.28975-1.3382-0.23014-0.52173-0.85465-1.102-1.2726-1.4324zm7.123 0.53854 0.02105 0.37688a0.5163 0.5152 62.633 0 1-0.55125 0.54105l-0.34386-0.0236c-0.0012 0.30493-0.02451 0.62856 0.03786 0.87772 0.09096 0.36337 0.44241 0.84127 0.70334 1.1415 0.01775 0 0.03566-0.0157 0.05357-0.0157 0.68125-0.13981 1.3685-0.1241 1.9664 0.0424 0.11091-0.11625 0.24266-0.21633 0.39375-0.29205 0.08436-0.0424 0.17061-0.0754 0.25849-0.099-0.03472-0.41286-0.15082-0.87803-0.38054-1.2852-0.41254-0.7313-1.0914-1.262-2.1587-1.2667zm-12.721 0.0298c-0.56023 0.32441-1.1594 0.85619-1.554 1.5258-0.08358 0.14139-0.15553 0.28859-0.22062 0.4383l2.0271 3.4909c0.38009-0.20109 0.74869-0.40673 1.0021-0.65228 0.39798-0.38568 0.7171-1.1372 0.8867-1.6448-0.04226-0.0471-0.08499-0.0943-0.12505-0.14296-0.61214-0.74952-1.0151-1.6227-1.1506-2.4581-0.33498-0.0943-0.63845-0.28765-0.86566-0.55613zm53.061 0.21287c-2.5554 2.837-5.1751 5.0663-7.7981 7.1254h1.1903c2.1206-1.5732 4.2094-3.2194 6.2285-5.4259a0.51575 0.51575 0 0 1 0.37932-0.16778 0.51575 0.51575 0 0 1 0.38174 0.16778c2.0191 2.2065 4.1056 3.8527 6.2261 5.4259h1.1897c-0.34273-0.26911-0.68552-0.54121-1.028-0.81692a0.5157 0.5157 0 0 1-0.14186-0.11625c-2.2309-1.8043-4.452-3.7768-6.6277-6.1926zm-14.946 1.7157c-1.3069 1.5363-2.9265 2.7118-4.3205 3.6189a0.5157 0.5157 0 0 1 0.01917 0.033 0.5157 0.5157 0 0 1 0.0063 0.0157h11.847a0.5157 0.5157 0 0 1 0.15144 0.0251c1.4129-1.1431 2.815-2.3502 4.1996-3.6917zm17.99 0c1.3743 1.3319 2.765 2.5313 4.1672 3.667h5.3791l2.1293-3.667zm-3.0442 1.0111c-1.6609 1.7545-3.362 3.1066-5.0599 4.3986h10.12c-1.6982-1.2923-3.3987-2.6437-5.0599-4.3986zm-34.295 0.0911c-0.49002 0.53854-1.084 0.94464-1.6934 1.1542-0.04336 0.23062-0.14139 0.44962-0.28735 0.63547 0.272 0.33917 0.65757 0.68149 1.1115 0.89389 0.75981 0.35552 1.6191 0.39353 2.4888-0.22418l-0.23384-0.29504a0.5163 0.5152 62.633 0 1 0.13338-0.76099l0.29396-0.18035c-0.17606-0.24979-0.34603-0.52691-0.54165-0.69375-0.29412-0.25089-0.88497-0.43972-1.2714-0.52911zm-5.3827 0.79602c-0.1771 0-0.35679 0.0204-0.53323 0.0566-0.8208 0.16794-1.5326 0.65023-1.8618 1.6657l0.3643 0.0974a0.5163 0.5152 62.633 0 1 0.34625 0.6914l-0.12741 0.32032c0.28941 0.0958 0.5894 0.21727 0.84521 0.2344 0.35779 0.0236 0.88874-0.14768 1.254-0.29991 0.0031-0.0424 0.0063-0.0864 0.011-0.13039 0.07808-0.7126 0.31351-1.3815 0.67207-1.9067-0.09992-0.20392-0.14767-0.42135-0.1472-0.6361-0.25199-0.0597-0.53371-0.0958-0.82237-0.0927zm1.7812 1.4524c-0.22118 0.35975-0.40681 0.81801-0.45928 1.2965-0.09128 0.83388 0.14956 1.661 1.0135 2.2886l0.20379-0.31624a0.5163 0.5152 62.633 0 1 0.76284-0.11625l0.26572 0.22182c0.17953-0.24665 0.38793-0.49518 0.48274-0.73397 0.1483-0.37358 0.14814-0.87284 0.11358-1.2335-0.02828-0.0157-0.0575-0.0236-0.0853-0.0361-0.58163-0.27209-1.0899-0.65211-1.4644-1.0947-0.0553-0.066-0.10651-0.13197-0.15569-0.19952-0.23018 0.0283-0.46272 1e-3 -0.67748-0.0754zm21.019 1.3952v9.5793h8.9703v-7.884h-1.3381a0.51575 0.51575 0 0 1-0.31561-0.92453c0.33099-0.25497 0.66122-0.5123 0.9913-0.77072zm25.447 0c0.33002 0.25842 0.66029 0.51575 0.99128 0.77072a0.51575 0.51575 0 0 1-0.31559 0.92453h-1.2546v5.1482l3.9736-6.8434zm-15.445 1.6952v7.884h13.277l0.55965-0.96365v-6.9204h-6.9613zm-6.6709 1.3676h2.2609a0.51575 0.51575 0 0 1 0.51577 0.51575v2.888a0.51575 0.51575 0 0 1-0.51577 0.51576h-2.2609a0.51575 0.51575 0 0 1-0.51579-0.51576v-2.888a0.51575 0.51575 0 0 1 0.51579-0.51575zm11.299 0h2.2603a0.51575 0.51575 0 0 1 0.04148 0 0.51575 0.51575 0 0 1 0.01571 0h2.2627a0.51575 0.51575 0 0 1 0.51577 0.51575v2.888a0.51575 0.51575 0 0 1-0.51577 0.51576h-2.2627a0.51575 0.51575 0 0 1-0.02828 0 0.51575 0.51575 0 0 1-0.02891 0h-2.2603a0.51575 0.51575 0 0 1-0.51579-0.51576v-2.888a0.51575 0.51575 0 0 1 0.51579-0.51575zm-10.783 1.0317v1.8563h1.2293v-1.8563zm11.299 0v1.8563h1.2294v-1.8563zm2.3174 0v1.8563h1.2312v-1.8563zm-27.133 6.5206-0.3697 2.567c0.80804-0.0157 1.6584-0.39479 1.9147-0.85604 0.42444-0.76397 0.65108-1.3708 0.76044-1.711zm3.9261 0c-0.115 0.1904-0.61102 1.1178 0.06802 1.9904 0.33522 0.43093 1.0342 0.63924 1.7566 0.56572 0.72233-0.0738 1.3838-0.44066 1.6087-0.8452 0.42453-0.76413 0.65224-1.3708 0.76226-1.711zm5.8143 0c-0.11452 0.1904-0.60854 1.1178 0.07038 1.9904 0.33519 0.43093 1.0318 0.63924 1.7541 0.56572 0.72233-0.0738 1.3857-0.44066 1.6105-0.8452 0.42445-0.76397 0.6517-1.3708 0.76107-1.711zm5.4933 0c-0.115 0.19056-0.61027 1.1178 0.0685 1.9904 0.33522 0.43093 1.0336 0.63924 1.7559 0.56572 0.7223-0.0738 1.3838-0.44066 1.6087-0.8452 0.4245-0.76413 0.65284-1.3708 0.76284-1.711zm5.8143 0c-0.11452 0.19056-0.60786 1.1178 0.07101 1.9904 0.33522 0.43093 1.0312 0.63924 1.7535 0.56572 0.72233-0.0738 1.3862-0.44066 1.6111-0.8452 0.42444-0.76397 0.65108-1.3708 0.76046-1.711zm5.4692 0c-0.11452 0.1904-0.60854 1.1178 0.07038 1.9904 0.33523 0.43093 1.0336 0.63924 1.756 0.56572 0.72233-0.0738 1.3838-0.44066 1.6087-0.8452 0.42445-0.76397 0.6517-1.3708 0.76106-1.711zm5.8161 0c-0.0173 0.0283-0.0512 0.10211-0.0806 0.16228l0.0943-0.16228zm-29.617 1.6952c-0.08138 0.16496-0.17058 0.33698-0.26991 0.51576-0.37969 0.68338-1.0742 1.1086-1.8503 1.2914-0.11751 0.19543-0.60711 1.12 0.06912 1.9892 0.33523 0.43093 1.0343 0.64003 1.7566 0.56619 0.72231-0.0738 1.3838-0.44051 1.6087-0.8452 0.407-0.73239 0.63223-1.3222 0.74662-1.6693-0.61694-0.11469-1.194-0.40092-1.5966-0.91856-0.23873-0.30682-0.38323-0.62212-0.46409-0.92941zm5.8143 0c-0.08138 0.16496-0.17058 0.33698-0.26991 0.51576-0.37622 0.6771-1.0747 1.0884-1.8407 1.275-0.08122 0.12882-0.64948 1.094 0.05954 2.0055 0.33522 0.43093 1.0342 0.64003 1.7566 0.56619 0.72233-0.0738 1.3856-0.44051 1.6105-0.8452 0.40681-0.73208 0.63278-1.3215 0.74723-1.6687-0.61786-0.11468-1.1959-0.40091-1.5991-0.91918-0.23871-0.30682-0.38337-0.62196-0.46409-0.92941zm11.308 0c-0.08138 0.16496-0.17058 0.33698-0.26991 0.51576-0.37624 0.6771-1.0747 1.0884-1.8407 1.275-0.08122 0.12882-0.64951 1.094 0.05954 2.0055 0.33523 0.43093 1.0336 0.64003 1.756 0.56619 0.72233-0.0738 1.3862-0.44051 1.6111-0.8452 0.407-0.73239 0.63225-1.3222 0.74663-1.6693-0.61779-0.11469-1.1957-0.40077-1.5985-0.91856-0.23871-0.30682-0.38337-0.62196-0.46409-0.92941zm11.285 6.3e-4c-0.0814 0.16464-0.17014 0.33667-0.26932 0.51513-0.37624 0.6771-1.0747 1.0884-1.8407 1.275-0.08122 0.12882-0.6495 1.094 0.05954 2.0055 0.01414 0.0189 0.03959 0.0314 0.05593 0.0503l2.0878-3.5954c-0.0316-0.0833-0.0715-0.16747-0.0932-0.25011zm-16.97 0.37092c-0.02577 0.0487-0.0509 0.0958-0.07824 0.14453-0.43457 0.78219-1.2989 1.2098-2.2008 1.346-0.15034 0.27179-0.53096 1.1244 0.09929 1.9345 0.33522 0.43092 1.0336 0.64002 1.7559 0.56618 0.72234-0.0738 1.3838-0.4405 1.6087-0.84519 0.407-0.7324 0.63284-1.3222 0.74723-1.6693-0.61696-0.11468-1.194-0.40092-1.5967-0.91856-0.14327-0.18412-0.25304-0.37123-0.33542-0.55786zm11.296 0.0267c-0.02137 0.0393-0.04147 0.0785-0.06378 0.11783-0.4392 0.79052-1.318 1.2188-2.2302 1.3501-0.15129 0.27618-0.52371 1.1242 0.10337 1.9304 0.33523 0.43092 1.0318 0.64002 1.7542 0.56618 0.72233-0.0738 1.3856-0.4405 1.6105-0.84519 0.40701-0.73256 0.63284-1.3222 0.74723-1.6693-0.61782-0.11468-1.1963-0.40092-1.5991-0.91856-0.13652-0.17548-0.24129-0.35363-0.32221-0.53147zm-26.136 2.674-0.53023 3.6819h1.6159c0.36386-0.71087 0.55525-1.2602 0.6294-1.513-0.45438-0.15239-0.86703-0.4127-1.1765-0.81032-0.35164-0.45214-0.50094-0.92186-0.53862-1.3586zm5.8895 0.43092c-0.08153 0.16527-0.17103 0.3373-0.27052 0.51639-0.45471 0.81849-1.38 1.2456-2.3265 1.3598-0.08719 0.14453-0.39399 0.72093-0.23263 1.3748h3.8425c0.36321-0.70978 0.55448-1.2585 0.62881-1.5119-0.45516-0.15239-0.86837-0.41318-1.1782-0.81142-0.23824-0.30635-0.38266-0.62086-0.46348-0.92768zm11.308 0c-0.08138 0.16527-0.17102 0.3373-0.27051 0.51639-0.45466 0.81833-1.3801 1.2456-2.3264 1.3598-0.08672 0.14453-0.39275 0.72093-0.23086 1.3748h3.8401c0.36334-0.70978 0.55508-1.2585 0.6294-1.5119-0.45516-0.15239-0.86837-0.41318-1.1782-0.81142-0.23824-0.30635-0.38268-0.62086-0.46349-0.92768zm11.285 6.3e-4c-0.08138 0.16496-0.17058 0.33698-0.26991 0.51576-0.45476 0.81849-1.3805 1.2456-2.3271 1.3598-0.08373 0.13825-0.3705 0.67679-0.25009 1.2984a5.0751 5.0464 0 0 0 3.56-1.976c-0.0886-0.0817-0.17207-0.17233-0.24888-0.27099-0.23808-0.30619-0.3831-0.62039-0.46409-0.92705zm-16.97 0.37029c-0.02592 0.0487-0.05137 0.0958-0.07871 0.1461-0.46746 0.84127-1.432 1.2708-2.4058 1.3701-0.08468 0.0157-0.17039 0.0157-0.2561 0.0173-0.10384 0.18051-0.37292 0.72973-0.22062 1.3478h3.8431c0.36373-0.7104 0.5558-1.2593 0.6306-1.5124-0.45487-0.15238-0.86793-0.41285-1.1776-0.81094-0.14296-0.18381-0.25251-0.37044-0.33484-0.55676zm11.295 0.0236c-0.02184 0.0409-0.04273 0.0801-0.06551 0.12097-0.46745 0.84142-1.4326 1.2708-2.4064 1.3701-0.09285 0.0157-0.18663 0.0157-0.28074 0.0173-0.10368 0.18082-0.37107 0.72957-0.21821 1.3471h3.8431c0.36364-0.7104 0.55517-1.2593 0.6294-1.5124-0.45543-0.15238-0.86915-0.41285-1.1789-0.81094-0.13683-0.1758-0.24181-0.35442-0.32281-0.53257z" style="-inkscape-stroke:none;color:#000000;fill:#73ba25;paint-order:markers fill stroke;stroke-linecap:round;stroke-linejoin:round;stroke-width:1.2205"/>
<g transform="matrix(2.0831 0 0 2.0831 -242.34 -14.928)" style="fill:#214478;stroke-width:1.4524">
<path d="m149.61 83.51c-1.0465 0-1.6221 0.88474-1.6221 1.4964v0.78523c0 0.90077 0.73595 1.4589 1.4184 1.4589h2.3958c0.30183 0 0.36502 0.1976 0.36502 0.36432v0.50674c0 0.05376-0.0109 0.54046-0.36502 0.54046h-3.2675c-0.32471 0-0.55934 0.2259-0.55934 0.53504v0.14007c0 0.30796 0.23463 0.53245 0.55934 0.53245h3.4451c0.90054 0 1.4816-0.62654 1.4816-1.5971v-0.84725c0-0.91138-0.65484-1.3189-1.3049-1.3189h-2.3573c-0.35488 0-0.51569-0.26622-0.51569-0.4544v-0.46783c0-0.29452 0.19688-0.46525 0.54117-0.46525h2.6094c0.31999 0 0.56075-0.22991 0.56075-0.53386v-0.13983c0-0.30513-0.24477-0.53528-0.57159-0.53528h-2.813z" style="fill:#214478;stroke-width:.19527"/>
<path d="m159.41 83.51c-0.30937 0-0.55861 0.25137-0.55861 0.56075v4.0117c0 0.3214-0.26222 0.57961-0.57961 0.57961h-1.8211c-0.31856 0-0.57937-0.25821-0.57937-0.57961v-4.0117c0-0.30938-0.25137-0.56075-0.56051-0.56075h-0.17614c-0.31386 0-0.56075 0.2476-0.56075 0.56075v4.1636c0 0.9694 0.76283 1.6726 1.8136 1.6726h1.9475c1.0493 0 1.8117-0.70293 1.8117-1.6726v-4.1636c0-0.31315-0.24595-0.56075-0.55933-0.56075h-0.17733z" style="fill:#214478;stroke-width:.19527"/>
<path d="m162.89 83.51c-1.046 0-1.6233 0.88474-1.6233 1.4964v0.78523c0 0.90077 0.73736 1.4589 1.4203 1.4589h2.3951c0.30231 0 0.36575 0.1976 0.36575 0.36432v0.50674c0 0.05376-0.0109 0.54046-0.36575 0.54046h-3.269c-0.32329 0-0.55933 0.2259-0.55933 0.53504v0.14007c0 0.30796 0.23604 0.53245 0.55933 0.53245h3.4463c0.90079 0 1.4845-0.62654 1.4845-1.5971v-0.84725c0-0.91138-0.65672-1.3189-1.3068-1.3189h-2.3573c-0.35583 0-0.51618-0.26622-0.51618-0.4544v-0.46783c0-0.29452 0.1969-0.46525 0.54118-0.46525h2.6109c0.31928 0 0.5591-0.22991 0.5591-0.53386v-0.13983c0-0.30513-0.24454-0.53528-0.57277-0.53528h-2.8118z" style="fill:#214478;stroke-width:.19527"/>
<path d="m167.86 84.045v5.2917c0 0.30372 0.22919 0.53245 0.53291 0.53245h4.2169c0.32471 0 0.55934-0.22449 0.55934-0.53245v-0.14007c0-0.30914-0.23463-0.53504-0.55934-0.53504h-3.4536v-1.3472h2.5306c0.324 0 0.55934-0.22731 0.55934-0.53528v-0.13983c0-0.30938-0.23534-0.53386-0.55934-0.53386h-2.5306v-1.3875h3.2782c0.32353 0 0.55933-0.22307 0.55933-0.53386v-0.13983c0-0.30938-0.2358-0.53531-0.55933-0.53528l-4.0292 4.04e-4c-0.31009 0-0.54518 0.23055-0.54518 0.53569z" style="fill:#214478;stroke-width:.19527"/>
<g transform="matrix(.23581 0 0 .23581 16.716 -9.3265)" stroke-width="0" style="fill:#214478">
<path d="m491.25 404.37c-2.241 0-4.065 1.744-4.065 3.894v8.461c0 2.184 1.765 3.963 3.929 3.963h5.473c2.164 0 3.929-1.779 3.929-3.963v-8.461c0-2.149-1.825-3.894-4.065-3.894zm-1.184 12.019v-7.726c0-0.906 0.744-1.647 1.654-1.647h4.264c0.89 0 1.648 0.758 1.648 1.647v7.726c0 0.912-0.738 1.653-1.648 1.653h-4.296c-0.912 0-1.622-0.725-1.622-1.653z" style="fill:#214478;stroke-width:0"/>
<path d="m512.91 404.27c-1.578 0-2.768 0.564-3.723 1.026-0.582 0.279-1.086 0.52-1.477 0.52-0.177 0-0.328-0.08-0.408-0.211l-0.364-0.696c-0.091-0.183-0.456-0.541-0.907-0.541h-0.541c-0.52 0-0.936 0.467-0.936 1.037v21.461c0 0.673 0.531 1.203 1.203 1.203h0.468c0.667 0 1.209-0.536 1.209-1.203v-7.121c0-0.211 0.137-0.439 0.276-0.439 0.391 0 0.895 0.229 1.477 0.496 0.955 0.439 2.145 0.98 3.723 0.98h0.505c2.794 0 4.532-1.597 4.532-4.162v-8.192c0-2.526-1.775-4.157-4.532-4.157h-0.505zm-5.475 11.952v-7.39c0-1.021 0.798-1.818 1.818-1.818h3.997c1.021 0 1.818 0.798 1.818 1.818v7.39c0 1.003-0.818 1.818-1.818 1.818h-3.997c-1.001 0-1.818-0.815-1.818-1.818z" style="fill:#214478;stroke-width:0"/>
<path d="m521.98 408.26v8.398c0 2.178 1.768 4.025 3.854 4.025h5.647c0.698 0 1.203-0.484 1.203-1.141v-0.37c0-0.661-0.505-1.135-1.203-1.135h-4.639c-1.3 0-1.986-0.639-1.986-1.854v-2.457h8.369c1.346 0 2.142-0.821 2.142-2.212v-3.256c0-2.149-1.822-3.8944-4.054-3.894l-5.273 1e-3c-2.2401 2e-3 -4.06 1.745-4.06 3.895zm2.877 0.371c0-0.907 0.713-1.619 1.621-1.619h4.396c0.906 0 1.613 0.712 1.613 1.619v2.622h-7.631c1e-3 -0.342 1e-3 -2.622 1e-3 -2.622z" style="fill:#214478;stroke-width:0"/>
<path d="m547 404.27c-1.573 0-2.76 0.564-3.718 1.021-0.596 0.28-1.105 0.525-1.521 0.525-0.183 0-0.257-0.023-0.399-0.269l-0.331-0.604c-0.19-0.382-0.513-0.575-0.949-0.575h-0.465c-0.562 0-0.972 0.438-0.972 1.037v14.077c0 0.667 0.527 1.203 1.206 1.203h0.465c0.667 0 1.211-0.542 1.211-1.203v-10.65c0-0.998 0.815-1.818 1.813-1.818h3.999c1.001 0 1.816 0.82 1.816 1.818v10.65c0 0.667 0.53 1.203 1.203 1.203h0.47c0.667 0 1.209-0.542 1.209-1.203v-11.055c0-2.526-1.776-4.157-4.535-4.157z" style="fill:#214478;stroke-width:0"/>
</g>
<g transform="matrix(.23581 0 0 .23581 16.716 -9.3265)" style="fill:#214478;stroke-width:1.4524">
<path d="m667.46 415.23c1.218 0 2.188 0.99 2.188 2.229 0 1.257-0.971 2.237-2.198 2.237-1.218 0-2.208-0.98-2.208-2.237 0-1.238 0.99-2.229 2.208-2.229zm-0.01 0.346c-0.98 0-1.782 0.842-1.782 1.882 0 1.06 0.802 1.891 1.792 1.891 0.99 0.011 1.782-0.831 1.782-1.881s-0.792-1.892-1.782-1.892zm-0.416 3.179h-0.396v-2.485c0.208-0.03 0.406-0.06 0.703-0.06 0.377 0 0.624 0.079 0.772 0.188 0.149 0.108 0.229 0.276 0.229 0.515 0 0.326-0.218 0.524-0.485 0.604v0.021c0.218 0.039 0.366 0.237 0.416 0.604 0.06 0.387 0.118 0.535 0.158 0.614h-0.416c-0.06-0.079-0.119-0.307-0.168-0.634-0.06-0.316-0.218-0.436-0.535-0.436h-0.277v1.069zm0-1.377h0.287c0.327 0 0.604-0.118 0.604-0.426 0-0.218-0.158-0.436-0.604-0.436-0.129 0-0.218 0.01-0.287 0.021z" fill="#73ba25" style="fill:#214478;stroke-width:1.4524"/>
</g>
</g>
<path d="m42.337 180.97-0.20891 0.72663h1.5168l-0.20891-0.72663q-0.14533-0.47231-0.28157-0.97187-0.12716-0.49956-0.25432-0.99003h-0.03633q-0.11808 0.49956-0.25432 0.99911-0.12716 0.49048-0.27249 0.96279zm-1.9891 3.1608 1.9346-5.9402h1.2353l1.9346 5.9402h-1.1081l-0.46323-1.6077h-1.9982l-0.46323 1.6077zm7.285 0.109q-0.45414 0-0.90829-0.17258-0.45414-0.18165-0.78113-0.44506l0.49047-0.67213q0.29973 0.22707 0.59947 0.36332 0.29973 0.13624 0.6358 0.13624 0.36331 0 0.53589-0.15441 0.17257-0.15441 0.17257-0.38148 0-0.19074-0.14533-0.30882-0.13624-0.12716-0.35423-0.21799-0.21799-0.0999-0.45414-0.19074-0.29065-0.10899-0.5813-0.2634-0.28157-0.16349-0.46323-0.40873-0.18166-0.25432-0.18166-0.62672 0-0.59038 0.43598-0.96278t1.1808-0.3724q0.47231 0 0.84471 0.1635 0.3724 0.16349 0.64488 0.37239l-0.48139 0.6358q-0.23615-0.17257-0.48139-0.27248-0.23616-0.109-0.49956-0.109-0.33607 0-0.49956 0.14533-0.16349 0.13624-0.16349 0.34515 0 0.2634 0.27248 0.39964 0.27249 0.13625 0.6358 0.26341 0.30882 0.10899 0.59947 0.27248 0.29065 0.15441 0.48139 0.40873 0.19982 0.25432 0.19982 0.67213 0 0.57222-0.44506 0.98095-0.44506 0.39965-1.2898 0.39965zm2.7981-0.109v-4.4597h1.0445v4.4597zm0.52681-5.2408q-0.28157 0-0.45414-0.16349-0.17258-0.16349-0.17258-0.43598 0-0.2634 0.17258-0.42689 0.17257-0.16349 0.45414-0.16349 0.28157 0 0.45414 0.16349 0.17257 0.16349 0.17257 0.42689 0 0.27249-0.17257 0.43598-0.17258 0.16349-0.45414 0.16349zm3.0615 5.3498q-0.5813 0-0.9537-0.36332-0.36331-0.36331-0.36331-0.94461 0-0.71755 0.62672-1.1081 0.62672-0.39965 1.9982-0.54498-0.0091-0.35423-0.19074-0.60855-0.17257-0.2634-0.62672-0.2634-0.32698 0-0.64488 0.12716-0.30882 0.12716-0.60855 0.30882l-0.38148-0.69938q0.3724-0.23616 0.83562-0.40873 0.47231-0.17258 0.99912-0.17258 0.83562 0 1.2444 0.49956 0.41781 0.49048 0.41781 1.426v2.6431h-0.86287l-0.07266-0.49047h-0.03633q-0.29973 0.25432-0.64488 0.42689-0.33607 0.17258-0.73571 0.17258zm0.33607-0.81746q0.27249 0 0.49047-0.12716 0.22707-0.13624 0.48139-0.36331v-0.99912q-0.90829 0.11808-1.2625 0.35423-0.35423 0.22707-0.35423 0.56314 0 0.29973 0.18166 0.43598 0.18166 0.13624 0.46323 0.13624zm7.1675 0.81746q-0.59947 0-1.1626-0.22707-0.55405-0.22708-0.98095-0.64489l0.61763-0.71754q0.3179 0.29973 0.72663 0.49047 0.40873 0.18166 0.81746 0.18166 0.50864 0 0.77204-0.20891 0.2634-0.2089 0.2634-0.55405 0-0.3724-0.2634-0.53589-0.25432-0.16349-0.65397-0.33607l-0.81746-0.35423q-0.29065-0.12716-0.57222-0.32698-0.27249-0.19982-0.45414-0.50864-0.17257-0.30882-0.17257-0.7448 0-0.4723 0.25432-0.8447 0.2634-0.38148 0.70846-0.59947 0.45414-0.22707 1.0354-0.22707 0.51772 0 0.99911 0.2089 0.48139 0.19983 0.82654 0.54498l-0.53589 0.67213q-0.28157-0.23616-0.59947-0.3724-0.30882-0.13624-0.6903-0.13624-0.41781 0-0.68122 0.19074-0.25432 0.18165-0.25432 0.50864 0 0.22707 0.12716 0.38148 0.13624 0.14532 0.35423 0.25432 0.21799 0.0999 0.46323 0.19982l0.80837 0.33607q0.52681 0.22707 0.86287 0.59946 0.33607 0.36332 0.33607 1.0082 0 0.48139-0.25432 0.88104-0.25432 0.39965-0.73571 0.64488-0.47231 0.23616-1.1444 0.23616zm4.5783 0q-0.71755 0-1.0445-0.46323-0.32698-0.46322-0.32698-1.3079v-2.7975h1.0445v2.6613q0 0.55405 0.16349 0.78112 0.16349 0.22707 0.52681 0.22707 0.29065 0 0.50864-0.14532 0.22707-0.14533 0.48139-0.47231v-3.0518h1.0445v4.4597h-0.85379l-0.08175-0.65396h-0.02725q-0.29065 0.34515-0.6358 0.55405-0.34515 0.20891-0.79929 0.20891zm3.8517-0.109v-4.4597h0.86287l0.07266 0.60855h0.03633q0.28157-0.29973 0.60855-0.50864 0.33607-0.20891 0.75388-0.20891 0.49047 0 0.78113 0.21799 0.29973 0.20891 0.45414 0.58131 0.3179-0.34515 0.66305-0.57222 0.35423-0.22708 0.77204-0.22708 0.70846 0 1.0445 0.46323 0.33607 0.46323 0.33607 1.3079v2.7975h-1.0536v-2.6613q0-0.55405-0.17257-0.78112-0.16349-0.22707-0.50864-0.22707-0.41781 0-0.93554 0.55405v3.1154h-1.0445v-2.6613q0-0.55405-0.17258-0.78112-0.16349-0.22707-0.51772-0.22707-0.41781 0-0.93553 0.55405v3.1154zm7.7846 0v-4.4597h0.86287l0.07266 0.60855h0.03633q0.28157-0.29973 0.60855-0.50864 0.33607-0.20891 0.75388-0.20891 0.49047 0 0.78113 0.21799 0.29973 0.20891 0.45414 0.58131 0.3179-0.34515 0.66305-0.57222 0.35423-0.22708 0.77204-0.22708 0.70846 0 1.0445 0.46323 0.33606 0.46323 0.33606 1.3079v2.7975h-1.0536v-2.6613q0-0.55405-0.17258-0.78112-0.16349-0.22707-0.50864-0.22707-0.41781 0-0.93553 0.55405v3.1154h-1.0445v-2.6613q0-0.55405-0.17258-0.78112-0.16349-0.22707-0.51772-0.22707-0.41781 0-0.93553 0.55405v3.1154zm7.7846 0v-4.4597h1.0445v4.4597zm0.52681-5.2408q-0.28157 0-0.45414-0.16349t-0.17257-0.43598q0-0.2634 0.17257-0.42689t0.45414-0.16349 0.45414 0.16349 0.17257 0.42689q0 0.27249-0.17257 0.43598t-0.45414 0.16349zm3.552 5.3498q-0.77204 0-1.099-0.44506-0.3179-0.45415-0.3179-1.1717v-2.1254h-0.6358v-0.78113l0.6903-0.0454 0.12716-1.2171h0.87196v1.2171h1.1354v0.82654h-1.1354v2.1254q0 0.78112 0.62672 0.78112 0.11808 0 0.24524-0.0272 0.12716-0.0363 0.21799-0.0727l0.18166 0.77205q-0.18166 0.0636-0.41781 0.10899-0.22707 0.0545-0.49047 0.0545zm3.4617-0.109v-0.60855q0.80838-0.78112 1.3897-1.3897 0.59039-0.61763 0.90829-1.1172 0.3179-0.50864 0.3179-0.94462 0-0.45414-0.24524-0.72662-0.24524-0.27249-0.70846-0.27249-0.33607 0-0.61764 0.19074-0.27248 0.19074-0.50864 0.45414l-0.5813-0.5813q0.39965-0.42689 0.82654-0.65397 0.4269-0.23615 1.0173-0.23615 0.83562 0 1.3261 0.48139 0.49956 0.48139 0.49956 1.2898 0 0.50864-0.29065 1.0445-0.28157 0.5268-0.76296 1.0809-0.47231 0.55405-1.0445 1.1626 0.22707-0.0182 0.49047-0.0363 0.2634-0.0273 0.47231-0.0273h1.4169v0.89012zm6.7673 0.109q-0.8992 0-1.4351-0.78113-0.52681-0.78112-0.52681-2.2435 0-1.4623 0.52681-2.2162 0.53589-0.75388 1.4351-0.75388 0.8992 0 1.426 0.75388 0.53588 0.75387 0.53588 2.2162 0 1.4624-0.53588 2.2435-0.52681 0.78113-1.426 0.78113zm0-0.81746q0.28156 0 0.49955-0.20891 0.21799-0.21798 0.33607-0.69938 0.12716-0.48139 0.12716-1.2988 0-0.81745-0.12716-1.2898-0.11808-0.47231-0.33607-0.66305-0.21799-0.19982-0.49955-0.19982-0.27249 0-0.49047 0.19982-0.21799 0.19074-0.34515 0.66305t-0.12716 1.2898q0 0.81746 0.12716 1.2988 0.12716 0.4814 0.34515 0.69938 0.21799 0.20891 0.49047 0.20891zm2.8072 0.70846v-0.60855q0.80838-0.78112 1.3897-1.3897 0.59039-0.61763 0.90829-1.1172 0.3179-0.50864 0.3179-0.94462 0-0.45414-0.24524-0.72662-0.24524-0.27249-0.70846-0.27249-0.33607 0-0.61764 0.19074-0.27249 0.19074-0.50864 0.45414l-0.5813-0.5813q0.39964-0.42689 0.82654-0.65397 0.42689-0.23615 1.0173-0.23615 0.83562 0 1.3261 0.48139 0.49955 0.48139 0.49955 1.2898 0 0.50864-0.29065 1.0445-0.28157 0.5268-0.76296 1.0809-0.47231 0.55405-1.0445 1.1626 0.22707-0.0182 0.49048-0.0363 0.2634-0.0273 0.47231-0.0273h1.4169v0.89012zm5.641-2.298h1.5168v-1.3079q0-0.25432 0.0182-0.59947t0.0272-0.59947h-0.0363q-0.109 0.22707-0.22708 0.44506-0.11807 0.21799-0.24523 0.45414zm1.5168 2.298v-1.4896h-2.5523v-0.70846l2.2889-3.5786h1.2444v3.4787h0.72663v0.80837h-0.72663v1.4896z" style="fill:#214478;paint-order:markers fill stroke;stroke-linecap:round;stroke-linejoin:round;stroke-width:8.8109" aria-label="Asia Summit 2024"/>
<path d="m50.309 191.42v-3.3243h-1.1232v-0.39711h2.723v0.39711h-1.1232v3.3243zm3.0013 0.0681q-0.3347 0-0.6297-0.17019-0.28932-0.17019-0.47085-0.49355-0.17586-0.32336-0.17586-0.77719 0-0.46518 0.17586-0.78854 0.18153-0.32336 0.47085-0.49354 0.29499-0.17019 0.6297-0.17019 0.34038 0 0.6297 0.17019 0.28932 0.17018 0.46518 0.49354 0.18154 0.32336 0.18154 0.78854 0 0.45383-0.18154 0.77719-0.17586 0.32336-0.46518 0.49355t-0.6297 0.17019zm0-0.38576q0.3574 0 0.57297-0.28932 0.22124-0.295 0.22124-0.76585 0-0.47653-0.22124-0.77152-0.21557-0.29499-0.57297-0.29499-0.35172 0-0.57297 0.29499-0.22124 0.29499-0.22124 0.77152 0 0.47085 0.22124 0.76585 0.22124 0.28932 0.57297 0.28932zm2.0823 0.31768v-4.0391h0.45951v2.7344h0.01702l1.1743-1.4523h0.51624l-0.92469 1.1062 1.0495 1.6508h-0.51056l-0.80556-1.3275-0.51624 0.60133v0.72614zm2.9333 1.1856q-0.09077 0-0.17586-0.017-0.07942-0.017-0.1475-0.0397l0.09077-0.36875q0.04538 0.0113 0.10211 0.0227 0.05673 0.017 0.10779 0.017 0.23259 0 0.38576-0.17019 0.15317-0.16452 0.23826-0.4198l0.0624-0.20423-1.1062-2.7627h0.4822l0.56162 1.526q0.0624 0.17586 0.13048 0.38009 0.07375 0.20423 0.13615 0.39711h0.02269q0.0624-0.18721 0.11913-0.39144 0.05673-0.20422 0.11346-0.38576l0.49355-1.526h0.45384l-1.0381 2.984q-0.09644 0.2723-0.23259 0.48787-0.13048 0.21557-0.32903 0.34038-0.19288 0.13048-0.47085 0.13048zm3.7332-1.1176q-0.3347 0-0.6297-0.17019-0.28932-0.17019-0.47085-0.49355-0.17586-0.32336-0.17586-0.77719 0-0.46518 0.17586-0.78854 0.18153-0.32336 0.47085-0.49354 0.29499-0.17019 0.6297-0.17019 0.34038 0 0.6297 0.17019 0.28932 0.17018 0.46518 0.49354 0.18153 0.32336 0.18153 0.78854 0 0.45383-0.18153 0.77719-0.17586 0.32336-0.46518 0.49355t-0.6297 0.17019zm0-0.38576q0.3574 0 0.57297-0.28932 0.22124-0.295 0.22124-0.76585 0-0.47653-0.22124-0.77152-0.21557-0.29499-0.57297-0.29499-0.35172 0-0.57297 0.29499t-0.22124 0.77152q0 0.47085 0.22124 0.76585 0.22124 0.28932 0.57297 0.28932zm1.9405 1.2821-0.11346-0.2723q0.24394-0.10779 0.38009-0.28932 0.13615-0.17586 0.13048-0.40278-0.01135 6e-3 -0.02836 6e-3 -0.01702 0-0.02836 0-0.13615 0-0.23826-0.0794-0.09644-0.0851-0.09644-0.24393 0-0.15317 0.10211-0.23827 0.10211-0.0908 0.24394-0.0908 0.18153 0 0.28365 0.14749 0.10779 0.1475 0.10779 0.40278 0 0.36307-0.19855 0.63537-0.19855 0.27797-0.5446 0.42547zm2.8372-0.9644v-3.7214h0.48787l1.3445 2.3372 0.40278 0.77152h0.02269q-0.01702-0.28364-0.03971-0.58431-0.01702-0.30634-0.01702-0.60133v-1.9231h0.44816v3.7214h-0.48787l-1.3502-2.3429-0.40278-0.76585h-0.02269q0.02269 0.27797 0.03971 0.57297 0.02269 0.29499 0.02269 0.58998v1.9458zm4.777 0.0681q-0.3347 0-0.6297-0.17019-0.28932-0.17019-0.47085-0.49355-0.17586-0.32336-0.17586-0.77719 0-0.46518 0.17586-0.78854 0.18153-0.32336 0.47085-0.49354 0.29499-0.17019 0.6297-0.17019 0.34038 0 0.6297 0.17019 0.28932 0.17018 0.46518 0.49354 0.18153 0.32336 0.18153 0.78854 0 0.45383-0.18153 0.77719-0.17586 0.32336-0.46518 0.49355-0.28932 0.17019-0.6297 0.17019zm0-0.38576q0.3574 0 0.57297-0.28932 0.22124-0.295 0.22124-0.76585 0-0.47653-0.22124-0.77152-0.21557-0.29499-0.57297-0.29499-0.35172 0-0.57297 0.29499-0.22124 0.29499-0.22124 0.77152 0 0.47085 0.22124 0.76585 0.22124 0.28932 0.57297 0.28932zm2.6553 0.31768-0.99276-2.757h0.4822l0.52191 1.5657q0.0624 0.20423 0.1248 0.40846 0.06808 0.20422 0.13048 0.40277h0.02269q0.0624-0.19855 0.1248-0.40277 0.06808-0.20423 0.1248-0.40846l0.52191-1.5657h0.45951l-0.97575 2.757zm3.2283 0.0681q-0.36874 0-0.66941-0.17019-0.30067-0.17586-0.47653-0.49922t-0.17586-0.77152q0-0.45384 0.17586-0.77719 0.18153-0.32336 0.46518-0.49922t0.59566-0.17586q0.52758 0 0.81123 0.35172 0.28932 0.35172 0.28932 0.94171 0 0.0738-0.0057 0.14749 0 0.0681-0.01135 0.11914h-1.8607q0.02837 0.43681 0.2723 0.69777 0.24961 0.26095 0.64672 0.26095 0.19855 0 0.36307-0.0567 0.17019-0.0624 0.32336-0.15884l0.16452 0.30634q-0.17586 0.11346-0.40278 0.19855-0.22124 0.0851-0.50489 0.0851zm-0.86796-1.6678h1.475q0-0.4198-0.18153-0.63537-0.17586-0.22124-0.49922-0.22124-0.28932 0-0.52191 0.22692-0.22692 0.22124-0.2723 0.62969zm2.6439 1.5998v-2.757h0.38576l0.03971 0.39711h0.01702q0.18153-0.19855 0.3971-0.32903 0.21557-0.13615 0.45951-0.13615 0.31768 0 0.49355 0.14182 0.18153 0.13615 0.26663 0.38576 0.21557-0.23259 0.43682-0.38009 0.22124-0.14749 0.47085-0.14749 0.42547 0 0.6297 0.27797 0.2099 0.2723 0.2099 0.79989v1.7473h-0.46518v-1.6849q0-0.38576-0.1248-0.56162t-0.38576-0.17586q-0.30634 0-0.6921 0.42547v1.9969h-0.46518v-1.6849q0-0.38576-0.1248-0.56162-0.1248-0.17586-0.39143-0.17586-0.30634 0-0.6921 0.42547v1.9969zm6.0023 0.0681q-0.19288 0-0.40278-0.0908-0.20423-0.0964-0.38576-0.26096h-0.01702l-0.03971 0.28365h-0.37442v-4.0391h0.46518v1.1006l-0.01135 0.49922q0.18721-0.16452 0.40845-0.2723 0.22692-0.11346 0.45384-0.11346 0.53893 0 0.8169 0.38008 0.27797 0.38009 0.27797 1.0211 0 0.47086-0.17019 0.80556-0.16452 0.3347-0.43682 0.51057-0.26663 0.17586-0.58431 0.17586zm-0.07942-0.39144q0.34038 0 0.56162-0.28932 0.22692-0.29499 0.22692-0.80555 0-0.45384-0.17019-0.73181-0.16452-0.28365-0.55595-0.28365-0.17586 0-0.3574 0.0964-0.18154 0.0964-0.38009 0.27797v1.4466q0.18153 0.15885 0.3574 0.22692 0.18153 0.0624 0.31768 0.0624zm3.1942 0.39144q-0.36874 0-0.66941-0.17019-0.30067-0.17586-0.47653-0.49922t-0.17586-0.77152q0-0.45384 0.17586-0.77719 0.18153-0.32336 0.46518-0.49922t0.59566-0.17586q0.52758 0 0.81123 0.35172 0.28932 0.35172 0.28932 0.94171 0 0.0738-0.0057 0.14749 0 0.0681-0.01135 0.11914h-1.8607q0.02837 0.43681 0.2723 0.69777 0.24961 0.26095 0.64672 0.26095 0.19855 0 0.36307-0.0567 0.17019-0.0624 0.32336-0.15884l0.16452 0.30634q-0.17586 0.11346-0.40278 0.19855-0.22124 0.0851-0.50489 0.0851zm-0.86796-1.6678h1.475q0-0.4198-0.18153-0.63537-0.17586-0.22124-0.49922-0.22124-0.28932 0-0.52191 0.22692-0.22692 0.22124-0.2723 0.62969zm2.6439 1.5998v-2.757h0.38576l0.03971 0.49922h0.01702q0.14182-0.26095 0.34605-0.41412t0.43682-0.15317q0.16452 0 0.29499 0.0567l-0.09077 0.40845q-0.06807-0.0227-0.1248-0.034-0.05673-0.0113-0.14182-0.0113-0.17586 0-0.36874 0.14183-0.18721 0.14182-0.32903 0.49354v1.77zm3.0244 0v-0.27797q0.5446-0.54461 0.92469-0.95306 0.38009-0.41412 0.57864-0.74315 0.19855-0.33471 0.19855-0.62403 0-0.31201-0.17019-0.51056t-0.51624-0.19855q-0.22692 0-0.4198 0.13047-0.19288 0.12481-0.35172 0.30634l-0.26663-0.26662q0.22692-0.24961 0.4822-0.39711 0.26096-0.15317 0.61268-0.15317 0.50489 0 0.79421 0.29499 0.28932 0.28932 0.28932 0.77152 0 0.34038-0.19288 0.6921-0.18721 0.34605-0.52191 0.73181-0.32903 0.38009-0.76017 0.82825 0.1475-0.0113 0.30634-0.0227t0.30067-0.0114h1.0495v0.40278zm4.1193-1.2424v-0.3574h1.3048v0.3574zm4.1647 1.3104q-0.43115 0-0.72047-0.15317-0.28932-0.15885-0.47085-0.3574l0.23826-0.30634q0.16452 0.17019 0.38576 0.30067 0.22125 0.13048 0.53893 0.13048 0.32903 0 0.53893-0.18154 0.2099-0.18153 0.2099-0.4822 0-0.21557-0.11346-0.37441-0.10779-0.16452-0.36307-0.25528-0.24961-0.0908-0.68075-0.0908v-0.3574q0.38576 0 0.607-0.0908 0.22692-0.0908 0.32336-0.24394 0.0964-0.15317 0.0964-0.34038 0-0.26662-0.17019-0.41979-0.16451-0.15317-0.45383-0.15317-0.22692 0-0.4198 0.10211-0.18721 0.10211-0.35172 0.26663l-0.24961-0.29499q0.2099-0.19856 0.46518-0.32336 0.25528-0.13048 0.57297-0.13048 0.47085 0 0.77719 0.24394 0.30634 0.23826 0.30634 0.67508 0 0.32903-0.18154 0.53893-0.18153 0.20989-0.47652 0.32335v0.0227q0.32903 0.0738 0.55595 0.31202 0.22691 0.23259 0.22691 0.607 0 0.31769-0.15884 0.55028t-0.43114 0.35739q-0.26663 0.12481-0.60133 0.12481z" style="fill:#214478;paint-order:markers fill stroke;stroke-linecap:round;stroke-linejoin:round;stroke-width:5.5031" aria-label="Tokyo, November 2 - 3"/>
</g>
</g>
</svg>
