<?xml version="1.0" encoding="UTF-8" standalone="no"?>
<!-- Created with Inkscape (http://www.inkscape.org/) -->

<svg
   width="99.810104mm"
   height="36.538883mm"
   viewBox="0 0 99.810106 36.538883"
   version="1.1"
   id="svg1"
   xmlns="http://www.w3.org/2000/svg"
   xmlns:svg="http://www.w3.org/2000/svg">
  <defs
     id="defs1" />
  <g
     id="layer1"
     transform="translate(115.54699,17.833049)">
    <path
       id="path5146"
       style="color:#000000;fill:#35b9ab;stroke-linecap:round;stroke-linejoin:round;-inkscape-stroke:none"
       d="m -30.833803,-17.833049 c -0.88882,0 -1.64848,0.700801 -1.64848,1.588017 0,0.887216 0.75966,1.588017 1.64848,1.588017 0.88882,0 1.64848,-0.700801 1.64848,-1.588017 0,-0.887216 -0.75966,-1.588017 -1.64848,-1.588017 z m 0,1.056783 c 0.34739,0 0.58963,0.248229 0.58963,0.531234 0,0.283005 -0.24224,0.529167 -0.58963,0.529167 -0.34738,0 -0.58963,-0.246162 -0.58963,-0.529167 0,-0.283005 0.24225,-0.531234 0.58963,-0.531234 z m -9.76323,5.644617 c -1.88597,-0.02597 -3.71204,0.428351 -5.47305,1.261938 -4.0252,1.905341 -7.74833,5.7032609 -11.49594,10.16372092 -4.94731,5.88838698 -9.95088,12.93527408 -15.49156,18.41179608 h 1.53427 c 5.33585,-5.443888 10.08745,-12.1613741 14.76758,-17.73173408 3.71471,-4.42133602 7.38073,-8.10987902 11.13885,-9.88880192 1.62325,-0.768375 3.26254,-1.16466 4.95525,-1.122929 1.69272,0.04173 3.43882,0.521474 5.27513,1.503784 -1.38484,0.06576 -2.65256,0.317038 -3.46903,1.0743529 a 0.52921795,0.52921795 0 0 0 -0.16589,0.444934 c 0.10442,0.951124 0.43837,1.66233 0.971,2.109432 0.53262,0.447104 1.20712,0.595594 1.87896,0.597897 1.3437,0.0046 2.81047,-0.518158 3.97805,-0.791167 a 0.52921795,0.52921795 0 0 0 0.002,0 c 1.38314,-0.327852 2.90646,-0.146902 4.14651,0.392741 -0.15659,0.02693 -0.32932,-0.01162 -0.47645,0.04082 -0.44981,0.160344 -0.85785,0.463514 -1.08779,0.910022 -0.21921,0.425687 -0.2284,0.961391 -0.078,1.517736 0.0662,1.52583802 1.15856,2.56659202 2.4784,2.95124102 1.34404,0.39170198 2.93893,0.237531 4.24625,-0.453202 l -0.0413,0.01964 c 2.51132,-1.064692 4.35317,-0.428685 5.36711,0.73225498 0.69898,0.800302 0.80453,1.835119 0.58602,2.849439 -0.40987,-1.061529 -0.95721,-1.93698 -1.78129,-2.382801 -1.21332,-0.65638798 -2.72812,-0.58582298 -4.34961,-0.03669 a 0.52921795,0.52921795 0 0 0 -0.17931,0.896069 c 0.69534,0.615823 1.11984,1.07399 1.34358,1.396814 0.22374,0.322826 0.2432,0.468696 0.23048,0.593763 -0.009,0.08827 -0.1018,0.250004 -0.18552,0.406176 -0.15763,-0.307599 -0.33678,-0.600506 -0.58187,-0.824239 -0.58889,-0.537583 -1.35047,-0.844408 -2.15078,-1.070219 -1.60061,-0.451619 -3.42793,-0.610002 -4.44107,-1.074353 a 0.52921795,0.52921795 0 0 0 -0.64079,0.802535 c 0.52671,0.689066 0.87799,1.462272 0.93173,2.146639 0.0318,0.405671 -0.0761,0.770746 -0.26769,1.120862 a 0.52916503,0.52916503 0 0 0 -0.0553,-0.03411 c -0.62386,-2.210352 -1.67595,-3.622395 -2.99362,-4.262272 -0.84524,-0.410475 -1.72699,-0.59876298 -2.5678,-0.73225498 0.19145,-1.07146 0.15365,-1.82988402 -0.15916,-2.44584602 -0.0616,-0.121242 -0.21437,-0.161693 -0.29094,-0.265617 0.52728,0.09042 1.01343,0.109207 1.52342,0.264067 1.08459,0.329334 2.00559,0.83334802 2.37505,1.36684102 a 0.52921795,0.52921795 0 0 0 0.94516,-0.160197 c 0.14238,-0.512347 0.0951,-1.01017502 -0.0879,-1.41955102 -0.18294,-0.409378 -0.47922,-0.727276 -0.79891,-0.990637 -0.63938,-0.526727 -1.4111,-0.876356 -1.85157,-1.165821 a 0.52916503,0.52916503 0 0 0 -0.39636,-0.07596 0.52916503,0.52916503 0 0 0 -0.33538,0.22841 0.52916503,0.52916503 0 0 0 0.15193,0.732255 c 0.51178,0.336332 1.12755,0.647756 1.60197,0.999939 -0.41379,-0.19838 -0.83539,-0.389601 -1.29501,-0.529167 -1.19381,-0.362503 -2.48196,-0.544972 -3.49023,-0.601514 a 0.52921795,0.52921795 0 0 0 -0.31471,0.972551 c 0.71008,0.456387 1.12746,0.748223 1.31878,1.124996 0.0828,0.16309002 -0.0262,0.67639702 -0.0103,0.95704702 -0.83735,-0.94566402 -1.63857,-1.58498202 -3.01532,-2.00762902 a 0.52916503,0.52916503 0 0 0 -0.66249,0.349333 0.52916503,0.52916503 0 0 0 0.35191,0.661975 c 1.38651,0.42563902 1.90469,0.74295602 2.69441,1.73271102 -0.0687,-0.01261 -0.14727,-0.02135 -0.21394,-0.03514 a 0.52921795,0.52921795 0 0 0 -0.60151,0.70486598 c 0.21532,0.573428 0.46265,1.096466 0.54674,1.597835 0.0285,0.169593 -0.11368,0.369449 -0.12299,0.538986 -0.60666,-0.973039 -1.37231,-1.932763 -2.42931,-2.59157398 -1.47353,-0.918423 -3.41544,-1.186801 -5.31647,0.06046 a 0.52921795,0.52921795 0 0 0 -0.002,0.88263298 c 0.58012,0.383281 0.90267,0.735409 1.05265,1.011825 0.14998,0.276416 0.15534,0.468763 0.0899,0.691431 -0.057,0.194175 -0.41866,0.412953 -0.63458,0.632519 a 0.52916503,0.52916503 0 0 0 -0.015,-0.0708 c 0.003,-0.207932 0.0118,-0.41983 -0.0305,-0.606681 a 0.52921795,0.52921795 0 0 0 -0.0486,-0.130741 c -0.39266,-0.742473 -1.06445,-1.184961 -1.78904,-1.355473 -0.7246,-0.170512 -1.50456,-0.109763 -2.27738,0.05271 -1.54566,0.324955 -3.0825,1.072963 -3.98632,1.558561 a 0.52921795,0.52921795 0 0 0 0.18552,0.992188 c 0.79667,0.09875 1.35892,0.281503 1.71307,0.486275 0.35416,0.204771 0.49756,0.4091 0.55656,0.611332 0.0694,0.23796 -0.038,0.570481 -0.24237,0.931726 -0.0661,-0.164768 -0.14218,-0.319123 -0.22686,-0.463538 a 0.52916503,0.52916503 0 0 0 -0.2651,-0.503328 0.52916503,0.52916503 0 0 0 -0.2098,-0.05994 c -0.14655,-0.121935 -0.30423,-0.226986 -0.48938,-0.287837 -0.8915,-0.293006 -1.91575,-0.05886 -2.88303,0.443383 -1.93457,1.00447 -3.77842,3.233768 -3.33209,5.8125661 0.19024,1.099154 0.89677,2.100533 2.10943,2.492354 1.20704,0.390003 2.82757,0.214726 4.9475,-0.705383 l 0.007,-0.0026 c 0.67295,-0.246591 1.58935,-0.587505 2.51251,-0.804086 0.92585,-0.217212 1.85063,-0.28917 2.4691,-0.08785 a 0.52921795,0.52921795 0 0 0 0.031,0.0098 c -0.30568,0.02426 -0.54458,-0.02587 -0.85163,0.02532 -0.50426,0.08407 -0.9917,0.205754 -1.42006,0.387057 -0.40334,0.170707 -0.75214,0.412021 -0.99374,0.771529 -0.17238,0.197465 -0.30652,0.490828 -0.24236,0.763261 0.0686,0.291133 0.25107,0.468448 0.43356,0.605648 0.36497,0.274398 0.83446,0.442619 1.35754,0.586011 0.52309,0.143391 1.09189,0.244425 1.60559,0.290938 0.51371,0.04651 0.93891,0.06768 1.34152,-0.07235 l -0.0331,0.0098 c 2.03153,-0.559227 4.20133,-0.292403 6.11074,0.57826 -0.0208,0.06305 -0.0417,0.126051 -0.062,0.189135 -0.37969,-0.08362 -0.7548,-0.160449 -1.11104,-0.201021 -0.67536,-0.07691 -1.30952,-0.09013 -1.88516,0.04909 -0.57564,0.139223 -1.11036,0.46923 -1.40818,1.021126 a 0.52921795,0.52921795 0 0 0 0.0119,0.523482 c 0.16582,0.276724 0.39484,0.555135 0.63097,0.835608 h 1.36116 c -0.30181,-0.401823 -0.59877,-0.7549 -0.81649,-1.030428 0.13005,-0.120335 0.22482,-0.261408 0.46871,-0.320394 0.37723,-0.09124 0.90823,-0.09474 1.51774,-0.02532 0.29463,0.03355 0.60864,0.08428 0.93327,0.144177 -0.1141,0.414625 -0.18987,0.821862 -0.27853,1.231966 h 1.08778 c 0.0778,-0.340072 0.13849,-0.674613 0.23462,-1.019059 0.7224,0.157274 1.47299,0.332251 2.20245,0.472839 a 0.52921795,0.52921795 0 0 0 0.45888,-0.907955 c -0.61932,-0.571853 -1.30628,-1.069886 -2.03863,-1.486214 0.43919,-1.18425 0.97293,-2.348345 1.57975,-3.426147 1.48412,-2.6360311 3.41426,-4.7181341 5.32422,-5.4255091 0.008,0.04265 0.0181,0.07747 0.0253,0.120923 a 0.52921795,0.52921795 0 0 0 0.85938,0.320394 c 0.89702,-0.744367 1.25167,-1.754615 1.17564,-2.722831 -0.0459,-0.584346 -0.4177,-1.094889 -0.69143,-1.632976 1.15346,0.318321 2.4002,0.549054 3.50004,0.859379 0.7221,0.203743 1.33162,0.474986 1.72496,0.834058 0.39334,0.359072 0.61228,0.78181 0.59738,1.509985 a 0.52921795,0.52921795 0 0 0 1.02164,0.203089 c 0.14523,-0.372937 0.32693,-0.659268 0.50385,-0.951363 0.17692,-0.292098 0.36818,-0.603279 0.41031,-1.017509 0.0421,-0.414233 -0.10245,-0.857648 -0.41238,-1.30483 -0.16707,-0.241071 -0.53943,-0.568886 -0.81649,-0.853178 1.03917,-0.215665 1.96067,-0.227795 2.62723,0.132808 0.85686,0.463554 1.49632,1.42776 1.75183,3.193087 a 0.52921795,0.52921795 0 0 0 0.93948,0.248047 c 1.34498,-1.726313 1.12351,-4.02502 -0.19533,-5.53506298 -1.31887,-1.51004102 -3.74232,-2.21398602 -6.5779,-1.011824 a 0.52921795,0.52921795 0 0 0 -0.0393,0.01964 c -1.04084,0.549934 -2.41075,0.677464 -3.45509,0.373104 -1.04434,-0.304361 -1.72455,-0.92152902 -1.74408,-2.02365002 a 0.52921795,0.52921795 0 0 0 -0.0217,-0.144177 c -0.11754,-0.389459 -0.0783,-0.629364 0.0103,-0.800984 0.0884,-0.171622 0.24866,-0.306129 0.50178,-0.396359 0.50625,-0.180461 1.34365,-0.09594 1.99626,0.330213 a 0.52921795,0.52921795 0 0 0 0.71469,-0.758094 c -0.0378,-0.05099 -0.0988,-0.0774 -0.1385,-0.126607 l 0.002,-0.0021 c -0.002,-0.0015 -0.005,-4.99e-4 -0.008,-0.0021 -1.5239,-1.882845 -4.38324,-2.485614 -6.83575,-1.904276 -1.25295,0.292969 -2.68565,0.767366 -3.73259,0.763777 -0.52347,-0.0018 -0.91739,-0.111807 -1.20096,-0.349849 -0.21942,-0.184185 -0.35198,-0.616993 -0.46509,-1.09399 0.88357,-0.620906 2.5026,-0.92698 4.42402,-0.675411 a 0.52921795,0.52921795 0 0 0 0.37103,-0.9591149 c -2.3211,-1.624391 -4.57159,-2.457656 -6.74635,-2.64635 v -5.17e-4 c -0.27185,-0.02359 -0.54242,-0.03712 -0.81184,-0.04082 z m -18.85001,3.242179 c -0.88882,0 -1.64848,0.7028679 -1.64848,1.5900839 0,0.887217 0.75966,1.5875 1.64848,1.5875 0.88882,0 1.64848,-0.700283 1.64848,-1.5875 0,-0.887216 -0.75966,-1.5900839 -1.64848,-1.5900839 z m 0,1.0588499 c 0.34739,0 0.58963,0.24823 0.58963,0.531234 0,0.283005 -0.24224,0.529167 -0.58963,0.529167 -0.34738,0 -0.59015,-0.246162 -0.59015,-0.529167 0,-0.283004 0.24277,-0.531234 0.59015,-0.531234 z m -30.0483,1.190625 c -0.34209,0.0065 -0.68354,0.03433 -1.02422,0.08268 -0.90851,0.128932 -1.8114,0.402762 -2.70268,0.804602 -3.565105,1.60736 -7.008767,5.11067402 -10.541487,9.269718 -3.79612,4.469149 -7.70412,9.6816261 -11.78326,14.1887981 h 1.48932 c 3.88174,-4.385971 7.54159,-9.3135601 11.10061,-13.5035681 3.501102,-4.121817 6.903012,-7.517226 10.169927,-8.990149 2.83626,-1.278756 5.53953,-1.084907 8.41241,1.167887 -1.19053,-0.03543 -2.30213,0.126671 -3.06235,0.828373 a 0.52921795,0.52921795 0 0 0 -0.17001,0.388607 c 0.001,0.94110902 0.20363,1.65340202 0.61908,2.15232302 0.41544,0.49892198 1.01244,0.71953998 1.59939,0.77514698 1.17389,0.111214 2.44964,-0.307354 3.43545,-0.488342 a 0.52921795,0.52921795 0 0 0 0.002,0 c 1.11816,-0.20945298 2.21694,0.136151 3.16622,0.717269 -0.0793,0.01579 -0.16514,-0.02338 -0.24236,0.0016 -0.41793,0.134627 -0.7984,0.424636 -1.02526,0.841809 -0.21695,0.398956 -0.27038,0.903729 -0.19534,1.457275 -0.0874,1.497608 0.72807,2.634884 1.84175,3.138827 1.11586,0.504931 2.49241,0.470835 3.66592,-0.111621 2.15138,-0.853719 3.51986,-0.125467 4.25814,1.101741 0.45088,0.749489 0.5073,1.680623 0.34933,2.5957071 -0.25691,-0.9124491 -0.62714,-1.6819461 -1.22628,-2.1502561 -0.98748,-0.771864 -2.3306,-0.820487 -3.75791,-0.389123 a 0.52921795,0.52921795 0 0 0 -0.262,0.836124 c 0.52374,0.664394 0.8359,1.1462321 0.99426,1.4862141 0.15837,0.339983 0.16648,0.508088 0.14056,0.654224 -0.0132,0.07448 -0.1662,0.319896 -0.22066,0.418062 -0.0999,-0.266756 -0.0451,-0.637336 -0.20877,-0.851627 -0.44998,-0.588924 -1.07921,-0.9673551 -1.7384,-1.2578051 -1.31839,-0.580897 -2.82264,-0.878661 -3.59151,-1.39423 a 0.52921795,0.52921795 0 0 0 -0.76378,0.683679 c 0.37759,0.726231 0.6051,1.5277521 0.58756,2.2360401 -0.003,0.114819 -0.0666,0.204362 -0.12816,0.294555 l -0.31832,-0.915189 c -0.26979,-1.1709851 -0.65269,-2.0347281 -1.2175,-2.5161261 -0.9668,-0.824019 -2.1042,-0.859979 -3.13262,-1.214913 a 0.52921795,0.52921795 0 0 0 -0.68937,0.6134 c 0.11479,0.526878 0.28576,1.516083 0.3142,2.509924 0.0119,0.4148011 -0.1409,0.6615301 -0.19121,1.0407631 -0.0421,-0.09038 -0.0923,-0.18277 -0.13642,-0.273885 a 0.52916503,0.52916503 0 0 0 -0.0904,-0.180867 c -0.49824,-0.9996231 -1.12029,-2.0255721 -1.95285,-2.9300541 -0.71747,-0.779454 -1.5277,-1.433306 -2.42983,-1.765267 -0.90212,-0.33196 -1.92643,-0.301073 -2.83962,0.288871 a 0.52921795,0.52921795 0 0 0 -0.0765,0.829924 c 0.88589,0.838325 0.95128,1.365769 0.79117,1.830379 -0.0838,0.243141 -0.4513,0.460837 -0.70332,0.699182 -0.0508,-0.373894 0.0469,-0.82501 -0.13487,-1.121378 -0.377435,-0.61544 -0.998855,-1.007655 -1.702745,-1.214397 -1.40778,-0.413481 -3.20079,-0.171784 -4.85965,0.499711 a 0.52921795,0.52921795 0 0 0 0.0744,1.006141 c 1.93669,0.46812 2.40051,2.2053161 1.97249,3.4178791 -0.37435,-0.884617 -0.8775,-1.596758 -1.57975,-1.921847 -0.987162,-0.4569771 -2.128802,-0.3405161 -3.171902,0.109038 -2.0862,0.899108 -3.95591,3.153646 -3.81837,5.734533 0.0654,1.228229 1.07191,2.163296 2.42776,2.538863 1.35586,0.375569 3.11669,0.26339 5.013652,-0.515214 l -0.0336,0.01344 c 0.5856,-0.195107 1.38008,-0.465627 2.15852,-0.609265 0.77845,-0.143638 1.52172,-0.136937 1.97456,0.08785 a 0.52921795,0.52921795 0 0 0 0.0506,0.0217 c 6e-4,2.21e-4 0.005,0.0034 0.006,0.0036 -0.25952,0.0015 -0.45884,-0.06684 -0.72295,-0.03876 -0.85181,0.09056 -1.7139,0.300242 -2.18746,0.995805 -0.085,0.09614 -0.15539,0.212814 -0.20309,0.337447 h 1.44125 c 0.26655,-0.122671 0.6321,-0.235016 1.06092,-0.280603 0.74147,-0.07883 1.5859,-0.01014 2.023135,0.101803 a 0.52921795,0.52921795 0 0 0 0.44339,-0.08423 c 0.12477,-0.09059 0.22206,-0.279268 0.23254,-0.420129 0.0105,-0.14086 -0.0239,-0.228709 -0.0527,-0.294556 -0.0576,-0.131692 -0.11732,-0.195728 -0.17983,-0.265617 -0.12502,-0.139778 -0.27452,-0.268374 -0.44339,-0.400492 -0.330035,-0.258207 -0.678355,-0.496787 -1.027325,-0.630969 -0.69177,-0.333321 -1.47575,-0.333827 -2.23759,-0.22686 1.00475,-2.506085 1.85514,-4.447898 2.61844,-5.667354 a 0.52921795,0.52921795 0 0 0 0.751895,0.374654 c 0.74928,-0.439261 1.50706,-1.0290861 1.80868,-1.9042771 0.23782,-0.690093 -0.034,-1.499924 -0.62322,-2.302702 0.22684,-0.07499 0.45233,-0.119057 0.6811,-0.122473 0.22876,-0.0034 0.46084,0.03382 0.70176,0.122473 0.50726,0.186657 1.03908,0.551008 1.54978,1.024227 -2.70098,3.2797671 -3.04221,7.0615911 -3.62717,10.9771081 h 1.07384 c 0.57218,-3.822417 0.9187,-7.258186 3.28403,-10.2009281 0.55874,0.661388 1.0611,1.419183 1.46141,2.1507731 -1.52502,2.352533 -1.97057,5.589486 -2.06809,8.050155 h 1.07487 c 0.11285,-2.145528 0.50024,-4.897782 1.55184,-6.903971 0.14859,0.351593 0.26297,0.673771 0.33228,0.941544 a 0.52921795,0.52921795 0 0 0 0.95137,0.164331 c 0.58434,-0.863966 0.66999,-2.022542 0.63872,-3.1155721 -0.0208,-0.72684 -0.13184,-1.240515 -0.22479,-1.79834 0.7488,0.199269 1.53214,0.337589 1.9885,0.726571 0.24221,0.206437 0.47032,0.499282 0.66818,0.937411 -1.92989,1.6105901 -3.66232,4.9914421 -4.70565,8.5875891 -0.0443,0.152672 -0.0761,0.307162 -0.11783,0.460437 h 1.56735 l 1.95285,-5.351094 1.60869,-2.067574 0.29455,1.208711 c 0.0212,0.249415 0.0421,0.501291 0.0558,0.782898 a 0.52921795,0.52921795 0 0 0 0.23874,0.386023 0.52916503,0.52916503 0 0 0 0.28784,0.31626 c -1.0397,1.595918 -1.76388,3.196253 -2.23707,4.724776 h 1.48724 l 0.0476,-0.198954 1.89859,-4.368726 a 0.52921795,0.52921795 0 0 0 0.0243,-0.06976 c 0.80073,-1.155817 1.77606,-2.306661 2.94762,-3.415295 0.42116,0.21831 0.76773,0.469495 0.9989,0.772046 0.28912,0.378389 0.44376,0.839376 0.36329,1.583882 a 0.52921795,0.52921795 0 0 0 1.01337,0.265617 c 0.31488,-0.732337 0.79861,-1.099142 0.93586,-1.872754 0.0686,-0.386804 -0.007,-0.820001 -0.22479,-1.28726 -0.12367,-0.2654911 -0.41571,-0.6371791 -0.63872,-0.9627321 0.843,-0.127896 1.55977,-0.07463 2.05259,0.310576 0.63986,0.500145 1.10793,1.5271711 1.1622,3.3202101 a 0.52921795,0.52921795 0 0 0 0.94516,0.312643 c 1.27941,-1.617855 1.29633,-3.8476571 0.32815,-5.4570311 -0.96819,-1.609375 -3.03653,-2.538713 -5.5547,-1.539441 a 0.52921795,0.52921795 0 0 0 -0.0465,0.01964 c -0.88985,0.454169 -1.99162,0.47223 -2.79311,0.109554 -0.8015,-0.362677 -1.32229,-1.013295 -1.2361,-2.150257 a 0.52921795,0.52921795 0 0 0 -0.004,-0.123506 c -0.065,-0.409712 -0.007,-0.676771 0.0879,-0.851111 0.0948,-0.174339 0.22847,-0.278289 0.42012,-0.340031 0.38334,-0.123483 1.01322,-0.0019 1.49966,0.453202 a 0.52921795,0.52921795 0 0 0 0.83405,-0.623217 c -0.029,-0.05769 -0.0821,-0.09243 -0.11317,-0.148312 l 0.002,-0.0021 c -0.002,-0.0021 -0.006,-0.002 -0.008,-0.0041 -1.10817,-1.98082098 -3.50518,-2.84537198 -5.65599,-2.44326198 h -0.002 c -1.08599,0.199536 -2.32142,0.554241 -3.14245,0.476457 -0.41077,-0.03892 -0.68261,-0.153258 -0.88676,-0.398425 -0.16364,-0.196515 -0.24926,-0.656041 -0.29921,-1.18339102 0.76923,-0.54194 2.0966,-0.714533 3.65662,-0.324011 a 0.52921795,0.52921795 0 0 0 0.50178,-0.886767 c -2.36145,-2.364214 -4.78423,-3.365012 -7.17889,-3.319178 z m 17.92501,6.16654902 c -0.88882,0 -1.64848,0.70286798 -1.64848,1.59008398 0,0.887216 0.75966,1.5875 1.64848,1.5875 0.88882,0 1.64847,-0.700284 1.64847,-1.5875 0,-0.887216 -0.75965,-1.59008398 -1.64847,-1.59008398 z m 30.04829,0.58497698 c 0.58378,0.03161 1.13653,0.21519 1.6552,0.538469 0.19396,0.120894 0.37953,0.261032 0.5612,0.40876 -2.22413,2.902031 -3.36985,6.220748 -4.24367,9.9823371 -0.1014,-0.06361 -0.19119,-0.128986 -0.30799,-0.192237 -0.41262,-0.22344 -0.85907,-0.429271 -1.24437,-0.521415 -0.85779,-0.274193 -1.81332,-0.187801 -2.73678,0.0062 0.37285,-1.017339 0.77002,-2.0319211 1.17461,-3.0473591 a 0.52921795,0.52921795 0 0 0 0.006,-0.0155 c 0.37907,-1.051368 0.88044,-1.93572 1.55753,-2.809131 a 0.52921795,0.52921795 0 0 0 0.70176,0.295589 c 0.83226,-0.49882 1.6584,-1.129685 1.93167,-2.060339 0.13664,-0.465326 0.0911,-1.004423 -0.1757,-1.496033 -0.13776,-0.253899 -0.47963,-0.479416 -0.72296,-0.716752 0.64427,-0.283708 1.25952,-0.404198 1.8433,-0.372587 z m -30.04829,0.473873 c 0.34738,0 0.59014,0.248229 0.59014,0.531234 0,0.283005 -0.24276,0.529166 -0.59014,0.529166 -0.34739,0 -0.58963,-0.246161 -0.58963,-0.529166 0,-0.283005 0.24224,-0.531234 0.58963,-0.531234 z m 35.56475,0.154513 c 1.10345,0.168816 2.24163,0.2665 3.21272,0.691947 -4.00524,3.746455 -7.13746,7.7343521 -8.27753,11.9677451 -0.63268,-0.05729 -1.271,-0.05344 -1.90789,0.01447 0.93299,-4.5752691 2.00419,-8.3961891 4.44314,-11.6225461 0.6034,0.667438 1.08489,1.429449 1.37304,2.104264 a 0.52921795,0.52921795 0 0 0 0.92759,0.08423 c 0.5431,-0.825232 0.64315,-1.650632 0.52555,-2.351794 -0.0582,-0.347036 -0.18623,-0.593036 -0.29662,-0.888318 z m -11.07684,1.088822 c 0.30765,-0.01188 0.59219,0.0088 0.84026,0.06718 0.4749,0.111754 0.79995,0.349208 1.04903,0.784965 0.003,0.03046 0.003,0.171266 0.007,0.238229 -1.11055,1.234352 -1.91732,2.470193 -2.466,3.992004 -0.49332,1.238278 -0.97988,2.4828851 -1.42627,3.7434411 -0.64536,0.198351 -1.23637,0.416358 -1.68672,0.58136 a 0.52921795,0.52921795 0 0 0 -0.0295,0.01188 c -0.82614,0.36049 -1.54119,0.579673 -2.16266,0.700733 0.0176,-0.10814 0.0224,-0.139797 0.22531,-1.388546 0.10317,-0.634763 0.70251,-2.0336122 1.27538,-3.1894692 0.2201,-0.444096 0.42497,-0.837118 0.60668,-1.18029 0.0184,0.142646 0.0371,0.284658 0.0341,0.471289 a 0.52921795,0.52921795 0 0 0 0.89039,0.394808 c 0.85457,-0.800502 1.42158,-1.79529 1.13275,-2.78536 -0.14442,-0.495034 -0.51412,-0.924714 -1.04283,-1.230416 -0.14089,-0.08147 -0.39798,-0.09861 -0.56276,-0.165881 0.76941,-0.348889 1.47976,-0.737889 2.33784,-0.91829 0.33967,-0.07141 0.67058,-0.115763 0.97824,-0.127641 z m 15.24248,0.158647 c 0.72952,0.563165 1.34066,1.433381 1.74304,2.883028 -2.36867,0.796505 -4.42671,3.135973 -6.01048,5.9489911 -0.61735,1.096494 -1.16015,2.269964 -1.61127,3.465938 -0.7369,-0.32939 -1.50748,-0.579016 -2.29754,-0.734839 1.10755,-3.956861 4.17302,-7.8592051 8.17625,-11.5631181 z m -20.14089,3.138309 c 0.15296,0.0045 0.29089,0.02637 0.40876,0.06511 0.0166,0.0054 0.0288,0.01582 0.045,0.0217 -0.21691,0.398036 -0.53518,0.993468 -0.87902,1.687235 -0.58719,1.184748 -1.21201,2.5248811 -1.36891,3.4902271 -0.24421,1.502521 -0.26779,1.645839 -0.27182,1.670699 -0.37765,-0.0016 -0.70607,-0.04656 -0.97461,-0.133326 -0.84911,-0.274353 -1.2538,-0.865683 -1.39268,-1.668115 -0.34188,-1.9752871 1.17306,-3.8580711 2.77761,-4.6911861 0.60169,-0.312419 1.19681,-0.455755 1.65571,-0.442351 z m -43.766845,1.806609 c 0.22714,0.01659 0.43908,0.05164 0.63097,0.108003 0.52398,0.153901 0.88651,0.407209 1.09916,0.753959 0.0239,0.03889 0.0398,0.0863 0.0605,0.128675 -1.26183,1.3707911 -2.31314,3.9302821 -3.74189,7.5385581 -0.54697,0.14768 -1.04872,0.315355 -1.42989,0.44235 a 0.52921795,0.52921795 0 0 0 -0.0331,0.01137 c -0.59624,0.244722 -1.169782,0.408047 -1.712042,0.510046 0.0252,-0.109527 0.0313,-0.136211 0.31161,-1.355473 0.28666,-1.247074 1.401092,-3.797882 1.684652,-4.437972 0.27827,0.371545 0.50095,0.888043 0.62993,1.613855 a 0.52921795,0.52921795 0 0 0 0.88264,0.293006 c 1.46789,-1.368268 1.18617,-4.0154001 -0.71262,-5.3381761 0.8297,-0.202005 1.64867,-0.317985 2.33009,-0.2682 z m 16.201085,1.490865 c 0.66176,0.271392 1.33485,0.522702 1.97921,0.7777301 -0.62567,0.614282 -1.19731,1.240147 -1.71566,1.872754 0.1,-0.324759 0.15395,-0.660679 0.16226,-0.996322 0.0141,-0.569461 -0.24867,-1.1037831 -0.42581,-1.6541621 z m -21.183727,1.3776931 c 0.35934,-0.01969 0.69451,0.03386 0.993222,0.155546 -0.0376,0.08134 -1.465302,3.17384 -1.856732,4.876705 -0.35505,1.544528 -0.39272,1.708863 -0.3943,1.715658 -0.56366,0.01571 -1.07317,-0.04144 -1.50378,-0.160714 -1.07142,-0.296781 -1.61582,-0.883674 -1.65261,-1.574064 -0.10751,-2.017459 1.4871,-3.97547 3.18017,-4.705139 0.42326,-0.182418 0.84176,-0.286496 1.23403,-0.307992 z m 39.541257,1.448491 c -0.8888,0 -1.64847,0.702351 -1.64847,1.589567 0,0.887217 0.75967,1.588016 1.64847,1.588016 0.88882,0 1.64797,-0.700799 1.64797,-1.588016 0,-0.887216 -0.75915,-1.589567 -1.64797,-1.589567 z m 16.49461,1.038696 c 0.32722,-0.0085 0.61334,0.0031 0.86402,0.02325 -0.0908,0.425782 -0.18016,0.85629 -0.26768,1.292945 -0.12223,0.02833 -0.24476,0.05334 -0.36638,0.08682 a 0.52921795,0.52921795 0 0 0 -0.0336,0.0098 c -0.0521,0.01811 -0.4533,0.05785 -0.89814,0.01757 -0.44483,-0.04028 -0.96718,-0.1316 -1.42214,-0.256315 -0.42292,-0.115934 -0.76011,-0.271043 -0.92966,-0.382406 0.0728,-0.09424 0.22284,-0.229166 0.50798,-0.34985 0.31497,-0.133303 0.73439,-0.241659 1.18184,-0.316259 0.44745,-0.0746 0.92609,-0.114148 1.36375,-0.125574 z m -16.49461,0.01964 c 0.34738,0 0.58963,0.24823 0.58963,0.531234 0,0.283003 -0.24225,0.529683 -0.58963,0.529683 -0.34739,0 -0.59014,-0.24668 -0.59014,-0.529683 0,-0.283004 0.24275,-0.531234 0.59014,-0.531234 z m 3.49798,1.572514 c -0.51648,-0.01886 -1.0693,0.0668 -1.64641,0.240295 a 0.52916503,0.52916503 0 0 0 -0.35553,0.657841 0.52916503,0.52916503 0 0 0 0.65991,0.355534 c 0.98695,-0.296698 1.69777,-0.257161 2.25981,0.05478 0.24752,0.137373 0.41193,0.62692 0.62683,0.902271 -1.46501,-0.461606 -2.93801,-0.574893 -4.22661,0.02945 a 0.52921795,0.52921795 0 0 0 -0.16795,0.834058 c 0.25994,0.288247 0.41251,0.5074 0.60306,0.751375 h 1.24902 c -0.18384,-0.243779 -0.37391,-0.490379 -0.57206,-0.741557 1.27197,-0.374549 2.68704,-0.296919 4.14445,0.558623 a 0.52921795,0.52921795 0 0 0 0.76946,-0.628903 c -0.4287,-1.2439 -1.04289,-2.148478 -1.91202,-2.630847 -0.43456,-0.241184 -0.91548,-0.364063 -1.43196,-0.382922 z m -20.16828,0.84956 c -0.8888,0 -1.64847,0.702351 -1.64847,1.589567 0,0.614137 0.37566,1.121591 0.89452,1.386479 h 1.50791 c 0.51887,-0.264888 0.89452,-0.772342 0.89452,-1.386479 0,-0.887216 -0.75966,-1.589567 -1.64848,-1.589567 z m 0,1.058334 c 0.34739,0 0.59015,0.24823 0.59015,0.531233 0,0.283005 -0.24276,0.529684 -0.59015,0.529684 -0.34738,0 -0.58962,-0.246679 -0.58962,-0.529684 0,-0.283003 0.24224,-0.531233 0.58962,-0.531233 z m 25.66821,1.046964 c -0.7205,0.01387 -1.48669,0.289577 -2.31976,0.870748 h 4.50153 c -0.59725,-0.506957 -1.31983,-0.887336 -2.18177,-0.870748 z m 5.85752,0.12299 a 0.52921795,0.52921795 0 0 0 -0.58446,0.730705 c 0.002,0.004 0.004,0.013 0.006,0.01705 h 3.7698 c -0.0706,-0.03286 -0.14051,-0.07906 -0.21136,-0.10697 -1.0979,-0.432549 -2.15187,-0.482711 -2.98018,-0.640788 z" />
  </g>
</svg>
