<?xml version="1.0" encoding="UTF-8" standalone="no"?>
<!-- Created with Inkscape (http://www.inkscape.org/) -->

<svg
   width="79.595039mm"
   height="72.104179mm"
   viewBox="0 0 79.595041 72.104179"
   version="1.1"
   id="svg1"
   xmlns="http://www.w3.org/2000/svg"
   xmlns:svg="http://www.w3.org/2000/svg">
  <defs
     id="defs1" />
  <g
     id="layer1"
     transform="translate(-60.06817,234.62495)">
    <path
       id="path79"
       style="color:#000000;fill:#35b9ab;fill-opacity:1;stroke:none;stroke-width:1.05833;stroke-linecap:round;stroke-linejoin:round;stroke-dasharray:none;stroke-opacity:1;-inkscape-stroke:none;paint-order:markers fill stroke"
       d="m 87.501,-234.62439 a 0.52919123,0.52914199 0 0 0 -0.52813,0.53175 v 2.12338 a 0.52924416,0.52919491 0 0 0 -0.007,0.0156 v 5.65703 c -0.79153,1.0487 -2.15577,2.07748 -3.53157,2.95226 -1.31208,0.8343 -2.57075,1.51671 -3.35535,2.11667 -0.371,-0.10486 -0.60162,-0.32652 -0.73122,-0.54622 a 0.52919123,0.52914199 0 0 0 -0.72451,-0.18913 0.52919123,0.52914199 0 0 0 -0.18964,0.7245 c 0.32076,0.54385 0.92162,0.95338 1.72496,1.06609 a 0.52924416,0.52919491 0 0 0 0.0765,0.0237 h 0.15601 c 0.14371,0.009 0.2928,0.0104 0.44752,0 h 3.29023 v 6.40994 h -0.8227 a 0.52924416,0.52919491 0 0 0 -0.42631,0.21653 c -1.92827,2.61883 -5.51474,4.33186 -7.3639,5.55315 -0.52036,-0.0631 -0.82411,-0.33093 -0.97875,-0.59377 a 0.52397833,0.53440613 0 0 0 -0.72037,-0.18294 0.52397833,0.53440613 0 0 0 -0.17933,0.73485 c 0.41292,0.7017 1.27989,1.17644 2.44637,1.08364 h 3.69797 v 6.09059 h -0.65372 a 0.52924416,0.52919491 0 0 0 -0.40927,0.19637 c -2.17735,2.69371 -5.8402,5.0026 -7.7711,6.19239 -0.54121,-0.0575 -0.85581,-0.33213 -1.01441,-0.59996 a 0.52560012,0.53275687 0 0 0 -0.324,-0.24029 0.52560012,0.53275687 0 0 0 -0.3974,0.0579 0.52560012,0.53275687 0 0 0 -0.18036,0.73122 c 0.35022,0.5915 1.02515,1.02314 1.93167,1.08883 a 0.52924416,0.52919491 0 0 0 0.0965,0.0449 h 4.46587 v 13.50461 H 62.9408 a 0.52924416,0.52919491 0 0 0 -0.5245,0.45372 l -2.34302,16.28376 a 0.52924416,0.52919491 0 0 0 0.52142,0.60255 h 78.53836 a 0.52924416,0.52919491 0 0 0 0.52504,-0.60255 l -2.34613,-16.28376 a 0.52924416,0.52919491 0 0 0 -0.52141,-0.45372 H 124.2058 v -13.50461 h 4.46537 a 0.52924416,0.52919491 0 0 0 0.14526,-0.0491 c 0.88216,-0.0777 1.53988,-0.50416 1.8836,-1.08468 a 0.52560012,0.53275687 0 0 0 -0.18036,-0.73123 0.52560012,0.53275687 0 0 0 -0.39738,-0.0579 0.52560012,0.53275687 0 0 0 -0.32401,0.24029 c -0.15861,0.26792 -0.47289,0.54245 -1.01442,0.59996 -1.93088,-1.18979 -5.59373,-3.49869 -7.7711,-6.19239 a 0.52924416,0.52919491 0 0 0 -0.41288,-0.19637 h -0.65009 v -6.09059 h 3.69692 c 1.16631,0.0927 2.03347,-0.38199 2.44637,-1.08364 a 0.52397833,0.53440613 0 0 0 -0.17932,-0.73484 0.52397833,0.53440613 0 0 0 -0.72037,0.18293 c -0.15463,0.26276 -0.45818,0.53061 -0.97823,0.59377 -1.84927,-1.22127 -5.43524,-2.93447 -7.36338,-5.55315 a 0.52924416,0.52919491 0 0 0 -0.42634,-0.21653 h -0.82268 v -6.40994 h 3.29128 c 0.15463,0.0104 0.30395,0.009 0.44752,0 h 0.15393 a 0.52924416,0.52919491 0 0 0 0.12655,-0.031 c 0.77809,-0.1222 1.36054,-0.52602 1.67482,-1.05886 a 0.52919123,0.52914199 0 0 0 -0.18964,-0.72449 0.52919123,0.52914199 0 0 0 -0.72451,0.18912 c -0.12967,0.2197 -0.36022,0.44143 -0.73122,0.54622 -0.7846,-0.59995 -2.04339,-1.28237 -3.35535,-2.11667 -1.37708,-0.87569 -2.74044,-1.90552 -3.53157,-2.95536 v -5.65393 -2.13939 a 0.52919123,0.52914199 0 0 0 -0.52814,-0.53176 0.52919123,0.52914199 0 0 0 -0.53175,0.53176 v 1.61126 H 88.02862 v -1.61126 a 0.52919123,0.52914199 0 0 0 -0.52814,-0.53176 z m 0.52452,3.19929 h 23.67968 v 5.35212 a 0.52924416,0.52919491 0 0 0 0.10176,0.30852 c 0.93981,1.30473 2.46736,2.38983 3.92069,3.314 0.6222,0.39567 1.02017,0.64957 1.46812,0.93224 a 0.52919123,0.52914199 0 0 0 -0.2222,0.23927 0.52919123,0.52914199 0 0 0 -0.0206,0.0707 H 101.54822 82.78606 a 0.52919123,0.52914199 0 0 0 -0.0253,-0.0707 0.52919123,0.52914199 0 0 0 -0.22323,-0.24081 c 0.44722,-0.28224 0.84472,-0.53562 1.46606,-0.9307 1.45344,-0.92417 2.98088,-2.00924 3.92069,-3.314 a 0.52924416,0.52919491 0 0 0 0.10123,-0.30852 z m -2.83653,11.33573 h 11.02053 v 3.50056 a 0.52924416,0.52919491 0 0 0 0.52812,0.52815 h 3.08768 a 0.52924416,0.52919491 0 0 0 0.0367,-0.005 0.52924416,0.52919491 0 0 0 0.0449,0.005 h 3.08766 a 0.52924416,0.52919491 0 0 0 0.52814,-0.52815 v -3.50056 h 11.02051 v 6.35104 h -10.82776 a 0.52924416,0.52919491 0 0 0 -0.12204,-0.0915 c -1.40232,-0.61778 -2.63346,-0.86822 -3.71036,-0.90383 a 0.52924416,0.52919491 0 0 0 -0.0341,0 c -1.07683,0.0357 -2.30854,0.28604 -3.71088,0.90383 a 0.52924416,0.52919491 0 0 0 -0.12187,0.0915 H 85.18897 Z m 12.07679,0.0848 h 2.03139 v 2.88457 h -2.03139 z m 3.16931,0 h 2.02778 v 2.88457 h -2.02778 z m -0.56895,6.33088 h 5.2e-4 c 0.91235,0.0319 1.97268,0.25929 3.21271,0.7922 l 3.97186,4.67515 c -1.33577,-0.19229 -2.33595,-0.56059 -3.15899,-1.04954 -1.08773,-0.64617 -2.18083,-1.40241 -4.01215,-1.45262 a 0.52924416,0.52919491 0 0 0 -0.0139,0 c -1.91582,0 -3.05561,0.7567 -4.14755,1.41852 -0.81323,0.49291 -1.77069,0.86732 -3.02359,1.07021 l 3.95789,-4.66172 c 1.24001,-0.53289 2.30082,-0.76017 3.21325,-0.7922 z m -16.37679,0.99528 h 11.60189 l -3.9884,4.69533 H 77.96928 a 0.52397833,0.53440613 0 0 0 -0.0264,-0.078 0.52397833,0.53440613 0 0 0 -0.0621,-0.10435 c 1.78243,-1.05017 3.96377,-2.42513 5.60843,-4.51291 z m 21.15117,0 h 11.60239 c 1.64486,2.08791 3.8256,3.46229 5.60793,4.51239 a 0.52397833,0.53440613 0 0 0 -0.0626,0.10487 0.52397833,0.53440613 0 0 0 -0.0222,0.078 h -13.13667 z m -4.78111,3.03289 c 1.55735,0.0449 2.36161,0.62941 3.49075,1.30019 0.59887,0.35576 1.28069,0.71999 2.15078,0.98495 a 0.52930303,0.52914005 0 0 0 -0.0139,0.11058 v 3.94447 a 0.52930303,0.52914005 0 0 0 0.53072,0.52917 h 3.08664 a 0.52930303,0.52914005 0 0 0 0.52917,-0.52917 v -3.6215 h 2.75486 v 3.6215 a 0.52930303,0.52914005 0 0 0 0.52916,0.52917 h 3.0882 a 0.52930303,0.52914005 0 0 0 0.52916,-0.52917 v -3.6215 h 2.35954 v 6.09059 h -16.2786 a 0.52919123,0.52914199 0 0 0 -0.0992,0.0414 c -0.77485,-0.79303 -1.54572,-1.62136 -2.31149,-2.49236 a 0.52924416,0.52919491 0 0 0 -0.39584,-0.17983 0.52924416,0.52919491 0 0 0 -0.39636,0.17983 c -0.75265,0.85606 -1.51029,1.67038 -2.27169,2.45102 H 80.83894 v -6.09059 h 2.35696 v 3.6215 a 0.52930303,0.52914005 0 0 0 0.53123,0.52916 h 3.08663 a 0.52930303,0.52914005 0 0 0 0.52917,-0.52916 v -3.6215 h 2.75436 v 3.6215 a 0.52930303,0.52914005 0 0 0 0.52968,0.52916 h 3.08818 a 0.52930303,0.52914005 0 0 0 0.52917,-0.52916 v -3.94447 a 0.52930303,0.52914005 0 0 0 -0.0227,-0.14837 c 0.81812,-0.27247 1.4679,-0.63777 2.04586,-0.98807 1.11933,-0.67843 1.94867,-1.25705 3.59254,-1.25935 z m -15.6037,2.92489 h 2.02779 v 2.88613 h -2.02779 z m 6.89985,0 h 2.02985 v 2.88613 h -2.02985 z m 15.39079,0 h 2.02829 v 2.88613 h -2.02829 z m 6.89983,0 h 2.02985 v 2.88613 h -2.02985 z m -13.6374,4.52685 c 3.0118,3.36345 6.0889,6.09605 9.1829,8.59689 a 0.52919123,0.52914199 0 0 0 0.16122,0.1307 c 0.59781,0.48155 1.19605,0.95794 1.79472,1.42523 h -2.17869 c -2.91339,-2.15983 -5.7888,-4.42845 -8.57105,-7.46828 a 0.52924416,0.52919491 0 0 0 -0.38912,-0.16952 0.52924416,0.52919491 0 0 0 -0.38964,0.16952 c -2.78228,3.03983 -5.65771,5.30845 -8.57105,7.46828 h -2.17868 c 3.75141,-2.92824 7.49341,-6.08125 11.13937,-10.15287 z m -20.48041,2.41381 h 16.75659 c -2.03376,1.99458 -4.09412,3.7689 -6.17067,5.44411 a 0.52919123,0.52914199 0 0 0 -0.20515,-0.0853 H 73.39798 a 0.52560012,0.53275687 0 0 0 -0.0378,-0.12497 0.52560012,0.53275687 0 0 0 -0.11424,-0.15964 c 1.91988,-1.23999 4.2638,-2.91151 6.08232,-5.07411 z m 24.20369,0 h 16.87185 c 1.81923,2.16341 4.1614,3.83555 6.08127,5.07566 a 0.52560012,0.53275687 0 0 0 -0.11319,0.15808 0.52560012,0.53275687 0 0 0 -0.0367,0.12497 h -16.73904 c -2.04049,-1.64988 -4.06524,-3.39838 -6.06423,-5.35884 z m -3.72328,1.32706 c 2.41707,2.57434 4.89496,4.54194 7.37371,6.412 h -7.37371 -7.37423 c 2.47875,-1.87006 4.95714,-3.83766 7.37423,-6.412 z m -11.47063,5.08805 h 0.35708 c -0.61135,0.48202 -1.22367,0.95946 -1.83708,1.43195 a 0.52924416,0.52919491 0 0 0 0.32142,0.94827 h 2.00453 v 11.11766 H 76.5859 v -13.43018 h 11.58948 a 0.52919123,0.52914199 0 0 0 0.16277,-0.0678 z m 22.63325,0.0399 a 0.52919123,0.52914199 0 0 0 0.0676,0.0279 h 12.10728 v 13.43018 h -12.5982 v -11.11766 h 1.8893 a 0.52924416,0.52919491 0 0 0 0.32142,-0.94827 c -0.59677,-0.45966 -1.19268,-0.92357 -1.78749,-1.39216 z m -20.73104,2.34043 h 9.56842 9.67951 v 11.11766 H 90.24036 Z m -8.93484,2.22053 a 0.52924416,0.52919491 0 0 0 -0.52814,0.53176 v 3.94032 a 0.52924416,0.52919491 0 0 0 0.52814,0.53175 h 3.08766 a 0.52924416,0.52919491 0 0 0 0.53175,-0.53175 v -3.94032 a 0.52924416,0.52919491 0 0 0 -0.53175,-0.53176 z m 15.43212,0 a 0.52924416,0.52919491 0 0 0 -0.52812,0.53176 v 3.94032 a 0.52924416,0.52919491 0 0 0 0.52812,0.53175 h 3.08768 a 0.52924416,0.52919491 0 0 0 0.0563,-0.003 0.52924416,0.52919491 0 0 0 0.0253,0.003 h 3.08766 a 0.52924416,0.52919491 0 0 0 0.52814,-0.53175 v -3.94032 a 0.52924416,0.52919491 0 0 0 -0.52814,-0.53176 h -3.08766 a 0.52924416,0.52919491 0 0 0 -0.0253,0.003 0.52924416,0.52919491 0 0 0 -0.0563,-0.003 z m 18.59784,0 a 0.52924416,0.52919491 0 0 0 -0.52814,0.53176 v 3.94032 a 0.52924416,0.52919491 0 0 0 0.52814,0.53175 h 3.08766 a 0.52924416,0.52919491 0 0 0 0.53176,-0.53175 v -3.94032 a 0.52924416,0.52919491 0 0 0 -0.53176,-0.53176 z m -33.49821,1.05988 h 2.02778 v 2.88407 h -2.02778 z m 15.42851,0 h 2.03139 v 2.88407 h -2.03139 z m 3.16931,0 h 2.02778 v 2.88407 h -2.02778 z m 15.43214,0 h 2.02778 v 2.88407 h -2.02778 z m -52.46553,8.90023 h 3.53724 c -0.11233,0.39031 -0.42794,1.34928 -1.12292,2.59986 -0.42001,0.75576 -1.75436,1.31169 -2.96985,1.25624 z m 5.4131,0 h 6.0663 c -0.11129,0.38558 -0.42619,1.34153 -1.12552,2.59986 -0.34824,0.62666 -1.30398,1.1373 -2.33319,1.24229 -1.02923,0.10504 -2.04425,-0.18609 -2.55281,-0.83974 -1.10964,-1.42614 -0.0676,-2.97915 -0.0676,-2.97915 a 0.52919123,0.52914199 0 0 0 0.0121,-0.0232 z m 7.94008,0 h 6.0663 c -0.11042,0.38556 -0.42361,1.34151 -1.12292,2.59986 -0.34826,0.62666 -1.30348,1.1373 -2.33269,1.24229 -1.02921,0.10504 -2.04425,-0.18609 -2.55281,-0.83974 -1.10946,-1.42612 -0.0712,-2.97915 -0.0712,-2.97915 a 0.52919123,0.52914199 0 0 0 0.0139,-0.0232 z m 7.50446,0 h 6.06475 c -0.11146,0.38719 -0.42637,1.34201 -1.12398,2.59727 -0.34824,0.62671 -1.30297,1.13783 -2.33215,1.24282 -1.02917,0.10504 -2.04683,-0.18299 -2.55539,-0.83664 -1.10957,-1.42617 -0.0673,-2.97863 -0.0673,-2.97863 a 0.5292501,0.52908713 0 0 0 0.0139,-0.0248 z m 7.94164,0 h 6.06473 c -0.11146,0.38719 -0.42585,1.34201 -1.12344,2.59727 -0.34827,0.62671 -1.30351,1.13783 -2.33267,1.24282 -1.02919,0.10504 -2.04477,-0.18299 -2.55333,-0.83664 -1.10955,-1.42617 -0.0693,-2.97863 -0.0693,-2.97863 a 0.5292501,0.52908713 0 0 0 0.0139,-0.0248 z m 7.46981,0 h 6.06476 c -0.11147,0.38719 -0.42585,1.34201 -1.12344,2.59727 -0.34826,0.62671 -1.30352,1.13783 -2.33269,1.24282 -1.02916,0.10504 -2.04684,-0.18299 -2.55539,-0.83664 -1.10957,-1.42617 -0.0673,-2.97863 -0.0673,-2.97863 a 0.5292501,0.52908713 0 0 0 0.0139,-0.0248 z m 7.94164,0 h 6.06476 c -0.11147,0.38719 -0.42587,1.34201 -1.12346,2.59727 -0.34828,0.62671 -1.30352,1.13783 -2.33267,1.24282 -1.02919,0.10504 -2.04476,-0.18299 -2.55333,-0.83664 -1.10955,-1.42617 -0.0692,-2.97863 -0.0692,-2.97863 a 0.5292501,0.52908713 0 0 0 0.0139,-0.0248 z m 7.70289,0 h 6.06475 c -0.11146,0.38719 -0.42585,1.34201 -1.12344,2.59727 -0.34826,0.62671 -1.30351,1.13783 -2.33269,1.24282 -1.02917,0.10504 -2.04683,-0.18299 -2.55539,-0.83664 -1.10957,-1.42617 -0.0673,-2.97863 -0.0673,-2.97863 a 0.5292501,0.52908713 0 0 0 0.0139,-0.0248 z m 7.94164,0 h 6.06475 c -0.11146,0.38719 -0.42587,1.34201 -1.12346,2.59727 -0.34827,0.62671 -1.30351,1.13783 -2.33267,1.24282 -1.02919,0.10504 -2.04527,-0.18299 -2.55384,-0.83664 -1.10956,-1.42617 -0.0688,-2.97863 -0.0688,-2.97863 a 0.5292501,0.52908713 0 0 0 0.0139,-0.0248 z m 7.69978,0 h 5.37384 l 0.26148,1.81436 a 0.52919123,0.52914199 0 0 0 -0.1028,0.15236 c -0.37547,0.91026 -1.46652,1.56291 -2.64739,1.75701 -1.18087,0.1941 -2.34596,-0.10279 -2.82721,-0.72141 -1.10947,-1.42612 -0.0707,-2.97914 -0.0707,-2.97914 a 0.52919123,0.52914199 0 0 0 0.0121,-0.0232 z m -40.23474,1.92703 c 0.0553,0.55586 0.25196,1.15083 0.69866,1.72496 0.55878,0.7182 1.38934,1.0964 2.27117,1.22111 -0.13175,0.43462 -0.44814,1.33941 -1.09605,2.50527 -0.34828,0.6267 -1.303,1.13834 -2.33215,1.24333 -1.02919,0.10504 -2.04528,-0.18349 -2.55385,-0.83714 -1.10956,-1.42617 -0.0688,-2.97864 -0.0688,-2.97864 a 0.5292501,0.52908713 0 0 0 0.0139,-0.0258 c 1.03579,-0.23904 1.98006,-0.7844 2.47116,-1.6681 0.23643,-0.42543 0.43242,-0.82412 0.59531,-1.18494 z m 15.41145,0 c 0.0553,0.55586 0.25202,1.15083 0.69867,1.72496 0.55879,0.7182 1.38936,1.0964 2.27118,1.22111 -0.13174,0.43462 -0.44816,1.33941 -1.09607,2.50527 -0.34827,0.6267 -1.30299,1.13834 -2.33215,1.24333 -1.02919,0.10504 -2.04527,-0.18349 -2.55384,-0.83714 -1.10956,-1.42617 -0.0686,-2.97864 -0.0686,-2.97864 a 0.5292501,0.52908713 0 0 0 0.0139,-0.0258 c 1.03579,-0.23904 1.98008,-0.7844 2.47116,-1.6681 0.23643,-0.42543 0.43242,-0.82412 0.59531,-1.18494 z m 15.64453,0 c 0.0553,0.55586 0.25201,1.15083 0.69866,1.72496 0.55878,0.7182 1.38936,1.0964 2.27119,1.22111 -0.13175,0.43462 -0.44816,1.33941 -1.09607,2.50527 -0.34828,0.6267 -1.30352,1.13834 -2.33267,1.24333 -1.02919,0.10504 -2.04476,-0.18349 -2.55333,-0.83714 -1.10955,-1.42617 -0.0686,-2.97864 -0.0686,-2.97864 a 0.5292501,0.52908713 0 0 0 0.0139,-0.0258 c 1.0358,-0.23904 1.98008,-0.7844 2.47116,-1.6681 0.23643,-0.42543 0.43242,-0.82412 0.59532,-1.18494 z m -46.50001,0.001 c 0.0555,0.55566 0.25217,1.1505 0.69866,1.72446 0.55867,0.71806 1.38967,1.09695 2.27171,1.22213 -0.13244,0.43533 -0.4497,1.34037 -1.09709,2.50529 -0.34824,0.62667 -1.30345,1.1373 -2.33268,1.24229 -1.0292,0.10504 -2.04427,-0.18559 -2.55282,-0.83922 -1.10947,-1.42614 -0.0676,-2.97604 -0.0676,-2.97604 a 0.52919123,0.52914199 0 0 0 0.0139,-0.0253 c 1.03547,-0.23998 1.9797,-0.78724 2.47064,-1.6707 0.2361,-0.42483 0.43218,-0.82245 0.5948,-1.18288 z m -7.94318,5.2e-4 c 0.0555,0.55552 0.25224,1.15015 0.69866,1.72394 0.55879,0.71822 1.38997,1.09756 2.27223,1.22265 -0.13158,0.43554 -0.44685,1.34028 -1.09401,2.50477 -0.34826,0.62667 -1.30657,1.1373 -2.33577,1.24229 -1.02921,0.10504 -2.04478,-0.18559 -2.55333,-0.83922 -1.10963,-1.42615 -0.0676,-2.97604 -0.0676,-2.97604 a 0.52919123,0.52914199 0 0 0 0.005,-0.009 c 1.04653,-0.23497 1.98558,-0.79761 2.47995,-1.68724 0.23596,-0.42458 0.43192,-0.8221 0.5948,-1.18236 z m 62.2055,0.38087 c 0.0967,0.44175 0.29238,0.89854 0.63822,1.34307 0.47938,0.61618 1.18837,0.96917 1.97609,1.11569 -0.10522,0.37064 -0.4155,1.32887 -1.12757,2.61017 -0.34826,0.6267 -1.30299,1.13834 -2.33217,1.24333 -1.02917,0.10504 -2.04683,-0.18349 -2.55539,-0.83714 -0.96274,-1.23746 -0.30662,-2.56705 -0.11579,-2.89803 1.26955,-0.14109 2.5113,-0.71416 3.10059,-1.77456 0.15601,-0.28063 0.2928,-0.5482 0.41598,-0.80253 z m -15.64451,5e-4 c 0.0967,0.44134 0.29171,0.89802 0.63716,1.34205 0.5589,0.71834 1.39069,1.09648 2.27325,1.22111 -0.13175,0.43462 -0.44814,1.33941 -1.09605,2.50527 -0.34826,0.6267 -1.30352,1.13834 -2.33269,1.24333 -1.02916,0.10504 -2.04684,-0.18349 -2.55539,-0.83714 -1.05147,-1.35148 -0.17992,-2.79999 -0.0848,-2.9497 1.13989,-0.20224 2.20881,-0.76259 2.74247,-1.72289 0.15584,-0.28047 0.29286,-0.54782 0.416,-0.80203 z m -30.98727,0.26097 c 0.1106,0.35876 0.29076,0.72415 0.56845,1.08108 0.55877,0.7182 1.39035,1.09641 2.27273,1.22111 -0.13175,0.43463 -0.44764,1.33945 -1.09555,2.50527 -0.34826,0.6267 -1.3035,1.13834 -2.33267,1.24333 -1.02918,0.10504 -2.04684,-0.18349 -2.55539,-0.83714 -0.97679,-1.25549 -0.2874,-2.60655 -0.108,-2.9125 1.2223,-0.16588 2.39596,-0.73776 2.96469,-1.76113 0.10314,-0.18573 0.19708,-0.36528 0.28576,-0.54002 z m 15.4249,0.0414 c 0.11163,0.34545 0.28796,0.69648 0.55501,1.03973 0.55889,0.71835 1.39069,1.09649 2.27324,1.22112 -0.13174,0.43461 -0.44814,1.33941 -1.09605,2.50526 -0.34826,0.62671 -1.30299,1.13835 -2.33217,1.24334 -1.02917,0.10504 -2.04683,-0.18349 -2.55539,-0.83715 -0.97283,-1.25042 -0.2923,-2.5973 -0.10955,-2.91043 1.23403,-0.15981 2.42616,-0.72987 2.99982,-1.76215 0.0953,-0.1716 0.18221,-0.33748 0.26509,-0.49972 z m 38.48345,0.76275 0.72759,5.04981 c -0.57319,0.19358 -1.23546,0.26541 -1.83399,0.18604 -0.68851,-0.0913 -1.27268,-0.37054 -1.62728,-0.8263 -1.10956,-1.42616 -0.0692,-2.97864 -0.0692,-2.97864 a 0.5292501,0.52908713 0 0 0 0.0227,-0.0402 c 1.03883,-0.17477 2.07244,-0.63131 2.78019,-1.39062 z m -74.12209,1.53323 c 0.11528,0.009 0.23102,0.0139 0.34725,0.0156 -0.30062,0.81333 -0.56389,2.21296 0.44443,3.50883 0.43305,0.55659 1.03051,0.90769 1.68775,1.09657 -0.0659,0.25134 -0.36811,1.29915 -1.16272,2.72903 -0.47169,0.84881 -1.37262,1.33326 -2.55695,1.25728 z m 23.48125,1.79989 c 0.0553,0.55586 0.25144,1.15084 0.69815,1.72496 0.43242,0.55581 1.02836,0.90632 1.68414,1.09503 -0.038,0.15426 -0.31325,1.20718 -1.16014,2.7311 -0.34828,0.6267 -1.30302,1.13783 -2.33217,1.24281 -1.02917,0.10504 -2.04528,-0.1835 -2.55385,-0.83716 -1.10955,-1.42616 -0.0686,-2.9781 -0.0686,-2.9781 a 0.5292501,0.52908713 0 0 0 0.009,-0.0156 c 1.27921,-0.13589 2.53489,-0.71001 3.12848,-1.77819 0.23656,-0.42563 0.43289,-0.82395 0.59584,-1.18494 z m 15.41146,5.2e-4 c 0.0553,0.55571 0.25163,1.1505 0.69814,1.72444 0.43244,0.55581 1.02838,0.90632 1.68414,1.09503 -0.038,0.15444 -0.31282,1.20737 -1.15962,2.7311 -0.34827,0.6267 -1.30351,1.13783 -2.33267,1.24281 -1.02919,0.10504 -2.04477,-0.1835 -2.55334,-0.83716 -1.10954,-1.42616 -0.0692,-2.9781 -0.0692,-2.9781 a 0.5292501,0.52908713 0 0 0 0.009,-0.0156 c 1.27906,-0.13607 2.53445,-0.71015 3.12796,-1.77819 0.23641,-0.42539 0.43294,-0.82361 0.59584,-1.18442 z m 15.64452,0 c 0.0553,0.55571 0.25164,1.1505 0.69815,1.72444 0.43244,0.55581 1.02837,0.90632 1.68414,1.09503 -0.038,0.15444 -0.31283,1.20737 -1.15962,2.7311 -0.34828,0.6267 -1.30352,1.13783 -2.33267,1.24281 -1.02919,0.10504 -2.04478,-0.1835 -2.55335,-0.83716 -1.10955,-1.42616 -0.0692,-2.9781 -0.0692,-2.9781 a 0.5292501,0.52908713 0 0 0 0.009,-0.0156 c 1.27906,-0.13607 2.53445,-0.71015 3.12797,-1.77819 0.23641,-0.42539 0.43294,-0.82361 0.59583,-1.18442 z m 15.3169,0 c 0.0555,0.55571 0.2521,1.1505 0.69866,1.72444 0.43026,0.55302 1.03107,0.90381 1.68414,1.09297 -0.0368,0.14976 -0.31106,1.2053 -1.16014,2.73316 -0.34827,0.6267 -1.30351,1.13783 -2.33267,1.24281 -1.02919,0.10504 -2.04477,-0.1835 -2.55334,-0.83716 -1.10956,-1.42616 -0.0692,-2.9781 -0.0692,-2.9781 a 0.5292501,0.52908713 0 0 0 0.009,-0.0156 c 1.27923,-0.13589 2.53488,-0.71001 3.12848,-1.77819 0.23641,-0.42539 0.43242,-0.82361 0.59532,-1.18442 z m -61.81691,0.002 c 0.0553,0.55505 0.25167,1.14913 0.69765,1.72237 0.43278,0.55625 1.02943,0.90761 1.6862,1.09658 -0.038,0.15322 -0.31455,1.20463 -1.1617,2.72902 -0.34826,0.62667 -1.30345,1.14093 -2.33267,1.24592 -1.02921,0.10504 -2.04427,-0.18609 -2.55281,-0.83973 -1.10949,-1.42611 -0.0713,-2.97916 -0.0713,-2.97916 a 0.52919123,0.52914199 0 0 0 0.007,-0.0121 c 1.28013,-0.1352 2.53755,-0.70925 3.1316,-1.77819 0.23624,-0.4251 0.43283,-0.82354 0.59582,-1.18442 z m 38.6173,0.38137 c 0.0967,0.44118 0.29237,0.89765 0.63768,1.34151 0.43266,0.55612 1.029,0.90691 1.68568,1.09555 -0.0383,0.15548 -0.31387,1.2078 -1.16014,2.73058 -0.34826,0.6267 -1.30298,1.13783 -2.33215,1.24281 -1.02917,0.10504 -2.04686,-0.1835 -2.55541,-0.83716 -1.0981,-1.41141 -0.0919,-2.94083 -0.0707,-2.97242 0.0761,-0.005 0.15186,-0.0104 0.22739,-0.018 1.28729,-0.13139 2.55454,-0.70663 3.15174,-1.78129 0.15584,-0.28026 0.29293,-0.54744 0.416,-0.80149 z m -30.98571,0.26561 c 0.11077,0.35726 0.29039,0.72051 0.56689,1.0759 0.43254,0.55595 1.02924,0.90636 1.68568,1.09503 -0.038,0.15444 -0.31285,1.20744 -1.15962,2.7311 -0.34826,0.6267 -1.30298,1.13783 -2.33215,1.24281 -1.02918,0.10504 -2.04738,-0.1835 -2.55593,-0.83716 -1.08149,-1.39008 -0.12481,-2.88863 -0.0754,-2.96415 0.14527,-0.003 0.29057,-0.0104 0.43409,-0.0253 1.28725,-0.13122 2.5545,-0.70608 3.15174,-1.78077 0.10262,-0.18474 0.19653,-0.3635 0.28474,-0.53744 z m 15.42335,0.0368 c 0.11164,0.34545 0.28847,0.69597 0.55551,1.0392 0.43266,0.55612 1.029,0.90691 1.68568,1.09555 -0.0383,0.15548 -0.31386,1.2078 -1.16014,2.73058 -0.34825,0.62671 -1.30297,1.13783 -2.33215,1.24282 -1.02917,0.10504 -2.04685,-0.18351 -2.55539,-0.83717 -1.08187,-1.39054 -0.12429,-2.88958 -0.0754,-2.96415 0.15584,-0.002 0.31116,-0.0104 0.46509,-0.0263 1.28729,-0.13139 2.55454,-0.70663 3.15175,-1.78129 0.0952,-0.17143 0.18227,-0.33706 0.2651,-0.49918 z m 30.99914,0.11111 c 0.11268,0.30929 0.27939,0.62167 0.51779,0.92809 0.43254,0.55595 1.02924,0.90636 1.68568,1.09503 -0.038,0.15444 -0.31281,1.20737 -1.15962,2.7311 -0.34825,0.62671 -1.30349,1.13783 -2.33267,1.24282 -1.02917,0.10504 -2.04685,-0.18351 -2.5554,-0.83717 -1.08262,-1.39151 -0.12308,-2.89204 -0.0754,-2.96467 0.18742,7.7e-4 0.37459,-0.007 0.55966,-0.0258 1.28729,-0.13139 2.55454,-0.70663 3.15174,-1.78129 0.0735,-0.13243 0.14215,-0.26116 0.20826,-0.38808 z m 12.91135,1.98282 0.58136,4.0354 c -0.87098,-0.005 -1.67724,-0.2982 -2.11306,-0.85835 -1.0827,-1.39163 -0.12429,-2.89228 -0.077,-2.96467 0.5443,0.0139 1.09297,-0.0589 1.60868,-0.21238 z m -10.34563,2.10064 c 0.0553,0.55586 0.25151,1.15136 0.69816,1.72548 0.49101,0.6311 1.19226,0.99846 1.95337,1.16323 -0.022,0.0808 -0.1132,0.34792 -0.26148,0.75034 h -6.1216 c 0.12534,-0.37691 0.28008,-0.6258 0.28008,-0.6258 a 0.5292501,0.52908713 0 0 0 0.0418,-0.0936 c 1.16642,-0.19132 2.26904,-0.754 2.81379,-1.73426 0.23655,-0.42566 0.43287,-0.82448 0.59581,-1.18546 z m -30.96192,5.2e-4 c 0.0553,0.5557 0.2521,1.151 0.69866,1.72496 0.49088,0.63093 1.19197,0.99787 1.95285,1.16271 -0.0218,0.0804 -0.11302,0.348 -0.26148,0.75086 h -6.12108 c 0.12534,-0.37691 0.28008,-0.6258 0.28008,-0.6258 a 0.5292501,0.52908713 0 0 0 0.0413,-0.0931 c 1.16664,-0.19122 2.26947,-0.75434 2.81431,-1.73478 0.23643,-0.42541 0.43242,-0.82411 0.59531,-1.18494 z m 15.64452,0 c 0.0553,0.5557 0.2521,1.151 0.69867,1.72496 0.49087,0.63093 1.19196,0.99787 1.95284,1.16271 -0.0218,0.0804 -0.11302,0.348 -0.26147,0.75086 h -6.12108 c 0.12533,-0.37691 0.28008,-0.6258 0.28008,-0.6258 a 0.5292501,0.52908713 0 0 0 0.0414,-0.0931 c 1.16664,-0.19122 2.26945,-0.75434 2.8143,-1.73478 0.23642,-0.42541 0.43242,-0.82411 0.59532,-1.18494 z m -31.056,5.2e-4 c 0.0555,0.55555 0.25179,1.15067 0.69817,1.72444 0.49097,0.63105 1.19231,0.99845 1.95336,1.16323 -0.022,0.0808 -0.11319,0.34792 -0.26148,0.75034 h -6.12107 c 0.12533,-0.37691 0.28008,-0.6258 0.28008,-0.6258 a 0.5292501,0.52908713 0 0 0 0.0414,-0.0936 c 1.16652,-0.19127 2.26898,-0.75391 2.81378,-1.73426 0.23633,-0.42526 0.43296,-0.82371 0.59582,-1.18442 z m -15.44453,5e-4 c 0.0555,0.55565 0.25216,1.1505 0.69867,1.72446 0.49063,0.63063 1.1915,0.99839 1.95234,1.16375 -0.0217,0.0804 -0.1125,0.34728 -0.26046,0.7493 h -6.12159 c 0.12446,-0.37705 0.27854,-0.62632 0.27854,-0.62632 a 0.52919123,0.52914199 0 0 0 0.0185,-0.0418 c 1.22539,-0.12359 2.27077,-0.76372 2.8391,-1.78646 0.23608,-0.42482 0.43217,-0.82244 0.59479,-1.18287 z m 38.61832,0.38191 c 0.0967,0.44128 0.29174,0.89803 0.63718,1.34203 0.53937,0.69326 1.33319,1.06813 2.18125,1.20561 -0.0293,0.1047 -0.11407,0.34287 -0.24857,0.70796 h -6.12055 c 0.12481,-0.37687 0.27905,-0.6258 0.27905,-0.6258 a 0.5292501,0.52908713 0 0 0 0.042,-0.0936 c 1.16642,-0.19132 2.26904,-0.754 2.81379,-1.73426 0.15584,-0.28047 0.29285,-0.5478 0.41598,-0.80201 z m -30.98777,0.26095 c 0.1106,0.35876 0.29126,0.72415 0.56895,1.08108 0.58004,0.74552 1.45389,1.12293 2.37351,1.23248 -0.0328,0.11544 -0.11389,0.33925 -0.23978,0.68109 h -6.12263 c 0.12498,-0.37706 0.27958,-0.62632 0.27958,-0.62632 a 0.52919123,0.52914199 0 0 0 0.0399,-0.09 c 1.16743,-0.19113 2.26941,-0.75699 2.81482,-1.7384 0.10314,-0.18573 0.19708,-0.36529 0.28577,-0.54002 z m 15.42541,0.0409 c 0.11164,0.3456 0.28785,0.69683 0.55501,1.04024 0.5867,0.7541 1.47432,1.13156 2.40553,1.2361 -0.0335,0.11752 -0.1151,0.33914 -0.23977,0.67747 h -6.12108 c 0.12498,-0.37691 0.27958,-0.6258 0.27958,-0.6258 a 0.5292501,0.52908713 0 0 0 0.0414,-0.0936 c 1.16653,-0.19127 2.26898,-0.75391 2.81376,-1.73426 0.0955,-0.17178 0.18266,-0.33779 0.26563,-0.50022 z m 30.99862,0.11266 c 0.11268,0.30902 0.27963,0.62145 0.51781,0.92759 0.60582,0.77867 1.53223,1.1569 2.49649,1.24644 -0.0347,0.12099 -0.11545,0.33791 -0.23668,0.66714 h -6.12057 c 0.12499,-0.37691 0.27958,-0.6258 0.27958,-0.6258 a 0.5292501,0.52908713 0 0 0 0.0413,-0.0931 c 1.16663,-0.19122 2.26945,-0.75435 2.8143,-1.73479 0.0735,-0.13208 0.1418,-0.26084 0.20772,-0.38757 z m 15.26368,0.10123 c 0.11111,0.27586 0.26579,0.55354 0.47801,0.82631 0.62501,0.80336 1.59177,1.17991 2.58794,1.25367 -0.0355,0.12306 -0.11562,0.33702 -0.23461,0.65991 h -6.12055 c 0.12498,-0.37691 0.27957,-0.6258 0.27957,-0.6258 a 0.5292501,0.52908713 0 0 0 0.0414,-0.0936 c 1.16642,-0.19133 2.26902,-0.754 2.81377,-1.73427 0.0539,-0.0969 0.1047,-0.19217 0.15445,-0.28629 z" />
  </g>
</svg>
