<?xml version="1.0" encoding="UTF-8" standalone="no"?>
<!-- Created with Inkscape (http://www.inkscape.org/) -->

<svg
   width="114.97215mm"
   height="98.90554mm"
   viewBox="0 0 114.97215 98.90554"
   version="1.1"
   id="svg1"
   xmlns="http://www.w3.org/2000/svg"
   xmlns:svg="http://www.w3.org/2000/svg">
  <defs
     id="defs1" />
  <g
     id="layer1"
     transform="translate(-195.10905,84.221031)">
    <g
       id="g4552">
      <g
         id="g4534">
        <path
           id="path4533-2"
           style="fill:#ccedea;fill-opacity:1;stroke:none;stroke-width:23.8125;stroke-linecap:round;stroke-linejoin:round;stroke-opacity:1"
           d="m 302.05339,-72.829661 -0.33434,0.02222 -1.53789,-0.0078 -0.4837,1.879472 -2.12338,-0.212907 -0.68058,1.481563 1.25781,1.603003 -0.56793,1.933733 1.04232,1.060917 1.89962,-0.859896 1.55701,0.891935 1.49397,-0.216524 c 0.58191,-0.940097 0.6147,-1.74289 -0.21291,-2.330607 l 0.90692,-0.594279 0.90434,-0.872298 -0.28267,-0.706934 -0.36845,-0.731222 -1.57717,-0.412377 z m -14.94482,0.851111 c -1.20029,0.4399 -2.32944,0.921134 -2.63498,1.879472 l -2.38125,-1.397331 -1.59784,1.369425 0.61547,2.5585 -1.89239,1.899109 0.83767,1.868103 c 0.97535,0.341728 1.95731,0.711623 2.69648,0.01809 l 1.17099,2.541964 2.05155,-0.101286 c 0.5791,-0.699597 1.26234,-1.292562 1.00407,-2.846855 l 1.35754,0.0615 1.53221,-0.533301 0.0775,-1.250569 -0.0393,-1.05575 c -0.0621,-0.731542 -1.06367,-0.905358 -1.63194,-1.336352 l 0.17415,-2.633948 -0.59066,-0.26355 z m 11.41584,10.821045 -0.33435,0.02222 -1.53789,-0.0072 -0.48317,1.878955 -2.1239,-0.212907 -0.68058,1.48208 1.2578,1.602486 -0.56792,1.934249 1.04231,1.060917 1.90014,-0.860412 1.5565,0.891935 1.49396,-0.216008 c 0.58191,-0.940097 0.61471,-1.742889 -0.2129,-2.330607 l 0.90743,-0.594796 0.90383,-0.871781 -0.28267,-0.70745 -0.36846,-0.730705 -1.57716,-0.412895 z" />
        <path
           style="opacity:1;fill:#214478;fill-opacity:1;stroke:none;stroke-width:23.8125;stroke-linecap:round;stroke-linejoin:round;stroke-opacity:1"
           d="m 272.66087,-82.754122 -2.51354,4.034896 8.53281,1.653645 7.47448,1.389063 c 3.0896,0.60404 5.11934,2.460635 7.27604,4.167187 l 3.04271,1.785938 0.85989,-0.330729 -0.13229,-1.455209 -1.38906,-0.859895 c 0,0 -3.96875,-2.778125 -4.82865,-3.571875 -0.85989,-0.79375 -3.96875,-2.248959 -3.96875,-2.248959 0,0 -4.29948,-0.79375 -5.42396,-1.124479 -1.12448,-0.330729 -7.40833,-2.645833 -7.40833,-2.645833 z"
           id="path4530" />
        <g
           id="g4519"
           transform="rotate(45.297266,-384.28196,747.86864)">
          <path
             style="color:#000000;fill:#35b9ab;stroke-linecap:round;stroke-linejoin:round;-inkscape-stroke:none;paint-order:markers fill stroke"
             d="m -487.00781,-313.20508 c -1.47957,0.4689 -2.98919,0.8223 -4.34766,0.875 -3.24593,0.12586 -5.80582,0.54497 -7.58398,1.4043 -0.39508,0.191 -0.74869,0.53962 -1.3125,0.98242 -4.17783,2.94239 -7.34666,4.43831 -12.19927,6.26876 -0.20571,0.0769 -0.30987,0.30622 -0.23242,0.51172 0.0777,0.20494 0.30677,0.30812 0.51172,0.23047 4.61941,-1.67232 8.41487,-3.47642 12.4102,-6.38595 0.5854,-0.45975 0.99645,-0.80966 1.16797,-0.89258 1.59655,-0.77156 4.07516,-1.20239 7.26758,-1.32617 1.47192,-0.0571 3.04109,-0.43119 4.55859,-0.91211 0.2086,-0.0665 0.32396,-0.28934 0.25781,-0.49805 -0.0665,-0.2086 -0.28933,-0.32396 -0.49804,-0.25781 z m 0.30273,1.63086 c -1.5052,0.55301 -3.08386,0.89958 -4.7207,1.13477 -4.23566,0.60859 -5.79503,0.99929 -9.02539,3.44531 -3.84541,2.38207 -6.86193,6.07845 -11.0816,7.8141 -0.20428,0.0816 -0.30327,0.3137 -0.2207,0.51757 0.0815,0.20322 0.31229,0.30198 0.51562,0.22071 4.15393,-1.95984 7.63751,-5.13603 11.26519,-7.91957 3.16892,-2.39949 4.44087,-2.68477 8.66016,-3.29101 1.67461,-0.24062 3.3081,-0.59991 4.88086,-1.17774 0.20516,-0.0753 0.31081,-0.30234 0.23633,-0.50781 -0.0753,-0.20621 -0.30373,-0.3121 -0.50977,-0.23633 z"
             id="path4516" />
          <path
             id="path4517"
             style="color:#000000;fill:#35b9ab;fill-opacity:1;stroke:none;stroke-width:0.79375;stroke-linecap:round;stroke-linejoin:round;stroke-dasharray:none;stroke-opacity:1;-inkscape-stroke:none;paint-order:markers fill stroke"
             d="m -493.54411,-306.82623 a 0.39567375,0.39816124 89.946196 0 0 -0.35141,0.22892 l -0.20567,0.4346 -0.40825,-0.25424 a 0.39567375,0.39816124 89.946196 0 0 -0.53123,0.10283 c -0.39687,0.53562 -0.62735,1.06898 -0.75241,1.56683 -0.12944,0.51527 -0.0785,1.05327 0.006,1.48157 -0.97665,-0.0496 -2.02841,0.29796 -2.87011,1.2857 a 0.39567375,0.39816124 89.946196 0 0 0.0186,0.53537 l 0.34003,0.33952 -0.38345,0.29507 a 0.39567375,0.39816124 89.946196 0 0 -0.0909,0.5302 c 0.3667,0.55533 0.79195,0.95612 1.21801,1.24489 0.46697,0.31648 1.02618,0.45065 1.47226,0.51418 -0.35539,0.90526 -0.35554,2.00514 0.32195,3.10782 a 0.39567375,0.39816124 89.946196 0 0 0.5178,0.15038 l 0.43356,-0.21446 0.15813,0.45217 a 0.39567375,0.39816124 89.946196 0 0 0.47697,0.25063 c 0.64603,-0.17271 1.16185,-0.44626 1.572,-0.75809 0.45471,-0.34571 0.76279,-0.83942 0.9648,-1.24334 0.75993,0.62506 1.82374,0.97033 3.10265,0.66146 a 0.39567375,0.39816124 89.946196 0 0 0.29972,-0.44287 l -0.0698,-0.47387 0.48163,-0.0134 a 0.39567375,0.39816124 89.946196 0 0 0.38654,-0.37517 c 0.0337,-0.66393 -0.0665,-1.23499 -0.23875,-1.71824 -0.186,-0.52173 -0.55129,-0.95446 -0.87126,-1.2671 0.25308,-0.16637 0.48918,-0.3675 0.6966,-0.60565 0.45344,-0.52061 0.77272,-1.21397 0.83974,-2.08773 a 0.39567375,0.39816124 89.946196 0 0 -0.33332,-0.42064 l -0.47801,-0.078 0.13953,-0.4594 a 0.39567375,0.39816124 89.946196 0 0 -0.24133,-0.48266 c -0.62524,-0.23485 -1.20398,-0.31085 -1.71979,-0.29559 -0.56523,0.0167 -1.09849,0.23461 -1.4981,0.44338 -0.25497,-0.99691 -0.95571,-1.94323 -2.25826,-2.41174 a 0.39567375,0.39816124 89.946196 0 0 -0.14469,-0.0232 z m 0.17053,0.98857 c 1.06073,0.53003 1.52583,1.36818 1.54771,2.2779 0.0145,0.60122 -0.1636,1.19351 -0.40152,1.63401 -0.26075,-0.0827 -0.54128,-0.0842 -0.80151,-0.008 -0.43101,-0.49111 -1.05042,-0.89915 -1.75958,-1.13998 -0.0472,-0.016 -0.0955,-0.0297 -0.14366,-0.0439 -0.0965,-0.40088 -0.19532,-1.02162 -0.0909,-1.43712 0.0756,-0.30109 0.26884,-0.62895 0.46302,-0.95601 l 0.41806,0.25786 a 0.39567375,0.39816124 89.946196 0 0 0.57258,-0.16743 z m 3.75274,1.79214 c 0.31211,-0.009 0.68211,0.0865 1.0511,0.18397 l -0.14056,0.47129 a 0.39567375,0.39816124 89.946196 0 0 0.31626,0.50178 l 0.45631,0.0734 c -0.22956,1.16075 -0.92155,1.835 -1.79726,2.10276 -0.52985,0.162 -1.09471,0.16713 -1.56218,0.0837 0.004,-0.28629 -0.0821,-0.57225 -0.25476,-0.81028 0.3456,-0.57992 0.53658,-1.32809 0.52297,-2.10634 0.35916,-0.20377 0.96288,-0.48705 1.40818,-0.50022 z m -6.25853,1.58027 c 0.2827,-2.3e-4 0.5619,0.0492 0.83251,0.14107 0.53221,0.18074 0.99842,0.51319 1.32808,0.85887 -0.17839,0.23081 -0.26908,0.50467 -0.27647,0.77928 -0.58488,0.25783 -1.14757,0.70568 -1.58801,1.28209 -0.0328,0.0428 -0.0634,0.0878 -0.0945,0.1323 -0.41069,-0.0457 -1.06177,-0.17048 -1.42782,-0.41858 -0.25797,-0.17485 -0.50111,-0.46685 -0.74208,-0.7617 l 0.39274,-0.30024 a 0.39567375,0.39816124 89.946196 0 0 0.0408,-0.58963 l -0.32504,-0.32711 c 0.59909,-0.55539 1.2379,-0.79585 1.85983,-0.79633 z m 3.23856,1.26297 c 0.12379,8.9e-4 0.24785,0.044 0.35192,0.13074 0.23788,0.19837 0.26698,0.53989 0.0661,0.77773 -0.20084,0.23784 -0.5445,0.26865 -0.78238,0.0703 -0.23789,-0.19837 -0.26699,-0.53989 -0.0661,-0.77773 0.11297,-0.13379 0.27132,-0.20217 0.43046,-0.20102 z m 3.33572,1.1777 c 0.30304,0.28051 0.73181,0.74564 0.87591,1.1498 0.10446,0.293 0.12794,0.67334 0.14728,1.05369 l -0.49403,0.0119 a 0.39567375,0.39816124 89.946196 0 0 -0.38188,0.45217 l 0.0687,0.45527 c -1.18286,0.1435 -2.03842,-0.29952 -2.56264,-1.04541 -0.31196,-0.44388 -0.48964,-0.96849 -0.55552,-1.43247 0.22509,-0.0762 0.43249,-0.21181 0.59531,-0.40463 0.0166,-0.0196 0.0328,-0.0396 0.0481,-0.0599 0.63081,0.13606 1.35903,0.10117 2.06344,-0.11421 0.0654,-0.02 0.13053,-0.0424 0.19534,-0.0662 z m -4.45399,0.1385 c 0.0672,0.0975 0.14823,0.18782 0.24339,0.26717 0.14351,0.11967 0.30567,0.20463 0.47542,0.25528 0.0718,0.62469 0.32647,1.28409 0.73691,1.8681 0.0245,0.0348 0.0512,0.0687 0.077,0.10284 -0.17198,0.37307 -0.50203,0.95977 -0.85937,1.23145 -0.24868,0.18907 -0.60321,0.32703 -0.96118,0.46251 l -0.16175,-0.46354 a 0.39567375,0.39816124 89.946196 0 0 -0.55242,-0.22273 l -0.41548,0.20309 c -0.49448,-1.07308 -0.32691,-2.01966 0.22738,-2.74505 0.32724,-0.42829 0.76998,-0.75414 1.19011,-0.95912 z" />
          <path
             id="path4518"
             style="color:#000000;fill:#35b9ab;stroke-linecap:round;stroke-linejoin:round;-inkscape-stroke:none;paint-order:markers fill stroke"
             d="m -474.89561,-307.21339 c -0.0249,-0.002 -0.0502,-0.002 -0.076,5.1e-4 -0.5176,0.0509 -0.9506,0.19617 -1.30638,0.38448 -0.35472,0.18774 -0.62766,0.47197 -0.82734,0.73019 -0.51132,-0.51455 -1.25523,-0.85962 -2.204,-0.79065 -0.20584,0.0145 -0.36623,0.18433 -0.36897,0.39067 l -0.004,0.25373 -0.25786,-0.0351 c -0.2052,-0.0279 -0.39735,0.10667 -0.44132,0.30903 -0.10984,0.50565 -0.1028,0.96062 -0.031,1.35547 0.0592,0.32604 0.19961,0.61951 0.35191,0.863 -0.70224,0.3005 -1.32352,0.90502 -1.57509,1.87482 a 0.39691519,0.39691519 0 0 0 0.25166,0.47284 l 0.24236,0.0858 -0.11317,0.22634 a 0.39691519,0.39691519 0 0 0 0.15245,0.52193 c 0.44666,0.26564 0.88027,0.40293 1.27899,0.46251 0.47784,0.0714 0.94632,-0.0385 1.28622,-0.1509 0.0665,0.7756 0.46311,1.57168 1.34307,2.11202 0.17451,0.10764 0.40229,0.0646 0.52555,-0.0992 l 0.15607,-0.20722 0.18965,0.18138 c 0.14967,0.14178 0.38296,0.14564 0.53692,0.008 0.38776,-0.34451 0.65087,-0.71539 0.8263,-1.07642 0.17625,-0.36275 0.22709,-0.75593 0.2341,-1.08366 0.72317,0.12876 1.53998,-0.0192 2.2779,-0.63303 0.15868,-0.13237 0.18923,-0.36434 0.0703,-0.5333 l -0.14677,-0.20723 0.22686,-0.11885 c 0.18506,-0.0968 0.26345,-0.32045 0.17932,-0.5116 -0.20843,-0.47428 -0.48139,-0.8405 -0.77153,-1.11931 -0.29446,-0.28296 -0.65914,-0.45531 -0.97203,-0.56482 0.35217,-0.64842 0.46465,-1.47586 0.0971,-2.37092 -0.0779,-0.1889 -0.28659,-0.28774 -0.48214,-0.22841 l -0.25012,0.0765 -0.045,-0.25424 c -0.0324,-0.17811 -0.17976,-0.30852 -0.35399,-0.32453 z m -0.3514,0.89297 0.047,0.26561 c 0.0426,0.23334 0.27897,0.3775 0.50591,0.30851 l 0.23254,-0.0703 c 0.17968,0.77801 -0.0262,1.3969 -0.4904,1.834 -0.3091,0.29103 -0.7069,0.47978 -1.05162,0.57154 -0.0603,-0.10452 -0.13818,-0.19992 -0.23203,-0.28164 0.0476,-0.52153 -0.0676,-1.10065 -0.32763,-1.63917 -0.0144,-0.0299 -0.0309,-0.0593 -0.0465,-0.0889 0.17809,-0.24801 0.45652,-0.57605 0.70279,-0.70641 0.17719,-0.0938 0.42747,-0.13757 0.65991,-0.19327 z m -3.64422,0.30075 c 0.80321,0.0712 1.3366,0.45845 1.61334,1.03146 0.16051,0.33238 0.22427,0.70261 0.22634,1.02578 -0.20672,0.0153 -0.40793,0.0863 -0.57826,0.20774 -0.3763,-0.1622 -0.81657,-0.24244 -1.27434,-0.23409 -0.10989,0.002 -0.22066,0.01 -0.33176,0.0217 -0.16857,-0.23898 -0.35236,-0.55126 -0.39584,-0.79065 -0.0353,-0.19451 -5.6e-4,-0.44187 0.016,-0.67593 l 0.26923,0.0372 c 0.23609,0.0326 0.44746,-0.14876 0.45114,-0.38706 z m 4.51549,2.58382 c 0.29557,0.0904 0.72579,0.26116 0.93586,0.46303 0.1434,0.1378 0.26045,0.35828 0.38447,0.55862 l -0.23616,0.12299 c -0.21263,0.11119 -0.27875,0.38416 -0.14056,0.58032 l 0.13436,0.18914 c -0.6914,0.40519 -1.35206,0.40092 -1.9141,0.0956 -0.35931,-0.1952 -0.65126,-0.49642 -0.84491,-0.7829 0.0143,-0.0201 0.0282,-0.0402 0.0413,-0.0615 0.0631,-0.10233 0.10699,-0.21164 0.13333,-0.32298 0.51569,-0.1128 1.03754,-0.39855 1.47536,-0.8108 0.0107,-0.0101 0.0205,-0.0213 0.031,-0.0315 z m -4.59145,0.24702 c 0.3166,-0.006 0.62913,0.0548 0.88986,0.14573 -0.0421,0.2463 7.5e-4,0.49999 0.11783,0.7183 -0.2421,0.33827 -0.41963,0.75419 -0.51677,1.20303 a 0.3968755,0.3968755 0 0 0 -0.0367,0.008 c -0.25729,0.10224 -0.84262,0.27304 -1.19321,0.22066 -0.19788,-0.0296 -0.42389,-0.14258 -0.64285,-0.23461 l 0.11937,-0.23616 a 0.39691519,0.39691519 0 0 0 -0.22066,-0.55294 l -0.22686,-0.0801 c 0.32399,-0.72637 0.8627,-1.10207 1.4981,-1.1777 0.0705,-0.008 0.14129,-0.0131 0.21188,-0.0145 z m 1.97714,0.01 c 0.0625,-0.002 0.12689,0.0139 0.18655,0.0501 0.15911,0.0967 0.20622,0.29129 0.11059,0.44649 -0.0956,0.15521 -0.29151,0.20215 -0.45062,0.10542 -0.1591,-0.0967 -0.20415,-0.29025 -0.10852,-0.44545 0.0598,-0.097 0.15789,-0.15246 0.262,-0.15658 z m -0.33073,1.38596 c 0.1851,0.0592 0.38052,0.0678 0.56637,0.031 0.27081,0.4086 0.67804,0.77174 1.16375,1.0356 0.0204,0.0111 0.0418,0.0209 0.0625,0.0315 0.006,0.30581 -0.0221,0.75219 -0.14624,1.00769 -0.087,0.179 -0.26207,0.36049 -0.416,0.54106 l -0.1974,-0.18759 c -0.17135,-0.16486 -0.44821,-0.14309 -0.5917,0.0465 l -0.14469,0.19172 c -0.60793,-0.52471 -0.81172,-1.14547 -0.69711,-1.7694 0.0637,-0.34685 0.22052,-0.67039 0.40049,-0.92811 z" />
          <path
             id="path4519"
             style="color:#000000;fill:#35b9ab;stroke-linecap:round;stroke-linejoin:round;-inkscape-stroke:none;paint-order:markers fill stroke"
             d="m -480.99792,-317.98437 c -0.025,-8.1e-4 -0.0502,3.9e-4 -0.0759,0.004 -0.51459,0.0755 -0.94019,0.24116 -1.28662,0.44617 -0.34539,0.2044 -0.6045,0.50129 -0.79168,0.76871 -0.53521,-0.48965 -1.29469,-0.79895 -2.2391,-0.68494 -0.20492,0.0243 -0.35705,0.20154 -0.34998,0.40778 l 0.008,0.25363 -0.25923,-0.0228 c -0.2063,-0.0181 -0.39183,0.12545 -0.42613,0.32967 -0.0857,0.5103 -0.057,0.96442 0.0335,1.35541 0.0746,0.32286 0.22884,0.60932 0.39255,0.84529 -0.68715,0.33356 -1.27898,0.96694 -1.48415,1.9476 a 0.39691519,0.39691519 0 0 0 0.27387,0.46034 l 0.24616,0.0742 -0.10228,0.23146 a 0.39691519,0.39691519 0 0 0 0.1771,0.51409 c 0.45879,0.2441 0.89844,0.36061 1.29954,0.40117 0.48069,0.0486 0.94342,-0.0835 1.27759,-0.2119 0.10331,0.77156 0.53733,1.54788 1.44199,2.04576 0.17943,0.0992 0.40491,0.0454 0.52024,-0.12408 l 0.14604,-0.21441 0.19806,0.17216 c 0.15624,0.1345 0.38945,0.12726 0.53669,-0.0175 0.37094,-0.36256 0.61611,-0.74553 0.77417,-1.1145 0.1588,-0.37072 0.19089,-0.76587 0.1823,-1.09356 0.72848,0.0942 1.53733,-0.0924 2.24522,-0.74064 0.15221,-0.13977 0.17169,-0.37293 0.0449,-0.53604 l -0.15646,-0.20002 0.22095,-0.1295 c 0.18025,-0.1055 0.24792,-0.33262 0.15479,-0.51955 -0.23075,-0.46383 -0.52082,-0.81666 -0.82389,-1.08136 -0.30758,-0.26863 -0.68004,-0.42344 -0.99779,-0.51795 0.32094,-0.66443 0.39394,-1.49629 -0.0158,-2.37286 -0.0868,-0.18498 -0.29995,-0.27378 -0.49246,-0.20522 l -0.24619,0.0883 -0.057,-0.25181 c -0.0408,-0.17637 -0.19423,-0.29962 -0.36903,-0.30733 z m -0.30854,0.90867 0.0596,0.26307 c 0.0537,0.23106 0.29661,0.36381 0.52001,0.28411 l 0.22894,-0.0813 c 0.21647,0.76858 0.0403,1.39656 -0.40263,1.85524 -0.29491,0.3054 -0.68329,0.51286 -1.02325,0.62091 -0.0652,-0.10154 -0.14753,-0.19312 -0.24516,-0.27029 0.0227,-0.5232 -0.11987,-1.09619 -0.40521,-1.62173 -0.0158,-0.0292 -0.0337,-0.0578 -0.0507,-0.0866 0.16609,-0.2562 0.42861,-0.59711 0.6684,-0.73903 0.17253,-0.10212 0.42044,-0.15775 0.64997,-0.22444 z m -3.62579,0.47372 c 0.80569,0.0329 1.35689,0.39436 1.66057,0.95356 0.17613,0.32437 0.25743,0.69115 0.27486,1.01386 -0.20576,0.0251 -0.40336,0.1056 -0.56772,0.235 -0.38359,-0.14412 -0.82718,-0.20333 -1.28403,-0.17322 -0.10967,0.007 -0.21994,0.0205 -0.33036,0.0374 -0.17974,-0.23069 -0.37817,-0.53387 -0.43299,-0.77093 -0.0445,-0.19261 -0.0216,-0.44134 -0.0162,-0.67592 l 0.27069,0.0243 c 0.23738,0.0213 0.43988,-0.16987 0.43223,-0.40807 z m 4.63326,2.36615 c 0.29953,0.0762 0.73739,0.22635 0.95682,0.418 0.14979,0.13083 0.27719,0.34549 0.4106,0.53971 l -0.23004,0.13408 c -0.20711,0.12117 -0.26017,0.39698 -0.11281,0.58635 l 0.14321,0.18253 c -0.67135,0.43761 -1.33147,0.46477 -1.90739,0.18652 -0.36819,-0.17789 -0.67413,-0.46488 -0.88119,-0.74183 0.0133,-0.0208 0.0263,-0.0415 0.0383,-0.0634 0.0582,-0.10521 0.0968,-0.21648 0.11782,-0.32895 0.50974,-0.1372 1.01741,-0.44744 1.43513,-0.88005 0.0102,-0.0106 0.0195,-0.0223 0.0295,-0.0329 z m -4.57451,0.4651 c 0.31596,-0.0211 0.63102,0.0248 0.89578,0.10324 -0.0303,0.24803 0.0245,0.49939 0.15186,0.71189 -0.22574,0.3494 -0.38329,0.77329 -0.45897,1.22624 a 0.3968755,0.3968755 0 0 0 -0.0363,0.01 c -0.25214,0.11436 -0.82868,0.3128 -1.18137,0.27715 -0.19906,-0.0202 -0.43019,-0.12226 -0.65328,-0.20377 l 0.10801,-0.24157 a 0.39691519,0.39691519 0 0 0 -0.24671,-0.54182 l -0.23041,-0.0692 c 0.28908,-0.74096 0.80931,-1.14185 1.4404,-1.24761 0.07,-0.0114 0.1405,-0.0198 0.21095,-0.0246 z m 1.97538,-0.084 c 0.0623,-0.005 0.12741,0.008 0.18872,0.0412 0.16353,0.089 0.21984,0.28115 0.1317,0.44073 -0.0881,0.15958 -0.28157,0.21578 -0.4451,0.12673 -0.16352,-0.089 -0.21772,-0.28022 -0.12958,-0.43979 0.0551,-0.0997 0.15046,-0.1598 0.25426,-0.16886 z m -0.26445,1.40012 c 0.18771,0.0503 0.38332,0.0496 0.56721,0.004 0.28993,0.39526 0.71397,0.73862 1.21168,0.97908 0.0209,0.0101 0.0428,0.0189 0.0639,0.0285 0.0205,0.30517 0.0137,0.75239 -0.0982,1.0135 -0.0784,0.18294 -0.24463,0.37255 -0.38979,0.56023 l -0.2061,-0.17799 c -0.179,-0.15652 -0.45451,-0.12161 -0.58882,0.0746 l -0.13541,0.19838 c -0.6322,-0.4952 -0.86528,-1.10557 -0.78047,-1.73424 0.0471,-0.34949 0.18839,-0.68012 0.3559,-0.94611 z" />
        </g>
      </g>
      <g
         id="g4535">
        <path
           id="path4531-3"
           style="fill:#ccedea;fill-opacity:1;stroke:none;stroke-width:23.8125;stroke-linecap:round;stroke-linejoin:round;stroke-opacity:1"
           d="m 276.91849,-19.907827 -1.23661,1.615405 -2.05931,-0.211873 -0.71468,1.412834 1.29811,1.627807 -0.6873,1.30483 0.78652,1.817977 2.19676,-0.782898 0.62219,0.84491 1.06453,0.660425 0.78807,-0.56224 0.61494,-0.537435 0.01,-1.630391 1.66605,-1.178223 -0.12867,-0.482658 0.10283,-0.828373 -2.40812,-0.666626 -0.31729,-2.110465 z m 26.33483,1.76165 -1.4056,0.826823 0.11576,2.033984 -1.70326,1.190625 0.38034,1.537891 2.05052,0.380338 0.33073,1.438672 1.78594,0.8598959 1.15755,-2.0339849 1.02526,0.231511 1.24023,-0.198438 0.23151,-0.942578 0.11576,-0.810286 -1.05833,-1.240235 0.49609,-1.984375 -0.41341,-0.281119 -0.46302,-0.694532 -2.2655,1.07487 z m -15.29622,12.2535153 -1.4056,0.8268229 0.11575,2.0339844 -1.70325,1.190625 0.38034,1.53789065 2.05052,0.38033854 0.33073,1.43867191 1.78593,0.8598958 1.15755,-2.03398438 1.02527,0.23151042 1.24023,-0.1984375 0.23151,-0.94257812 0.11576,-0.81028642 -1.05834,-1.2402344 0.4961,-1.984375 -0.41342,-0.2811198 -0.46302,-0.6945313 -2.26549,1.0748698 z m 8.72091,10.4727458 -1.387,0.8459432 0.15297,2.0288167 -1.6769,1.2133627 0.40772,1.5296223 2.05259,0.349333 0.35657,1.431437 1.79731,0.832507 1.11724,-2.04742 1.02733,0.216007 1.23351,-0.216007 0.21343,-0.9446452 0.10025,-0.8102865 -1.07849,-1.2231811 0.45837,-1.9879924 -0.41754,-0.2744018 -0.47491,-0.686263 -2.24017,1.1058756 z" />
        <path
           style="fill:#214478;fill-opacity:1;stroke:none;stroke-width:23.8125;stroke-linecap:round;stroke-linejoin:round;stroke-opacity:1"
           d="m 309.78029,-2.3742685 c 0.66076,2.83058998 0.10035,3.6566214 -0.41053,4.897136 l -10.48406,-6.7632712 -8.76015,-6.1528653 -6.27473,-1.568818 -4.07372,-1.069692 -0.66284,-1.555201 1.08798,0.217225 2.09836,0.491616 c 0,0 6.11477,0.665452 7.52654,0.774588 1.41176,0.109128 3.27312,1.664041 3.27312,1.664041 0,0 4.57754,2.7834209 5.78626,3.398823 1.20872,0.615402 8.25181,4.5030241 8.25181,4.5030241 z"
           id="path4530-7" />
        <g
           id="g4529"
           transform="matrix(-1,0,0,1,-206.73666,298.40257)">
          <path
             style="color:#000000;fill:#35b9ab;stroke-linecap:round;stroke-linejoin:round;-inkscape-stroke:none;paint-order:markers fill stroke"
             d="m -487.00781,-313.20508 c -1.47957,0.4689 -2.98919,0.8223 -4.34766,0.875 -3.24593,0.12586 -5.80582,0.54497 -7.58398,1.4043 -0.39508,0.191 -0.74869,0.53962 -1.3125,0.98242 -0.56381,0.4428 -1.30611,0.97775 -2.32617,1.50781 -0.96875,0.50338 -3.83355,2.07616 -6.77149,3.64258 -2.93794,1.56643 -5.97607,3.13376 -7.12305,3.56641 a 0.3968755,0.3968755 0 0 0 -0.23242,0.51172 0.3968755,0.3968755 0 0 0 0.51172,0.23047 c 1.2976,-0.48947 4.27532,-2.04003 7.21875,-3.60938 2.94343,-1.56935 5.82533,-3.15015 6.76172,-3.63672 1.07487,-0.55854 1.86577,-1.12813 2.45117,-1.58789 0.5854,-0.45975 0.99645,-0.80966 1.16797,-0.89258 1.59655,-0.77156 4.07516,-1.20239 7.26758,-1.32617 1.47192,-0.0571 3.04109,-0.43119 4.55859,-0.91211 a 0.3968755,0.3968755 0 0 0 0.25781,-0.49805 0.3968755,0.3968755 0 0 0 -0.49804,-0.25781 z m 0.30273,1.63086 c -1.5052,0.55301 -3.08386,0.89958 -4.7207,1.13477 -4.23566,0.60859 -5.79503,0.99929 -9.02539,3.44531 -1.27398,0.96463 -4.07084,3.19491 -7.10352,5.40625 -3.03267,2.21134 -6.31793,4.40177 -8.4375,5.24805 a 0.3968755,0.3968755 0 0 0 -0.2207,0.51757 0.3968755,0.3968755 0 0 0 0.51562,0.22071 c 2.29073,-0.91462 5.56115,-3.1216 8.61133,-5.34571 3.05018,-2.2241 5.86313,-4.46747 7.11328,-5.41406 3.16892,-2.39949 4.44087,-2.68477 8.66016,-3.29101 1.67461,-0.24062 3.3081,-0.59991 4.88086,-1.17774 a 0.3968755,0.3968755 0 0 0 0.23633,-0.50781 0.3968755,0.3968755 0 0 0 -0.50977,-0.23633 z"
             id="path4525" />
          <path
             id="path4526"
             style="color:#000000;fill:#35b9ab;stroke-linecap:round;stroke-linejoin:round;-inkscape-stroke:none;paint-order:markers fill stroke"
             d="m -503.0083,-294.27637 c -0.0249,-0.002 -0.0502,-0.002 -0.076,5.1e-4 -0.5176,0.0509 -0.9506,0.19617 -1.30638,0.38448 -0.35472,0.18774 -0.62766,0.47197 -0.82734,0.73019 -0.51132,-0.51455 -1.25523,-0.85962 -2.204,-0.79065 -0.20584,0.0145 -0.36623,0.18433 -0.36897,0.39067 l -0.004,0.25373 -0.25786,-0.0351 c -0.2052,-0.0279 -0.39735,0.10667 -0.44132,0.30903 -0.10984,0.50565 -0.1028,0.96062 -0.031,1.35547 0.0592,0.32604 0.19961,0.61951 0.35191,0.863 -0.70224,0.3005 -1.32352,0.90502 -1.57509,1.87482 a 0.39691519,0.39691519 0 0 0 0.25166,0.47284 l 0.24236,0.0858 -0.11317,0.22634 a 0.39691519,0.39691519 0 0 0 0.15245,0.52193 c 0.44666,0.26564 0.88027,0.40293 1.27899,0.46251 0.47784,0.0714 0.94632,-0.0385 1.28622,-0.1509 0.0665,0.7756 0.46311,1.57168 1.34307,2.11202 0.17451,0.10764 0.40229,0.0646 0.52555,-0.0992 l 0.15607,-0.20722 0.18965,0.18138 c 0.14967,0.14178 0.38296,0.14564 0.53692,0.008 0.38776,-0.34451 0.65087,-0.71539 0.8263,-1.07642 0.17625,-0.36275 0.22709,-0.75593 0.2341,-1.08366 0.72317,0.12876 1.53998,-0.0192 2.2779,-0.63303 0.15868,-0.13237 0.18923,-0.36434 0.0703,-0.5333 l -0.14677,-0.20723 0.22686,-0.11885 c 0.18506,-0.0968 0.26345,-0.32045 0.17932,-0.5116 -0.20843,-0.47428 -0.48139,-0.8405 -0.77153,-1.11931 -0.29446,-0.28296 -0.65914,-0.45531 -0.97203,-0.56482 0.35217,-0.64842 0.46465,-1.47586 0.0971,-2.37092 -0.0779,-0.1889 -0.28659,-0.28774 -0.48214,-0.22841 l -0.25012,0.0765 -0.045,-0.25424 c -0.0324,-0.17811 -0.17976,-0.30852 -0.35399,-0.32453 z m -0.3514,0.89297 0.047,0.26561 c 0.0426,0.23334 0.27897,0.3775 0.50591,0.30851 l 0.23254,-0.0703 c 0.17968,0.77801 -0.0262,1.3969 -0.4904,1.834 -0.3091,0.29103 -0.7069,0.47978 -1.05162,0.57154 -0.0603,-0.10452 -0.13818,-0.19992 -0.23203,-0.28164 0.0476,-0.52153 -0.0676,-1.10065 -0.32763,-1.63917 -0.0144,-0.0299 -0.0309,-0.0593 -0.0465,-0.0889 0.17809,-0.24801 0.45652,-0.57605 0.70279,-0.70641 0.17719,-0.0938 0.42747,-0.13757 0.65991,-0.19327 z m -3.64422,0.30075 c 0.80321,0.0712 1.3366,0.45845 1.61334,1.03146 0.16051,0.33238 0.22427,0.70261 0.22634,1.02578 -0.20672,0.0153 -0.40793,0.0863 -0.57826,0.20774 -0.3763,-0.1622 -0.81657,-0.24244 -1.27434,-0.23409 -0.10989,0.002 -0.22066,0.01 -0.33176,0.0217 -0.16857,-0.23898 -0.35236,-0.55126 -0.39584,-0.79065 -0.0353,-0.19451 -5.6e-4,-0.44187 0.016,-0.67593 l 0.26923,0.0372 c 0.23609,0.0326 0.44746,-0.14876 0.45114,-0.38706 z m 4.51549,2.58382 c 0.29557,0.0904 0.72579,0.26116 0.93586,0.46303 0.1434,0.1378 0.26045,0.35828 0.38447,0.55862 l -0.23616,0.12299 c -0.21263,0.11119 -0.27875,0.38416 -0.14056,0.58032 l 0.13436,0.18914 c -0.6914,0.40519 -1.35206,0.40092 -1.9141,0.0956 -0.35931,-0.1952 -0.65126,-0.49642 -0.84491,-0.7829 0.0143,-0.0201 0.0282,-0.0402 0.0413,-0.0615 0.0631,-0.10233 0.10699,-0.21164 0.13333,-0.32298 0.51569,-0.1128 1.03754,-0.39855 1.47536,-0.8108 0.0107,-0.0101 0.0205,-0.0213 0.031,-0.0315 z m -4.59145,0.24702 c 0.3166,-0.006 0.62913,0.0548 0.88986,0.14573 -0.0421,0.2463 7.5e-4,0.49999 0.11783,0.7183 -0.2421,0.33827 -0.41963,0.75419 -0.51677,1.20303 a 0.3968755,0.3968755 0 0 0 -0.0367,0.008 c -0.25729,0.10224 -0.84262,0.27304 -1.19321,0.22066 -0.19788,-0.0296 -0.42389,-0.14258 -0.64285,-0.23461 l 0.11937,-0.23616 a 0.39691519,0.39691519 0 0 0 -0.22066,-0.55294 l -0.22686,-0.0801 c 0.32399,-0.72637 0.8627,-1.10207 1.4981,-1.1777 0.0705,-0.008 0.14129,-0.0131 0.21188,-0.0145 z m 1.97714,0.01 c 0.0625,-0.002 0.12689,0.0139 0.18655,0.0501 0.15911,0.0967 0.20622,0.29129 0.11059,0.44649 -0.0956,0.15521 -0.29151,0.20215 -0.45062,0.10542 -0.1591,-0.0967 -0.20415,-0.29025 -0.10852,-0.44545 0.0598,-0.097 0.15789,-0.15246 0.262,-0.15658 z m -0.33073,1.38596 c 0.1851,0.0592 0.38052,0.0678 0.56637,0.031 0.27081,0.4086 0.67804,0.77174 1.16375,1.0356 0.0204,0.0111 0.0418,0.0209 0.0625,0.0315 0.006,0.30581 -0.0221,0.75219 -0.14624,1.00769 -0.087,0.179 -0.26207,0.36049 -0.416,0.54106 l -0.1974,-0.18759 c -0.17135,-0.16486 -0.44821,-0.14309 -0.5917,0.0465 l -0.14469,0.19172 c -0.60793,-0.52471 -0.81172,-1.14547 -0.69711,-1.7694 0.0637,-0.34685 0.22052,-0.67039 0.40049,-0.92811 z" />
          <path
             id="path4527"
             style="color:#000000;fill:#35b9ab;stroke-linecap:round;stroke-linejoin:round;-inkscape-stroke:none;paint-order:markers fill stroke"
             d="m -494.22319,-304.7458 c -0.025,-8.1e-4 -0.0502,3.9e-4 -0.0759,0.004 -0.51459,0.0755 -0.94019,0.24116 -1.28662,0.44617 -0.34539,0.2044 -0.6045,0.50129 -0.79168,0.76871 -0.53521,-0.48965 -1.29469,-0.79895 -2.2391,-0.68494 -0.20492,0.0243 -0.35705,0.20154 -0.34998,0.40778 l 0.008,0.25363 -0.25923,-0.0228 c -0.2063,-0.0181 -0.39183,0.12545 -0.42613,0.32967 -0.0857,0.5103 -0.057,0.96442 0.0335,1.35541 0.0746,0.32286 0.22884,0.60932 0.39255,0.84529 -0.68715,0.33356 -1.27898,0.96694 -1.48415,1.9476 a 0.39691519,0.39691519 0 0 0 0.27387,0.46034 l 0.24616,0.0742 -0.10228,0.23146 a 0.39691519,0.39691519 0 0 0 0.1771,0.51409 c 0.45879,0.2441 0.89844,0.36061 1.29954,0.40117 0.48069,0.0486 0.94342,-0.0835 1.27759,-0.2119 0.10331,0.77156 0.53733,1.54788 1.44199,2.04576 0.17943,0.0992 0.40491,0.0454 0.52024,-0.12408 l 0.14604,-0.21441 0.19806,0.17216 c 0.15624,0.1345 0.38945,0.12726 0.53669,-0.0175 0.37094,-0.36256 0.61611,-0.74553 0.77417,-1.1145 0.1588,-0.37072 0.19089,-0.76587 0.1823,-1.09356 0.72848,0.0942 1.53733,-0.0924 2.24522,-0.74064 0.15221,-0.13977 0.17169,-0.37293 0.0449,-0.53604 l -0.15646,-0.20002 0.22095,-0.1295 c 0.18025,-0.1055 0.24792,-0.33262 0.15479,-0.51955 -0.23075,-0.46383 -0.52082,-0.81666 -0.82389,-1.08136 -0.30758,-0.26863 -0.68004,-0.42344 -0.99779,-0.51795 0.32094,-0.66443 0.39394,-1.49629 -0.0158,-2.37286 -0.0868,-0.18498 -0.29995,-0.27378 -0.49246,-0.20522 l -0.24619,0.0883 -0.057,-0.25181 c -0.0408,-0.17637 -0.19423,-0.29962 -0.36903,-0.30733 z m -0.30854,0.90867 0.0596,0.26307 c 0.0537,0.23106 0.29661,0.36381 0.52001,0.28411 l 0.22894,-0.0813 c 0.21647,0.76858 0.0403,1.39656 -0.40263,1.85524 -0.29491,0.3054 -0.68329,0.51286 -1.02325,0.62091 -0.0652,-0.10154 -0.14753,-0.19312 -0.24516,-0.27029 0.0227,-0.5232 -0.11987,-1.09619 -0.40521,-1.62173 -0.0158,-0.0292 -0.0337,-0.0578 -0.0507,-0.0866 0.16609,-0.2562 0.42861,-0.59711 0.6684,-0.73903 0.17253,-0.10212 0.42044,-0.15775 0.64997,-0.22444 z m -3.62579,0.47372 c 0.80569,0.0329 1.35689,0.39436 1.66057,0.95356 0.17613,0.32437 0.25743,0.69115 0.27486,1.01386 -0.20576,0.0251 -0.40336,0.1056 -0.56772,0.235 -0.38359,-0.14412 -0.82718,-0.20333 -1.28403,-0.17322 -0.10967,0.007 -0.21994,0.0205 -0.33036,0.0374 -0.17974,-0.23069 -0.37817,-0.53387 -0.43299,-0.77093 -0.0445,-0.19261 -0.0216,-0.44134 -0.0162,-0.67592 l 0.27069,0.0243 c 0.23738,0.0213 0.43988,-0.16987 0.43223,-0.40807 z m 4.63326,2.36615 c 0.29953,0.0762 0.73739,0.22635 0.95682,0.418 0.14979,0.13083 0.27719,0.34549 0.4106,0.53971 l -0.23004,0.13408 c -0.20711,0.12117 -0.26017,0.39698 -0.11281,0.58635 l 0.14321,0.18253 c -0.67135,0.43761 -1.33147,0.46477 -1.90739,0.18652 -0.36819,-0.17789 -0.67413,-0.46488 -0.88119,-0.74183 0.0133,-0.0208 0.0263,-0.0415 0.0383,-0.0634 0.0582,-0.10521 0.0968,-0.21648 0.11782,-0.32895 0.50974,-0.1372 1.01741,-0.44744 1.43513,-0.88005 0.0102,-0.0106 0.0195,-0.0223 0.0295,-0.0329 z m -4.57451,0.4651 c 0.31596,-0.0211 0.63102,0.0248 0.89578,0.10324 -0.0303,0.24803 0.0245,0.49939 0.15186,0.71189 -0.22574,0.3494 -0.38329,0.77329 -0.45897,1.22624 a 0.3968755,0.3968755 0 0 0 -0.0363,0.01 c -0.25214,0.11436 -0.82868,0.3128 -1.18137,0.27715 -0.19906,-0.0202 -0.43019,-0.12226 -0.65328,-0.20377 l 0.10801,-0.24157 a 0.39691519,0.39691519 0 0 0 -0.24671,-0.54182 l -0.23041,-0.0692 c 0.28908,-0.74096 0.80931,-1.14185 1.4404,-1.24761 0.07,-0.0114 0.1405,-0.0198 0.21095,-0.0246 z m 1.97538,-0.084 c 0.0623,-0.005 0.12741,0.008 0.18872,0.0412 0.16353,0.089 0.21984,0.28115 0.1317,0.44073 -0.0881,0.15958 -0.28157,0.21578 -0.4451,0.12673 -0.16352,-0.089 -0.21772,-0.28022 -0.12958,-0.43979 0.0551,-0.0997 0.15046,-0.1598 0.25426,-0.16886 z m -0.26445,1.40012 c 0.18771,0.0503 0.38332,0.0496 0.56721,0.004 0.28993,0.39526 0.71397,0.73862 1.21168,0.97908 0.0209,0.0101 0.0428,0.0189 0.0639,0.0285 0.0205,0.30517 0.0137,0.75239 -0.0982,1.0135 -0.0784,0.18294 -0.24463,0.37255 -0.38979,0.56023 l -0.2061,-0.17799 c -0.179,-0.15652 -0.45451,-0.12161 -0.58882,0.0746 l -0.13541,0.19838 c -0.6322,-0.4952 -0.86528,-1.10557 -0.78047,-1.73424 0.0471,-0.34949 0.18839,-0.68012 0.3559,-0.94611 z" />
          <path
             id="path4528"
             style="color:#000000;fill:#35b9ab;stroke-linecap:round;stroke-linejoin:round;-inkscape-stroke:none;paint-order:markers fill stroke"
             d="m -509.54771,-317.02641 c -0.025,-8.1e-4 -0.0502,3.9e-4 -0.0759,0.004 -0.51459,0.0755 -0.94019,0.24116 -1.28662,0.44617 -0.34539,0.2044 -0.6045,0.50129 -0.79168,0.76871 -0.53521,-0.48965 -1.29469,-0.79895 -2.2391,-0.68494 -0.20492,0.0243 -0.35705,0.20154 -0.34998,0.40778 l 0.008,0.25363 -0.25923,-0.0228 c -0.2063,-0.0181 -0.39183,0.12545 -0.42613,0.32967 -0.0857,0.5103 -0.057,0.96442 0.0335,1.35541 0.0746,0.32286 0.22884,0.60932 0.39255,0.84529 -0.68715,0.33356 -1.27898,0.96694 -1.48415,1.9476 a 0.39691519,0.39691519 0 0 0 0.27387,0.46034 l 0.24616,0.0742 -0.10228,0.23146 a 0.39691519,0.39691519 0 0 0 0.1771,0.51409 c 0.45879,0.2441 0.89844,0.36061 1.29954,0.40117 0.48069,0.0486 0.94342,-0.0835 1.27759,-0.2119 0.10331,0.77156 0.53733,1.54788 1.44199,2.04576 0.17943,0.0992 0.40491,0.0454 0.52024,-0.12408 l 0.14604,-0.21441 0.19806,0.17216 c 0.15624,0.1345 0.38945,0.12726 0.53669,-0.0175 0.37094,-0.36256 0.61611,-0.74553 0.77417,-1.1145 0.1588,-0.37072 0.19089,-0.76587 0.1823,-1.09356 0.72848,0.0942 1.53733,-0.0924 2.24522,-0.74064 0.15221,-0.13977 0.17169,-0.37293 0.0449,-0.53604 l -0.15646,-0.20002 0.22095,-0.1295 c 0.18025,-0.1055 0.24792,-0.33262 0.15479,-0.51955 -0.23075,-0.46383 -0.52082,-0.81666 -0.82389,-1.08136 -0.30758,-0.26863 -0.68004,-0.42344 -0.99779,-0.51795 0.32094,-0.66443 0.39394,-1.49629 -0.0158,-2.37286 -0.0868,-0.18498 -0.29995,-0.27378 -0.49246,-0.20522 l -0.24619,0.0883 -0.057,-0.25181 c -0.0408,-0.17637 -0.19423,-0.29962 -0.36903,-0.30733 z m -0.30854,0.90867 0.0596,0.26307 c 0.0537,0.23106 0.29661,0.36381 0.52001,0.28411 l 0.22894,-0.0813 c 0.21647,0.76858 0.0403,1.39656 -0.40263,1.85524 -0.29491,0.3054 -0.68329,0.51286 -1.02325,0.62091 -0.0652,-0.10154 -0.14753,-0.19312 -0.24516,-0.27029 0.0227,-0.5232 -0.11987,-1.09619 -0.40521,-1.62173 -0.0158,-0.0292 -0.0337,-0.0578 -0.0507,-0.0866 0.16609,-0.2562 0.42861,-0.59711 0.6684,-0.73903 0.17253,-0.10212 0.42044,-0.15775 0.64997,-0.22444 z m -3.62579,0.47372 c 0.80569,0.0329 1.35689,0.39436 1.66057,0.95356 0.17613,0.32437 0.25743,0.69115 0.27486,1.01386 -0.20576,0.0251 -0.40336,0.1056 -0.56772,0.235 -0.38359,-0.14412 -0.82718,-0.20333 -1.28403,-0.17322 -0.10967,0.007 -0.21994,0.0205 -0.33036,0.0374 -0.17974,-0.23069 -0.37817,-0.53387 -0.43299,-0.77093 -0.0445,-0.19261 -0.0216,-0.44134 -0.0162,-0.67592 l 0.27069,0.0243 c 0.23738,0.0213 0.43988,-0.16987 0.43223,-0.40807 z m 4.63326,2.36615 c 0.29953,0.0762 0.73739,0.22635 0.95682,0.418 0.14979,0.13083 0.27719,0.34549 0.4106,0.53971 l -0.23004,0.13408 c -0.20711,0.12117 -0.26017,0.39698 -0.11281,0.58635 l 0.14321,0.18253 c -0.67135,0.43761 -1.33147,0.46477 -1.90739,0.18652 -0.36819,-0.17789 -0.67413,-0.46488 -0.88119,-0.74183 0.0133,-0.0208 0.0263,-0.0415 0.0383,-0.0634 0.0582,-0.10521 0.0968,-0.21648 0.11782,-0.32895 0.50974,-0.1372 1.01741,-0.44744 1.43513,-0.88005 0.0102,-0.0106 0.0195,-0.0223 0.0295,-0.0329 z m -4.57451,0.4651 c 0.31596,-0.0211 0.63102,0.0248 0.89578,0.10324 -0.0303,0.24803 0.0245,0.49939 0.15186,0.71189 -0.22574,0.3494 -0.38329,0.77329 -0.45897,1.22624 a 0.3968755,0.3968755 0 0 0 -0.0363,0.01 c -0.25214,0.11436 -0.82868,0.3128 -1.18137,0.27715 -0.19906,-0.0202 -0.43019,-0.12226 -0.65328,-0.20377 l 0.10801,-0.24157 a 0.39691519,0.39691519 0 0 0 -0.24671,-0.54182 l -0.23041,-0.0692 c 0.28908,-0.74096 0.80931,-1.14185 1.4404,-1.24761 0.07,-0.0114 0.1405,-0.0198 0.21095,-0.0246 z m 1.97538,-0.084 c 0.0623,-0.005 0.12741,0.008 0.18872,0.0412 0.16353,0.089 0.21984,0.28115 0.1317,0.44073 -0.0881,0.15958 -0.28157,0.21578 -0.4451,0.12673 -0.16352,-0.089 -0.21772,-0.28022 -0.12958,-0.43979 0.0551,-0.0997 0.15046,-0.1598 0.25426,-0.16886 z m -0.26445,1.40012 c 0.18771,0.0503 0.38332,0.0496 0.56721,0.004 0.28993,0.39526 0.71397,0.73862 1.21168,0.97908 0.0209,0.0101 0.0428,0.0189 0.0639,0.0285 0.0205,0.30517 0.0137,0.75239 -0.0982,1.0135 -0.0784,0.18294 -0.24463,0.37255 -0.38979,0.56023 l -0.2061,-0.17799 c -0.179,-0.15652 -0.45451,-0.12161 -0.58882,0.0746 l -0.13541,0.19838 c -0.6322,-0.4952 -0.86528,-1.10557 -0.78047,-1.73424 0.0471,-0.34949 0.18839,-0.68012 0.3559,-0.94611 z" />
          <path
             id="path4529"
             style="color:#000000;fill:#35b9ab;stroke-linecap:round;stroke-linejoin:round;-inkscape-stroke:none;paint-order:markers fill stroke"
             d="m -479.98789,-317.19814 c -0.0214,-0.0129 -0.044,-0.0242 -0.0682,-0.0334 -0.48593,-0.1854 -0.93825,-0.2486 -1.34068,-0.23883 -0.40122,0.01 -0.7723,0.14232 -1.06622,0.28431 -0.228,-0.68864 -0.73978,-1.32939 -1.61964,-1.69102 -0.19068,-0.0789 -0.41,0.002 -0.50452,0.18499 l -0.1168,0.22529 -0.2151,-0.14647 c -0.17119,-0.11653 -0.4032,-0.0818 -0.53284,0.0796 -0.32393,0.40351 -0.52063,0.81382 -0.63256,1.19922 -0.0925,0.3182 -0.0978,0.64348 -0.0701,0.92935 -0.76254,-0.0444 -1.58829,0.21937 -2.24615,0.97502 a 0.39691519,0.39691519 0 0 0 0.0142,0.53545 l 0.17861,0.18493 -0.20227,0.15206 a 0.39691519,0.39691519 0 0 0 -0.0965,0.53511 c 0.2812,0.43703 0.608,0.75338 0.93824,0.98461 0.39577,0.27711 0.86407,0.3878 1.21841,0.43887 -0.28656,0.72378 -0.28684,1.61319 0.25956,2.4894 0.10815,0.1742 0.3312,0.23731 0.51459,0.14572 l 0.23214,-0.11581 0.0888,0.24695 c 0.0707,0.19367 0.27774,0.30122 0.47694,0.24674 0.50074,-0.1353 0.90169,-0.34981 1.21978,-0.59463 0.31959,-0.24599 0.54053,-0.57517 0.69304,-0.86534 0.58973,0.43791 1.38674,0.66996 2.32102,0.44989 0.20108,-0.0477 0.33192,-0.24162 0.30088,-0.4459 l -0.0389,-0.25094 0.25605,-0.005 c 0.20881,-0.004 0.37876,-0.16923 0.38876,-0.37783 0.0251,-0.51745 -0.0558,-0.96699 -0.19103,-1.34597 -0.13726,-0.38462 -0.38672,-0.70158 -0.61787,-0.9392 0.6045,-0.42315 1.07437,-1.11346 1.14481,-2.07848 0.0146,-0.20381 -0.12808,-0.38539 -0.32956,-0.41955 l -0.25798,-0.0431 0.0732,-0.2476 c 0.0505,-0.17386 -0.0232,-0.35632 -0.17199,-0.44839 z m -0.71292,0.64235 -0.0765,0.25868 c -0.066,0.22783 0.0812,0.46231 0.3151,0.50183 l 0.23947,0.0408 c -0.18635,0.77644 -0.64675,1.23844 -1.25721,1.42248 -0.40648,0.12253 -0.84671,0.11395 -1.19615,0.0423 -0.007,-0.12045 -0.0345,-0.24058 -0.082,-0.35559 0.2753,-0.44549 0.43061,-1.01516 0.4382,-1.61313 4.5e-4,-0.0332 -10e-4,-0.0669 -0.002,-0.10031 0.27004,-0.14248 0.66559,-0.31182 0.94415,-0.3186 0.20043,-0.005 0.44394,0.0676 0.67681,0.12149 z m -3.39553,-1.35691 c 0.68705,0.42211 0.99161,1.00668 0.98359,1.64296 -0.005,0.36908 -0.1128,0.72886 -0.25515,1.019 -0.19183,-0.0786 -0.40358,-0.10479 -0.6102,-0.0721 -0.26438,-0.31307 -0.62259,-0.58133 -1.03599,-0.77811 -0.0992,-0.0473 -0.20194,-0.0895 -0.30659,-0.12861 -0.0442,-0.28909 -0.0694,-0.65057 -0.001,-0.88421 0.0552,-0.18982 0.19666,-0.39569 0.31592,-0.59777 l 0.22434,0.15342 c 0.19674,0.13452 0.46683,0.0665 0.57645,-0.14509 z m 2.88814,4.32717 c 0.22418,0.21279 0.533,0.55757 0.63093,0.83197 0.0668,0.1873 0.0732,0.43685 0.0948,0.67147 l -0.26622,0.005 c -0.23991,0.005 -0.42088,0.21941 -0.38474,0.45662 l 0.0359,0.22922 c -0.79955,0.0541 -1.38889,-0.2445 -1.75564,-0.76852 -0.23446,-0.33502 -0.36133,-0.73486 -0.40681,-1.07765 0.0218,-0.0116 0.0432,-0.0234 0.0644,-0.0366 0.10213,-0.0634 0.19018,-0.14166 0.26343,-0.22955 0.51184,0.12916 1.10637,0.10628 1.68213,-0.0673 0.0141,-0.004 0.0279,-0.01 0.0418,-0.0143 z m -4.21925,-1.82766 c 0.28601,0.1359 0.53858,0.32976 0.73134,0.52748 -0.14758,0.20163 -0.22243,0.44779 -0.21506,0.6954 -0.3676,0.1947 -0.71206,0.48771 -0.99927,0.84605 a 0.3968755,0.3968755 0 0 0 -0.0364,-0.009 c -0.27588,-0.0233 -0.87592,-0.13163 -1.1663,-0.33494 -0.16389,-0.11479 -0.31574,-0.31674 -0.47063,-0.4968 l 0.21221,-0.15809 a 0.39691519,0.39691519 0 0 0 0.0492,-0.5933 l -0.16729,-0.17291 c 0.61406,-0.50548 1.26381,-0.60133 1.86619,-0.3855 0.0667,0.0243 0.13229,0.0513 0.19609,0.0816 z m 1.76494,0.89116 c 0.0568,0.0261 0.10736,0.0691 0.1446,0.12807 0.0992,0.15754 0.0546,0.3527 -0.10026,0.44893 -0.15481,0.0962 -0.35108,0.0508 -0.45031,-0.10673 -0.0992,-0.15753 -0.0532,-0.35084 0.10164,-0.44707 0.0968,-0.0601 0.20933,-0.066 0.30434,-0.0232 z m -0.9144,1.09276 c 0.13924,0.13558 0.31029,0.23047 0.49303,0.28046 0.06,0.48651 0.26245,0.9932 0.57939,1.44606 0.0133,0.019 0.0281,0.0374 0.0419,0.0561 -0.13108,0.27636 -0.3554,0.6633 -0.58051,0.83656 -0.15773,0.12138 -0.39538,0.20568 -0.61371,0.29859 l -0.093,-0.25596 c -0.0798,-0.22399 -0.33727,-0.32805 -0.55028,-0.2224 l -0.21503,0.10701 c -0.30993,-0.74084 -0.21532,-1.38731 0.16565,-1.89454 0.21177,-0.28199 0.49648,-0.50156 0.77254,-0.6519 z" />
        </g>
      </g>
      <g
         id="g4533">
        <path
           style="fill:#214478;fill-opacity:1;stroke:none;stroke-width:23.8125;stroke-linecap:round;stroke-linejoin:round;stroke-opacity:1"
           d="m 224.72416,-48.486256 c 2.89249,0.286875 3.63859,-0.376241 4.8021,-1.044174 -1.67579,-2.90119 -4.89604,-6.317198 -8.02303,-9.702118 l -8.03541,-7.604554 -2.32508,-6.531783 -1.59059,-3.899926 -1.62823,-0.45487 0.35693,1.050472 0.76044,2.016564 c 0,0 1.45535,5.97622 1.74723,7.361792 0.29187,1.385563 2.02897,3.543297 2.02897,3.543297 0,0 3.40208,3.662008 4.16952,4.780389 0.76743,1.11838 6.23991,8.016767 6.23991,8.016767 z"
           id="path4532-4" />
        <path
           id="path4531-3-7-0-1"
           style="fill:#ccedea;fill-opacity:1;stroke:none;stroke-width:23.8125;stroke-linecap:round;stroke-linejoin:round;stroke-opacity:1"
           d="m 206.15279,-83.972134 -1.39423,0.749826 0.13332,2.077909 -1.31051,0.677478 -0.39481,1.940967 2.24999,0.614432 0.0269,1.049032 0.49506,1.150317 0.9679,-0.01033 0.81184,-0.0894 0.94103,-1.331185 2.04018,-0.01344 0.17105,-0.469222 0.55811,-0.620634 -1.5937,-1.92443 0.94723,-1.912545 -1.14309,-1.154451 -1.9389,0.617533 z m 17.59789,9.023222 -2.04432,0.498678 -0.60772,2.560567 -2.54713,0.837675 -0.0971,2.044837 c 0.71537,0.745878 1.42385,1.52038 2.39675,1.2361 l -0.10542,2.796728 1.87534,0.837158 c 0.83288,-0.362078 1.71077,-0.582074 2.18333,-2.085144 l 1.18287,0.66921 1.60766,0.217041 0.63459,-1.080037 0.44235,-0.959632 c 0.27543,-0.680552 -0.5392,-1.288203 -0.85112,-1.929597 l 1.34669,-2.270663 -0.40772,-0.502295 -0.31678,-1.031978 c -1.26948,-0.150475 -2.4939,-0.231835 -3.19981,0.484725 z m -19.61948,5.688542 -1.64486,1.197343 -1.91409,-0.787549 -1.08624,1.151868 0.78238,1.929081 -1.02939,1.056266 -0.3297,0.54622 0.56741,1.420585 2.32906,-0.127124 0.35656,0.98702 0.83303,0.934827 0.91519,-0.315226 0.74207,-0.341065 0.47284,-1.560111 1.93166,-0.656291 0.014,-0.499711 0.33331,-0.765328 -2.11925,-1.322917 0.29507,-2.113566 z m 9.50898,12.421464 -1.76475,1.012341 -1.81746,-0.99012 -1.20457,1.026811 0.56895,2.002978 -1.13791,0.938444 0.0233,1.980758 2.32906,0.12609 0.24753,1.019576 0.9586,0.854728 0.71262,-0.04909 0.77463,-0.258382 0.63872,-1.500167 2.02468,-0.939478 0.0677,-0.49506 0.41444,-0.724503 -1.66605,-1.478463 0.19172,-1.639177 z" />
        <g
           id="g4524"
           transform="translate(708.58962,154.25594)">
          <path
             style="color:#000000;fill:#35b9ab;stroke-linecap:round;stroke-linejoin:round;-inkscape-stroke:none;paint-order:markers fill stroke"
             d="m -500.60995,-230.11167 c 0.68528,1.39262 1.26086,2.83226 1.5165,4.1675 0.61074,3.19044 1.40865,5.65864 2.52468,7.28799 0.24804,0.362 0.6457,0.65939 1.16798,1.1505 0.52227,0.4911 1.16239,1.14488 1.8393,2.07401 0.64283,0.8824 2.62707,3.47923 4.61597,6.14933 1.98892,2.67009 3.99373,5.43911 4.59334,6.50833 a 0.3968755,0.3968755 0 0 0 0.54077,0.15313 0.3968755,0.3968755 0 0 0 0.1512,-0.54048 c -0.67836,-1.20962 -2.65754,-3.92142 -4.65016,-6.59651 -1.99263,-2.67509 -3.98735,-5.28762 -4.60872,-6.14054 -0.71327,-0.97906 -1.39493,-1.6757 -1.93721,-2.18561 -0.54226,-0.50991 -0.94981,-0.8639 -1.05749,-1.02106 -1.00204,-1.46293 -1.79936,-3.84902 -2.40003,-6.98686 -0.27698,-1.44676 -0.88194,-2.94217 -1.58479,-4.37049 a 0.3968755,0.3968755 0 0 0 -0.53105,-0.18028 0.3968755,0.3968755 0 0 0 -0.18029,0.53104 z m 1.5671,-0.54365 c 0.77228,1.40536 1.35145,2.91428 1.82922,4.49741 1.23631,4.09667 1.85623,5.57991 4.75862,8.40734 1.14461,1.11508 3.76874,3.54623 6.40948,6.21338 2.64074,2.66713 5.29865,5.58714 6.45293,7.556 a 0.3968755,0.3968755 0 0 0 0.54479,0.14066 0.3968755,0.3968755 0 0 0 0.14097,-0.54286 c -1.24749,-2.12785 -3.91954,-5.0307 -6.57553,-7.71324 -2.65598,-2.68254 -5.29546,-5.12763 -6.41867,-6.22185 -2.84717,-2.77366 -3.3198,-3.98852 -4.55133,-8.06936 -0.4888,-1.61966 -1.08876,-3.18088 -1.89571,-4.64932 a 0.3968755,0.3968755 0 0 0 -0.53748,-0.15758 0.3968755,0.3968755 0 0 0 -0.15729,0.53942 z"
             id="path4520" />
          <path
             id="path4521"
             style="color:#000000;fill:#35b9ab;fill-opacity:1;stroke:none;stroke-width:0.79375;stroke-linecap:round;stroke-linejoin:round;stroke-dasharray:none;stroke-opacity:1;-inkscape-stroke:none;paint-order:markers fill stroke"
             d="m -485.48166,-229.9528 a 0.39567375,0.39816124 89.946196 0 0 -0.35141,0.22892 l -0.20567,0.4346 -0.40825,-0.25424 a 0.39567375,0.39816124 89.946196 0 0 -0.53123,0.10283 c -0.39687,0.53562 -0.62735,1.06898 -0.75241,1.56683 -0.12944,0.51527 -0.0785,1.05327 0.006,1.48157 -0.97665,-0.0496 -2.02841,0.29796 -2.87011,1.2857 a 0.39567375,0.39816124 89.946196 0 0 0.0186,0.53537 l 0.34003,0.33952 -0.38345,0.29507 a 0.39567375,0.39816124 89.946196 0 0 -0.0909,0.5302 c 0.3667,0.55533 0.79195,0.95612 1.21801,1.24489 0.46697,0.31648 1.02618,0.45065 1.47226,0.51418 -0.35539,0.90526 -0.35554,2.00514 0.32195,3.10782 a 0.39567375,0.39816124 89.946196 0 0 0.5178,0.15038 l 0.43356,-0.21446 0.15813,0.45217 a 0.39567375,0.39816124 89.946196 0 0 0.47697,0.25063 c 0.64603,-0.17271 1.16185,-0.44626 1.572,-0.75809 0.45471,-0.34571 0.76279,-0.83942 0.9648,-1.24334 0.75993,0.62506 1.82374,0.97033 3.10265,0.66146 a 0.39567375,0.39816124 89.946196 0 0 0.29972,-0.44287 l -0.0698,-0.47387 0.48163,-0.0134 a 0.39567375,0.39816124 89.946196 0 0 0.38654,-0.37517 c 0.0337,-0.66393 -0.0665,-1.23499 -0.23875,-1.71824 -0.186,-0.52173 -0.55129,-0.95446 -0.87126,-1.2671 0.25308,-0.16637 0.48918,-0.3675 0.6966,-0.60565 0.45344,-0.52061 0.77272,-1.21397 0.83974,-2.08773 a 0.39567375,0.39816124 89.946196 0 0 -0.33332,-0.42064 l -0.47801,-0.078 0.13953,-0.4594 a 0.39567375,0.39816124 89.946196 0 0 -0.24133,-0.48266 c -0.62524,-0.23485 -1.20398,-0.31085 -1.71979,-0.29559 -0.56523,0.0167 -1.09849,0.23461 -1.4981,0.44338 -0.25497,-0.99691 -0.95571,-1.94323 -2.25826,-2.41174 a 0.39567375,0.39816124 89.946196 0 0 -0.14469,-0.0232 z m 0.17053,0.98857 c 1.06073,0.53003 1.52583,1.36818 1.54771,2.2779 0.0145,0.60122 -0.1636,1.19351 -0.40152,1.63401 -0.26075,-0.0827 -0.54128,-0.0842 -0.80151,-0.008 -0.43101,-0.49111 -1.05042,-0.89915 -1.75958,-1.13998 -0.0472,-0.016 -0.0955,-0.0297 -0.14366,-0.0439 -0.0965,-0.40088 -0.19532,-1.02162 -0.0909,-1.43712 0.0756,-0.30109 0.26884,-0.62895 0.46302,-0.95601 l 0.41806,0.25786 a 0.39567375,0.39816124 89.946196 0 0 0.57258,-0.16743 z m 3.75274,1.79214 c 0.31211,-0.009 0.68211,0.0865 1.0511,0.18397 l -0.14056,0.47129 a 0.39567375,0.39816124 89.946196 0 0 0.31626,0.50178 l 0.45631,0.0734 c -0.22956,1.16075 -0.92155,1.835 -1.79726,2.10276 -0.52985,0.162 -1.09471,0.16713 -1.56218,0.0837 0.004,-0.28629 -0.0821,-0.57225 -0.25476,-0.81028 0.3456,-0.57992 0.53658,-1.32809 0.52297,-2.10634 0.35916,-0.20377 0.96288,-0.48705 1.40818,-0.50022 z m -6.25853,1.58027 c 0.2827,-2.3e-4 0.5619,0.0492 0.83251,0.14107 0.53221,0.18074 0.99842,0.51319 1.32808,0.85887 -0.17839,0.23081 -0.26908,0.50467 -0.27647,0.77928 -0.58488,0.25783 -1.14757,0.70568 -1.58801,1.28209 -0.0328,0.0428 -0.0634,0.0878 -0.0945,0.1323 -0.41069,-0.0457 -1.06177,-0.17048 -1.42782,-0.41858 -0.25797,-0.17485 -0.50111,-0.46685 -0.74208,-0.7617 l 0.39274,-0.30024 a 0.39567375,0.39816124 89.946196 0 0 0.0408,-0.58963 l -0.32504,-0.32711 c 0.59909,-0.55539 1.2379,-0.79585 1.85983,-0.79633 z m 3.23856,1.26297 c 0.12379,8.9e-4 0.24785,0.044 0.35192,0.13074 0.23788,0.19837 0.26698,0.53989 0.0661,0.77773 -0.20084,0.23784 -0.5445,0.26865 -0.78238,0.0703 -0.23789,-0.19837 -0.26699,-0.53989 -0.0661,-0.77773 0.11297,-0.13379 0.27132,-0.20217 0.43046,-0.20102 z m 3.33572,1.1777 c 0.30304,0.28051 0.73181,0.74564 0.87591,1.1498 0.10446,0.293 0.12794,0.67334 0.14728,1.05369 l -0.49403,0.0119 a 0.39567375,0.39816124 89.946196 0 0 -0.38188,0.45217 l 0.0687,0.45527 c -1.18286,0.1435 -2.03842,-0.29952 -2.56264,-1.04541 -0.31196,-0.44388 -0.48964,-0.96849 -0.55552,-1.43247 0.22509,-0.0762 0.43249,-0.21181 0.59531,-0.40463 0.0166,-0.0196 0.0328,-0.0396 0.0481,-0.0599 0.63081,0.13606 1.35903,0.10117 2.06344,-0.11421 0.0654,-0.02 0.13053,-0.0424 0.19534,-0.0662 z m -4.45399,0.1385 c 0.0672,0.0975 0.14823,0.18782 0.24339,0.26717 0.14351,0.11967 0.30567,0.20463 0.47542,0.25528 0.0718,0.62469 0.32647,1.28409 0.73691,1.8681 0.0245,0.0348 0.0512,0.0687 0.077,0.10284 -0.17198,0.37307 -0.50203,0.95977 -0.85937,1.23145 -0.24868,0.18907 -0.60321,0.32703 -0.96118,0.46251 l -0.16175,-0.46354 a 0.39567375,0.39816124 89.946196 0 0 -0.55242,-0.22273 l -0.41548,0.20309 c -0.49448,-1.07308 -0.32691,-2.01966 0.22738,-2.74505 0.32724,-0.42829 0.76998,-0.75414 1.19011,-0.95912 z" />
          <path
             id="path4522"
             style="color:#000000;fill:#35b9ab;stroke-linecap:round;stroke-linejoin:round;-inkscape-stroke:none;paint-order:markers fill stroke"
             d="m -494.40256,-211.83114 c -0.0249,-0.002 -0.0502,-0.002 -0.076,5.1e-4 -0.5176,0.0509 -0.9506,0.19617 -1.30638,0.38448 -0.35472,0.18774 -0.62766,0.47197 -0.82734,0.73019 -0.51132,-0.51455 -1.25523,-0.85962 -2.204,-0.79065 -0.20584,0.0145 -0.36623,0.18433 -0.36897,0.39067 l -0.004,0.25373 -0.25786,-0.0351 c -0.2052,-0.0279 -0.39735,0.10667 -0.44132,0.30903 -0.10984,0.50565 -0.1028,0.96062 -0.031,1.35547 0.0592,0.32604 0.19961,0.61951 0.35191,0.863 -0.70224,0.3005 -1.32352,0.90502 -1.57509,1.87482 a 0.39691519,0.39691519 0 0 0 0.25166,0.47284 l 0.24236,0.0858 -0.11317,0.22634 a 0.39691519,0.39691519 0 0 0 0.15245,0.52193 c 0.44666,0.26564 0.88027,0.40293 1.27899,0.46251 0.47784,0.0714 0.94632,-0.0385 1.28622,-0.1509 0.0665,0.7756 0.46311,1.57168 1.34307,2.11202 0.17451,0.10764 0.40229,0.0646 0.52555,-0.0992 l 0.15607,-0.20722 0.18965,0.18138 c 0.14967,0.14178 0.38296,0.14564 0.53692,0.008 0.38776,-0.34451 0.65087,-0.71539 0.8263,-1.07642 0.17625,-0.36275 0.22709,-0.75593 0.2341,-1.08366 0.72317,0.12876 1.53998,-0.0192 2.2779,-0.63303 0.15868,-0.13237 0.18923,-0.36434 0.0703,-0.5333 l -0.14677,-0.20723 0.22686,-0.11885 c 0.18506,-0.0968 0.26345,-0.32045 0.17932,-0.5116 -0.20843,-0.47428 -0.48139,-0.8405 -0.77153,-1.11931 -0.29446,-0.28296 -0.65914,-0.45531 -0.97203,-0.56482 0.35217,-0.64842 0.46465,-1.47586 0.0971,-2.37092 -0.0779,-0.1889 -0.28659,-0.28774 -0.48214,-0.22841 l -0.25012,0.0765 -0.045,-0.25424 c -0.0324,-0.17811 -0.17976,-0.30852 -0.35399,-0.32453 z m -0.3514,0.89297 0.047,0.26561 c 0.0426,0.23334 0.27897,0.3775 0.50591,0.30851 l 0.23254,-0.0703 c 0.17968,0.77801 -0.0262,1.3969 -0.4904,1.834 -0.3091,0.29103 -0.7069,0.47978 -1.05162,0.57154 -0.0603,-0.10452 -0.13818,-0.19992 -0.23203,-0.28164 0.0476,-0.52153 -0.0676,-1.10065 -0.32763,-1.63917 -0.0144,-0.0299 -0.0309,-0.0593 -0.0465,-0.0889 0.17809,-0.24801 0.45652,-0.57605 0.70279,-0.70641 0.17719,-0.0938 0.42747,-0.13757 0.65991,-0.19327 z m -3.64422,0.30075 c 0.80321,0.0712 1.3366,0.45845 1.61334,1.03146 0.16051,0.33238 0.22427,0.70261 0.22634,1.02578 -0.20672,0.0153 -0.40793,0.0863 -0.57826,0.20774 -0.3763,-0.1622 -0.81657,-0.24244 -1.27434,-0.23409 -0.10989,0.002 -0.22066,0.01 -0.33176,0.0217 -0.16857,-0.23898 -0.35236,-0.55126 -0.39584,-0.79065 -0.0353,-0.19451 -5.6e-4,-0.44187 0.016,-0.67593 l 0.26923,0.0372 c 0.23609,0.0326 0.44746,-0.14876 0.45114,-0.38706 z m 4.51549,2.58382 c 0.29557,0.0904 0.72579,0.26116 0.93586,0.46303 0.1434,0.1378 0.26045,0.35828 0.38447,0.55862 l -0.23616,0.12299 c -0.21263,0.11119 -0.27875,0.38416 -0.14056,0.58032 l 0.13436,0.18914 c -0.6914,0.40519 -1.35206,0.40092 -1.9141,0.0956 -0.35931,-0.1952 -0.65126,-0.49642 -0.84491,-0.7829 0.0143,-0.0201 0.0282,-0.0402 0.0413,-0.0615 0.0631,-0.10233 0.10699,-0.21164 0.13333,-0.32298 0.51569,-0.1128 1.03754,-0.39855 1.47536,-0.8108 0.0107,-0.0101 0.0205,-0.0213 0.031,-0.0315 z m -4.59145,0.24702 c 0.3166,-0.006 0.62913,0.0548 0.88986,0.14573 -0.0421,0.2463 7.5e-4,0.49999 0.11783,0.7183 -0.2421,0.33827 -0.41963,0.75419 -0.51677,1.20303 a 0.3968755,0.3968755 0 0 0 -0.0367,0.008 c -0.25729,0.10224 -0.84262,0.27304 -1.19321,0.22066 -0.19788,-0.0296 -0.42389,-0.14258 -0.64285,-0.23461 l 0.11937,-0.23616 a 0.39691519,0.39691519 0 0 0 -0.22066,-0.55294 l -0.22686,-0.0801 c 0.32399,-0.72637 0.8627,-1.10207 1.4981,-1.1777 0.0705,-0.008 0.14129,-0.0131 0.21188,-0.0145 z m 1.97714,0.01 c 0.0625,-0.002 0.12689,0.0139 0.18655,0.0501 0.15911,0.0967 0.20622,0.29129 0.11059,0.44649 -0.0956,0.15521 -0.29151,0.20215 -0.45062,0.10542 -0.1591,-0.0967 -0.20415,-0.29025 -0.10852,-0.44545 0.0598,-0.097 0.15789,-0.15246 0.262,-0.15658 z m -0.33073,1.38596 c 0.1851,0.0592 0.38052,0.0678 0.56637,0.031 0.27081,0.4086 0.67804,0.77174 1.16375,1.0356 0.0204,0.0111 0.0418,0.0209 0.0625,0.0315 0.006,0.30581 -0.0221,0.75219 -0.14624,1.00769 -0.087,0.179 -0.26207,0.36049 -0.416,0.54106 l -0.1974,-0.18759 c -0.17135,-0.16486 -0.44821,-0.14309 -0.5917,0.0465 l -0.14469,0.19172 c -0.60793,-0.52471 -0.81172,-1.14547 -0.69711,-1.7694 0.0637,-0.34685 0.22052,-0.67039 0.40049,-0.92811 z" />
          <path
             id="path4523"
             style="color:#000000;fill:#35b9ab;stroke-linecap:round;stroke-linejoin:round;-inkscape-stroke:none;paint-order:markers fill stroke"
             d="m -503.83483,-223.90731 c -0.025,-8.1e-4 -0.0502,3.9e-4 -0.0759,0.004 -0.51459,0.0755 -0.94019,0.24116 -1.28662,0.44617 -0.34539,0.2044 -0.6045,0.50129 -0.79168,0.76871 -0.53521,-0.48965 -1.29469,-0.79895 -2.2391,-0.68494 -0.20492,0.0243 -0.35705,0.20154 -0.34998,0.40778 l 0.008,0.25363 -0.25923,-0.0228 c -0.2063,-0.0181 -0.39183,0.12545 -0.42613,0.32967 -0.0857,0.5103 -0.057,0.96442 0.0335,1.35541 0.0746,0.32286 0.22884,0.60932 0.39255,0.84529 -0.68715,0.33356 -1.27898,0.96694 -1.48415,1.9476 a 0.39691519,0.39691519 0 0 0 0.27387,0.46034 l 0.24616,0.0742 -0.10228,0.23146 a 0.39691519,0.39691519 0 0 0 0.1771,0.51409 c 0.45879,0.2441 0.89844,0.36061 1.29954,0.40117 0.48069,0.0486 0.94342,-0.0835 1.27759,-0.2119 0.10331,0.77156 0.53733,1.54788 1.44199,2.04576 0.17943,0.0992 0.40491,0.0454 0.52024,-0.12408 l 0.14604,-0.21441 0.19806,0.17216 c 0.15624,0.1345 0.38945,0.12726 0.53669,-0.0175 0.37094,-0.36256 0.61611,-0.74553 0.77417,-1.1145 0.1588,-0.37072 0.19089,-0.76587 0.1823,-1.09356 0.72848,0.0942 1.53733,-0.0924 2.24522,-0.74064 0.15221,-0.13977 0.17169,-0.37293 0.0449,-0.53604 l -0.15646,-0.20002 0.22095,-0.1295 c 0.18025,-0.1055 0.24792,-0.33262 0.15479,-0.51955 -0.23075,-0.46383 -0.52082,-0.81666 -0.82389,-1.08136 -0.30758,-0.26863 -0.68004,-0.42344 -0.99779,-0.51795 0.32094,-0.66443 0.39394,-1.49629 -0.0158,-2.37286 -0.0868,-0.18498 -0.29995,-0.27378 -0.49246,-0.20522 l -0.24619,0.0883 -0.057,-0.25181 c -0.0408,-0.17637 -0.19423,-0.29962 -0.36903,-0.30733 z m -0.30854,0.90867 0.0596,0.26307 c 0.0537,0.23106 0.29661,0.36381 0.52001,0.28411 l 0.22894,-0.0813 c 0.21647,0.76858 0.0403,1.39656 -0.40263,1.85524 -0.29491,0.3054 -0.68329,0.51286 -1.02325,0.62091 -0.0652,-0.10154 -0.14753,-0.19312 -0.24516,-0.27029 0.0227,-0.5232 -0.11987,-1.09619 -0.40521,-1.62173 -0.0158,-0.0292 -0.0337,-0.0578 -0.0507,-0.0866 0.16609,-0.2562 0.42861,-0.59711 0.6684,-0.73903 0.17253,-0.10212 0.42044,-0.15775 0.64997,-0.22444 z m -3.62579,0.47372 c 0.80569,0.0329 1.35689,0.39436 1.66057,0.95356 0.17613,0.32437 0.25743,0.69115 0.27486,1.01386 -0.20576,0.0251 -0.40336,0.1056 -0.56772,0.235 -0.38359,-0.14412 -0.82718,-0.20333 -1.28403,-0.17322 -0.10967,0.007 -0.21994,0.0205 -0.33036,0.0374 -0.17974,-0.23069 -0.37817,-0.53387 -0.43299,-0.77093 -0.0445,-0.19261 -0.0216,-0.44134 -0.0162,-0.67592 l 0.27069,0.0243 c 0.23738,0.0213 0.43988,-0.16987 0.43223,-0.40807 z m 4.63326,2.36615 c 0.29953,0.0762 0.73739,0.22635 0.95682,0.418 0.14979,0.13083 0.27719,0.34549 0.4106,0.53971 l -0.23004,0.13408 c -0.20711,0.12117 -0.26017,0.39698 -0.11281,0.58635 l 0.14321,0.18253 c -0.67135,0.43761 -1.33147,0.46477 -1.90739,0.18652 -0.36819,-0.17789 -0.67413,-0.46488 -0.88119,-0.74183 0.0133,-0.0208 0.0263,-0.0415 0.0383,-0.0634 0.0582,-0.10521 0.0968,-0.21648 0.11782,-0.32895 0.50974,-0.1372 1.01741,-0.44744 1.43513,-0.88005 0.0102,-0.0106 0.0195,-0.0223 0.0295,-0.0329 z m -4.57451,0.4651 c 0.31596,-0.0211 0.63102,0.0248 0.89578,0.10324 -0.0303,0.24803 0.0245,0.49939 0.15186,0.71189 -0.22574,0.3494 -0.38329,0.77329 -0.45897,1.22624 a 0.3968755,0.3968755 0 0 0 -0.0363,0.01 c -0.25214,0.11436 -0.82868,0.3128 -1.18137,0.27715 -0.19906,-0.0202 -0.43019,-0.12226 -0.65328,-0.20377 l 0.10801,-0.24157 a 0.39691519,0.39691519 0 0 0 -0.24671,-0.54182 l -0.23041,-0.0692 c 0.28908,-0.74096 0.80931,-1.14185 1.4404,-1.24761 0.07,-0.0114 0.1405,-0.0198 0.21095,-0.0246 z m 1.97538,-0.084 c 0.0623,-0.005 0.12741,0.008 0.18872,0.0412 0.16353,0.089 0.21984,0.28115 0.1317,0.44073 -0.0881,0.15958 -0.28157,0.21578 -0.4451,0.12673 -0.16352,-0.089 -0.21772,-0.28022 -0.12958,-0.43979 0.0551,-0.0997 0.15046,-0.1598 0.25426,-0.16886 z m -0.26445,1.40012 c 0.18771,0.0503 0.38332,0.0496 0.56721,0.004 0.28993,0.39526 0.71397,0.73862 1.21168,0.97908 0.0209,0.0101 0.0428,0.0189 0.0639,0.0285 0.0205,0.30517 0.0137,0.75239 -0.0982,1.0135 -0.0784,0.18294 -0.24463,0.37255 -0.38979,0.56023 l -0.2061,-0.17799 c -0.179,-0.15652 -0.45451,-0.12161 -0.58882,0.0746 l -0.13541,0.19838 c -0.6322,-0.4952 -0.86528,-1.10557 -0.78047,-1.73424 0.0471,-0.34949 0.18839,-0.68012 0.3559,-0.94611 z" />
          <path
             id="path4524"
             style="color:#000000;fill:#35b9ab;stroke-linecap:round;stroke-linejoin:round;-inkscape-stroke:none;paint-order:markers fill stroke"
             d="m -498.27226,-237.74769 c -0.0237,-0.008 -0.0483,-0.0138 -0.074,-0.0174 -0.51504,-0.0724 -0.97007,-0.0331 -1.36018,0.0661 -0.38895,0.099 -0.72113,0.31095 -0.97598,0.5149 -0.37582,-0.62046 -1.01759,-1.13096 -1.95593,-1.28728 -0.20347,-0.0344 -0.39933,0.0929 -0.45057,0.29283 l -0.0636,0.24566 -0.24235,-0.0948 c -0.19286,-0.0754 -0.41129,0.0101 -0.50167,0.19645 -0.22579,0.46558 -0.32605,0.90942 -0.34922,1.31008 -0.0192,0.33081 0.0482,0.64909 0.13885,0.92159 -0.75324,0.12674 -1.49937,0.56801 -1.97218,1.45133 a 0.39691519,0.39691519 0 0 0 0.13328,0.51879 l 0.21535,0.14045 -0.16328,0.19333 a 0.39691519,0.39691519 0 0 0 0.0253,0.54315 c 0.37157,0.36333 0.76067,0.59884 1.13416,0.75061 0.4476,0.18188 0.92879,0.18536 1.2856,0.15613 -0.11796,0.76946 0.0801,1.63654 0.80812,2.36884 0.14426,0.1457 0.37577,0.15749 0.53413,0.0273 l 0.20047,-0.16465 0.14162,0.22093 c 0.11208,0.17303 0.33791,0.2317 0.51994,0.13417 0.45797,-0.24354 0.801,-0.54206 1.05649,-0.85164 0.25669,-0.31106 0.39866,-0.68123 0.48263,-0.99809 0.67253,0.29538 1.50122,0.34387 2.3629,-0.079 0.18538,-0.0913 0.26968,-0.30956 0.19387,-0.50176 l -0.0939,-0.23596 0.24846,-0.0621 c 0.20265,-0.0505 0.33149,-0.24942 0.29472,-0.455 -0.0909,-0.51002 -0.26999,-0.93021 -0.48634,-1.26948 -0.21957,-0.34433 -0.53343,-0.59769 -0.81175,-0.77778 0.49492,-0.54729 0.79903,-1.325 0.65252,-2.28143 -0.0312,-0.20193 -0.21079,-0.34712 -0.41481,-0.33549 l -0.2611,0.0155 0.0161,-0.25769 c 0.0104,-0.18073 -0.10208,-0.34217 -0.26764,-0.39874 z m -0.55174,0.78515 -0.0168,0.2692 c -0.0135,0.23682 0.18226,0.43257 0.41906,0.41894 l 0.24256,-0.0136 c -0.009,0.79845 -0.35432,1.35147 -0.90837,1.66701 -0.36893,0.21008 -0.79998,0.29988 -1.15661,0.30791 -0.034,-0.11578 -0.0872,-0.22683 -0.15921,-0.32835 0.16904,-0.49566 0.19341,-1.08563 0.0675,-1.67023 -0.007,-0.0324 -0.0161,-0.0649 -0.0243,-0.0974 0.23147,-0.19911 0.5793,-0.45238 0.84934,-0.52111 0.19429,-0.0495 0.44784,-0.0331 0.68686,-0.0325 z m -3.6126,-0.56561 c 0.76387,0.25829 1.19111,0.76022 1.32518,1.38227 0.0778,0.36083 0.0526,0.73566 -0.0215,1.05024 -0.20451,-0.0338 -0.41678,-0.0122 -0.61091,0.0658 -0.32754,-0.24623 -0.73655,-0.42786 -1.18342,-0.52751 -0.10727,-0.0239 -0.21681,-0.0422 -0.32754,-0.057 -0.10758,-0.27195 -0.21269,-0.61872 -0.19859,-0.86162 0.0115,-0.19735 0.10348,-0.42958 0.17468,-0.65316 l 0.2529,0.0995 c 0.22178,0.0873 0.46991,-0.0392 0.52958,-0.26997 z m 3.78031,3.57421 c 0.26598,0.15745 0.64391,0.42469 0.80056,0.67034 0.10693,0.16768 0.16878,0.40952 0.24215,0.63343 l -0.25847,0.0639 c -0.23283,0.058 -0.36136,0.30774 -0.27323,0.53092 l 0.0861,0.21546 c -0.76736,0.23103 -1.40844,0.0714 -1.88281,-0.3577 -0.30326,-0.2743 -0.51609,-0.63578 -0.63686,-0.9598 0.0186,-0.0162 0.0369,-0.0324 0.0546,-0.05 0.0854,-0.0846 0.1538,-0.1805 0.20562,-0.28251 0.52775,0.0118 1.1022,-0.1431 1.62476,-0.44069 0.0128,-0.007 0.0249,-0.0159 0.0376,-0.0233 z m -4.52056,-0.84081 c 0.30912,0.0687 0.59855,0.20136 0.83055,0.35112 -0.0989,0.22946 -0.11698,0.48611 -0.0546,0.72585 -0.31493,0.27177 -0.58539,0.63421 -0.78546,1.04756 a 0.3968755,0.3968755 0 0 0 -0.0376,-8.6e-4 c -0.27413,0.0388 -0.88322,0.067 -1.21162,-0.0664 -0.18535,-0.0753 -0.37841,-0.23837 -0.56956,-0.37935 l 0.17161,-0.20143 a 0.39691519,0.39691519 0 0 0 -0.0843,-0.58934 l -0.20163,-0.13126 c 0.48588,-0.62968 1.0979,-0.868 1.73324,-0.79192 0.0704,0.009 0.14041,0.0205 0.20934,0.0358 z m 1.91922,0.47516 c 0.0612,0.0128 0.12005,0.0434 0.16951,0.0926 0.13188,0.13144 0.13185,0.33165 0.002,0.45998 -0.12946,0.12834 -0.33091,0.12784 -0.46278,-0.004 -0.13186,-0.13143 -0.13008,-0.33015 -6e-4,-0.45847 0.081,-0.0802 0.18934,-0.11101 0.2915,-0.0905 z m -0.64771,1.26915 c 0.16596,0.10111 0.35387,0.15548 0.54316,0.16346 0.167,0.46087 0.4773,0.90967 0.88724,1.28046 0.0172,0.0156 0.0357,0.0302 0.0533,0.0453 -0.0662,0.29863 -0.19855,0.72585 -0.37935,0.94494 -0.1267,0.15349 -0.33957,0.28867 -0.53169,0.42792 l -0.14769,-0.22879 c -0.12772,-0.20056 -0.40192,-0.24458 -0.58601,-0.0941 l -0.18576,0.15227 c -0.46732,-0.65308 -0.51925,-1.30437 -0.26098,-1.88378 0.14357,-0.3221 0.37215,-0.59963 0.60773,-0.80774 z" />
        </g>
      </g>
      <g
         id="g4536">
        <path
           id="path4531-3-9"
           style="fill:#ccedea;fill-opacity:1;stroke:none;stroke-width:23.8125;stroke-linecap:round;stroke-linejoin:round;stroke-opacity:1"
           d="m 243.53397,-21.437449 -1.99368,1.52032 -1.87327,-1.02371 -1.20406,1.099675 0.53433,1.966288 -1.42006,1.51722 0.69039,1.425753 2.08515,-0.05219 0.62115,1.338936 1.92494,0.471806 0.71159,-2.229322 1.0511,0.01395 1.17254,-0.450618 0.031,-0.969967 -0.0543,-0.817004 -1.29191,-0.994255 0.0744,-2.043803 -0.4625,-0.189652 z m -13.07931,4.795573 -1.64434,1.197859 -1.91461,-0.788065 -1.08624,1.151867 0.7829,1.929082 -1.02992,1.056266 c -1.10198,1.135543 0.089,1.339584 0.23823,1.966805 l 2.32854,-0.127124 0.35657,0.9870198 0.83302,0.9353434 0.91519,-0.315743 0.74259,-0.3405477 0.47233,-1.5606285 1.93166,-0.65629 0.0139,-0.499712 0.33383,-0.765327 -2.11925,-1.322917 0.29456,-2.113566 z m -10.98951,12.3108761 -2.04432,0.4986776 -0.60771,2.5600504 -2.54662,0.83819178 -0.0977,2.04483642 c 0.71537,0.7458782 1.42385,1.5203814 2.39676,1.2361003 l -0.10542,2.7967285 1.87534,0.8371582 c 0.83287,-0.3620787 1.71077,-0.5820744 2.18332,-2.0851441 l 1.18288,0.6692098 1.60817,0.2170411 0.63407,-1.0800375 0.44235,-0.9596313 c 0.27543,-0.680552 -0.53868,-1.2887197 -0.8506,-1.9301148 l 1.34618,-2.27014565 -0.40721,-0.50229495 -0.3173,-1.0319783 c -1.26948,-0.1504743 -2.49389,-0.2318346 -3.1998,0.4847249 z m -9.21029,10.2965292 -1.71256,1.0986409 -1.86448,-0.8991699 -1.15239,1.0857218 0.66766,1.9724894 -1.08985,0.9937375 0.12195,1.977141 2.33216,0.0098 0.29817,1.006657 0.77618,0.982369 0.93225,-0.260966 0.76119,-0.296623 0.56327,-1.530139 1.96733,-0.541569 0.0434,-0.497644 0.37776,-0.744141 -2.0376,-1.4453893 0.41858,-2.0928955 z" />
        <path
           style="fill:#214478;fill-opacity:1;stroke:none;stroke-width:23.8125;stroke-linecap:round;stroke-linejoin:round;stroke-opacity:1"
           d="m 195.40995,0.27156482 c -0.66076,2.83058998 -0.10035,3.65662138 0.41053,4.89713598 l 10.48406,-6.7632712 8.76015,-6.1528653 6.27473,-1.568818 4.07372,-1.0696923 -0.23013,-0.695305 -0.19501,-0.642671 -2.09836,0.491616 c 0,0 -6.11477,0.665452 -7.52654,0.774588 -1.41176,0.109128 -3.27312,1.6640413 -3.27312,1.6640413 0,0 -4.57754,2.7834209 -5.78626,3.398823 -1.20872,0.615402 -8.25181,4.50302412 -8.25181,4.50302412 z"
           id="path4532" />
        <g
           id="g4515"
           transform="translate(711.99632,301.02181)">
          <path
             style="color:#000000;fill:#35b9ab;stroke-linecap:round;stroke-linejoin:round;-inkscape-stroke:none;paint-order:markers fill stroke"
             d="m -487.00781,-313.20508 c -1.47957,0.4689 -2.98919,0.8223 -4.34766,0.875 -3.24593,0.12586 -5.80582,0.54497 -7.58398,1.4043 -0.39508,0.191 -0.74869,0.53962 -1.3125,0.98242 -0.56381,0.4428 -1.30611,0.97775 -2.32617,1.50781 -0.96875,0.50338 -3.83355,2.07616 -6.77149,3.64258 -2.93794,1.56643 -5.97607,3.13376 -7.12305,3.56641 a 0.3968755,0.3968755 0 0 0 -0.23242,0.51172 0.3968755,0.3968755 0 0 0 0.51172,0.23047 c 1.2976,-0.48947 4.27532,-2.04003 7.21875,-3.60938 2.94343,-1.56935 5.82533,-3.15015 6.76172,-3.63672 1.07487,-0.55854 1.86577,-1.12813 2.45117,-1.58789 0.5854,-0.45975 0.99645,-0.80966 1.16797,-0.89258 1.59655,-0.77156 4.07516,-1.20239 7.26758,-1.32617 1.47192,-0.0571 3.04109,-0.43119 4.55859,-0.91211 a 0.3968755,0.3968755 0 0 0 0.25781,-0.49805 0.3968755,0.3968755 0 0 0 -0.49804,-0.25781 z m 0.30273,1.63086 c -1.5052,0.55301 -3.08386,0.89958 -4.7207,1.13477 -4.23566,0.60859 -5.79503,0.99929 -9.02539,3.44531 -1.27398,0.96463 -4.07084,3.19491 -7.10352,5.40625 -3.03267,2.21134 -6.31793,4.40177 -8.4375,5.24805 a 0.3968755,0.3968755 0 0 0 -0.2207,0.51757 0.3968755,0.3968755 0 0 0 0.51562,0.22071 c 2.29073,-0.91462 5.56115,-3.1216 8.61133,-5.34571 3.05018,-2.2241 5.86313,-4.46747 7.11328,-5.41406 3.16892,-2.39949 4.44087,-2.68477 8.66016,-3.29101 1.67461,-0.24062 3.3081,-0.59991 4.88086,-1.17774 a 0.3968755,0.3968755 0 0 0 0.23633,-0.50781 0.3968755,0.3968755 0 0 0 -0.50977,-0.23633 z"
             id="path4511" />
          <path
             id="path4512"
             style="color:#000000;fill:#35b9ab;fill-opacity:1;stroke:none;stroke-width:0.79375;stroke-linecap:round;stroke-linejoin:round;stroke-dasharray:none;stroke-opacity:1;-inkscape-stroke:none;paint-order:markers fill stroke"
             d="m -493.1766,-306.08571 a 0.39567375,0.39816124 89.946196 0 0 -0.35141,0.22892 l -0.20567,0.4346 -0.40825,-0.25424 a 0.39567375,0.39816124 89.946196 0 0 -0.53123,0.10283 c -0.39687,0.53562 -0.62735,1.06898 -0.75241,1.56683 -0.12944,0.51527 -0.0785,1.05327 0.006,1.48157 -0.97665,-0.0496 -2.02841,0.29796 -2.87011,1.2857 a 0.39567375,0.39816124 89.946196 0 0 0.0186,0.53537 l 0.34003,0.33952 -0.38345,0.29507 a 0.39567375,0.39816124 89.946196 0 0 -0.0909,0.5302 c 0.3667,0.55533 0.79195,0.95612 1.21801,1.24489 0.46697,0.31648 1.02618,0.45065 1.47226,0.51418 -0.35539,0.90526 -0.35554,2.00514 0.32195,3.10782 a 0.39567375,0.39816124 89.946196 0 0 0.5178,0.15038 l 0.43356,-0.21446 0.15813,0.45217 a 0.39567375,0.39816124 89.946196 0 0 0.47697,0.25063 c 0.64603,-0.17271 1.16185,-0.44626 1.572,-0.75809 0.45471,-0.34571 0.76279,-0.83942 0.9648,-1.24334 0.75993,0.62506 1.82374,0.97033 3.10265,0.66146 a 0.39567375,0.39816124 89.946196 0 0 0.29972,-0.44287 l -0.0698,-0.47387 0.48163,-0.0134 a 0.39567375,0.39816124 89.946196 0 0 0.38654,-0.37517 c 0.0337,-0.66393 -0.0665,-1.23499 -0.23875,-1.71824 -0.186,-0.52173 -0.55129,-0.95446 -0.87126,-1.2671 0.25308,-0.16637 0.48918,-0.3675 0.6966,-0.60565 0.45344,-0.52061 0.77272,-1.21397 0.83974,-2.08773 a 0.39567375,0.39816124 89.946196 0 0 -0.33332,-0.42064 l -0.47801,-0.078 0.13953,-0.4594 a 0.39567375,0.39816124 89.946196 0 0 -0.24133,-0.48266 c -0.62524,-0.23485 -1.20398,-0.31085 -1.71979,-0.29559 -0.56523,0.0167 -1.09849,0.23461 -1.4981,0.44338 -0.25497,-0.99691 -0.95571,-1.94323 -2.25826,-2.41174 a 0.39567375,0.39816124 89.946196 0 0 -0.14469,-0.0232 z m 0.17053,0.98857 c 1.06073,0.53003 1.52583,1.36818 1.54771,2.2779 0.0145,0.60122 -0.1636,1.19351 -0.40152,1.63401 -0.26075,-0.0827 -0.54128,-0.0842 -0.80151,-0.008 -0.43101,-0.49111 -1.05042,-0.89915 -1.75958,-1.13998 -0.0472,-0.016 -0.0955,-0.0297 -0.14366,-0.0439 -0.0965,-0.40088 -0.19532,-1.02162 -0.0909,-1.43712 0.0756,-0.30109 0.26884,-0.62895 0.46302,-0.95601 l 0.41806,0.25786 a 0.39567375,0.39816124 89.946196 0 0 0.57258,-0.16743 z m 3.75274,1.79214 c 0.31211,-0.009 0.68211,0.0865 1.0511,0.18397 l -0.14056,0.47129 a 0.39567375,0.39816124 89.946196 0 0 0.31626,0.50178 l 0.45631,0.0734 c -0.22956,1.16075 -0.92155,1.835 -1.79726,2.10276 -0.52985,0.162 -1.09471,0.16713 -1.56218,0.0837 0.004,-0.28629 -0.0821,-0.57225 -0.25476,-0.81028 0.3456,-0.57992 0.53658,-1.32809 0.52297,-2.10634 0.35916,-0.20377 0.96288,-0.48705 1.40818,-0.50022 z m -6.25853,1.58027 c 0.2827,-2.3e-4 0.5619,0.0492 0.83251,0.14107 0.53221,0.18074 0.99842,0.51319 1.32808,0.85887 -0.17839,0.23081 -0.26908,0.50467 -0.27647,0.77928 -0.58488,0.25783 -1.14757,0.70568 -1.58801,1.28209 -0.0328,0.0428 -0.0634,0.0878 -0.0945,0.1323 -0.41069,-0.0457 -1.06177,-0.17048 -1.42782,-0.41858 -0.25797,-0.17485 -0.50111,-0.46685 -0.74208,-0.7617 l 0.39274,-0.30024 a 0.39567375,0.39816124 89.946196 0 0 0.0408,-0.58963 l -0.32504,-0.32711 c 0.59909,-0.55539 1.2379,-0.79585 1.85983,-0.79633 z m 3.23856,1.26297 c 0.12379,8.9e-4 0.24785,0.044 0.35192,0.13074 0.23788,0.19837 0.26698,0.53989 0.0661,0.77773 -0.20084,0.23784 -0.5445,0.26865 -0.78238,0.0703 -0.23789,-0.19837 -0.26699,-0.53989 -0.0661,-0.77773 0.11297,-0.13379 0.27132,-0.20217 0.43046,-0.20102 z m 3.33572,1.1777 c 0.30304,0.28051 0.73181,0.74564 0.87591,1.1498 0.10446,0.293 0.12794,0.67334 0.14728,1.05369 l -0.49403,0.0119 a 0.39567375,0.39816124 89.946196 0 0 -0.38188,0.45217 l 0.0687,0.45527 c -1.18286,0.1435 -2.03842,-0.29952 -2.56264,-1.04541 -0.31196,-0.44388 -0.48964,-0.96849 -0.55552,-1.43247 0.22509,-0.0762 0.43249,-0.21181 0.59531,-0.40463 0.0166,-0.0196 0.0328,-0.0396 0.0481,-0.0599 0.63081,0.13606 1.35903,0.10117 2.06344,-0.11421 0.0654,-0.02 0.13053,-0.0424 0.19534,-0.0662 z m -4.45399,0.1385 c 0.0672,0.0975 0.14823,0.18782 0.24339,0.26717 0.14351,0.11967 0.30567,0.20463 0.47542,0.25528 0.0718,0.62469 0.32647,1.28409 0.73691,1.8681 0.0245,0.0348 0.0512,0.0687 0.077,0.10284 -0.17198,0.37307 -0.50203,0.95977 -0.85937,1.23145 -0.24868,0.18907 -0.60321,0.32703 -0.96118,0.46251 l -0.16175,-0.46354 a 0.39567375,0.39816124 89.946196 0 0 -0.55242,-0.22273 l -0.41548,0.20309 c -0.49448,-1.07308 -0.32691,-2.01966 0.22738,-2.74505 0.32724,-0.42829 0.76998,-0.75414 1.19011,-0.95912 z" />
          <path
             id="path4513"
             style="color:#000000;fill:#35b9ab;stroke-linecap:round;stroke-linejoin:round;-inkscape-stroke:none;paint-order:markers fill stroke"
             d="m -501.16011,-295.4631 c -0.0249,-0.002 -0.0502,-0.002 -0.076,5.1e-4 -0.5176,0.0509 -0.9506,0.19617 -1.30638,0.38448 -0.35472,0.18774 -0.62766,0.47197 -0.82734,0.73019 -0.51132,-0.51455 -1.25523,-0.85962 -2.204,-0.79065 -0.20584,0.0145 -0.36623,0.18433 -0.36897,0.39067 l -0.004,0.25373 -0.25786,-0.0351 c -0.2052,-0.0279 -0.39735,0.10667 -0.44132,0.30903 -0.10984,0.50565 -0.1028,0.96062 -0.031,1.35547 0.0592,0.32604 0.19961,0.61951 0.35191,0.863 -0.70224,0.3005 -1.32352,0.90502 -1.57509,1.87482 a 0.39691519,0.39691519 0 0 0 0.25166,0.47284 l 0.24236,0.0858 -0.11317,0.22634 a 0.39691519,0.39691519 0 0 0 0.15245,0.52193 c 0.44666,0.26564 0.88027,0.40293 1.27899,0.46251 0.47784,0.0714 0.94632,-0.0385 1.28622,-0.1509 0.0665,0.7756 0.46311,1.57168 1.34307,2.11202 0.17451,0.10764 0.40229,0.0646 0.52555,-0.0992 l 0.15607,-0.20722 0.18965,0.18138 c 0.14967,0.14178 0.38296,0.14564 0.53692,0.008 0.38776,-0.34451 0.65087,-0.71539 0.8263,-1.07642 0.17625,-0.36275 0.22709,-0.75593 0.2341,-1.08366 0.72317,0.12876 1.53998,-0.0192 2.2779,-0.63303 0.15868,-0.13237 0.18923,-0.36434 0.0703,-0.5333 l -0.14677,-0.20723 0.22686,-0.11885 c 0.18506,-0.0968 0.26345,-0.32045 0.17932,-0.5116 -0.20843,-0.47428 -0.48139,-0.8405 -0.77153,-1.11931 -0.29446,-0.28296 -0.65914,-0.45531 -0.97203,-0.56482 0.35217,-0.64842 0.46465,-1.47586 0.0971,-2.37092 -0.0779,-0.1889 -0.28659,-0.28774 -0.48214,-0.22841 l -0.25012,0.0765 -0.045,-0.25424 c -0.0324,-0.17811 -0.17976,-0.30852 -0.35399,-0.32453 z m -0.3514,0.89297 0.047,0.26561 c 0.0426,0.23334 0.27897,0.3775 0.50591,0.30851 l 0.23254,-0.0703 c 0.17968,0.77801 -0.0262,1.3969 -0.4904,1.834 -0.3091,0.29103 -0.7069,0.47978 -1.05162,0.57154 -0.0603,-0.10452 -0.13818,-0.19992 -0.23203,-0.28164 0.0476,-0.52153 -0.0676,-1.10065 -0.32763,-1.63917 -0.0144,-0.0299 -0.0309,-0.0593 -0.0465,-0.0889 0.17809,-0.24801 0.45652,-0.57605 0.70279,-0.70641 0.17719,-0.0938 0.42747,-0.13757 0.65991,-0.19327 z m -3.64422,0.30075 c 0.80321,0.0712 1.3366,0.45845 1.61334,1.03146 0.16051,0.33238 0.22427,0.70261 0.22634,1.02578 -0.20672,0.0153 -0.40793,0.0863 -0.57826,0.20774 -0.3763,-0.1622 -0.81657,-0.24244 -1.27434,-0.23409 -0.10989,0.002 -0.22066,0.01 -0.33176,0.0217 -0.16857,-0.23898 -0.35236,-0.55126 -0.39584,-0.79065 -0.0353,-0.19451 -5.6e-4,-0.44187 0.016,-0.67593 l 0.26923,0.0372 c 0.23609,0.0326 0.44746,-0.14876 0.45114,-0.38706 z m 4.51549,2.58382 c 0.29557,0.0904 0.72579,0.26116 0.93586,0.46303 0.1434,0.1378 0.26045,0.35828 0.38447,0.55862 l -0.23616,0.12299 c -0.21263,0.11119 -0.27875,0.38416 -0.14056,0.58032 l 0.13436,0.18914 c -0.6914,0.40519 -1.35206,0.40092 -1.9141,0.0956 -0.35931,-0.1952 -0.65126,-0.49642 -0.84491,-0.7829 0.0143,-0.0201 0.0282,-0.0402 0.0413,-0.0615 0.0631,-0.10233 0.10699,-0.21164 0.13333,-0.32298 0.51569,-0.1128 1.03754,-0.39855 1.47536,-0.8108 0.0107,-0.0101 0.0205,-0.0213 0.031,-0.0315 z m -4.59145,0.24702 c 0.3166,-0.006 0.62913,0.0548 0.88986,0.14573 -0.0421,0.2463 7.5e-4,0.49999 0.11783,0.7183 -0.2421,0.33827 -0.41963,0.75419 -0.51677,1.20303 a 0.3968755,0.3968755 0 0 0 -0.0367,0.008 c -0.25729,0.10224 -0.84262,0.27304 -1.19321,0.22066 -0.19788,-0.0296 -0.42389,-0.14258 -0.64285,-0.23461 l 0.11937,-0.23616 a 0.39691519,0.39691519 0 0 0 -0.22066,-0.55294 l -0.22686,-0.0801 c 0.32399,-0.72637 0.8627,-1.10207 1.4981,-1.1777 0.0705,-0.008 0.14129,-0.0131 0.21188,-0.0145 z m 1.97714,0.01 c 0.0625,-0.002 0.12689,0.0139 0.18655,0.0501 0.15911,0.0967 0.20622,0.29129 0.11059,0.44649 -0.0956,0.15521 -0.29151,0.20215 -0.45062,0.10542 -0.1591,-0.0967 -0.20415,-0.29025 -0.10852,-0.44545 0.0598,-0.097 0.15789,-0.15246 0.262,-0.15658 z m -0.33073,1.38596 c 0.1851,0.0592 0.38052,0.0678 0.56637,0.031 0.27081,0.4086 0.67804,0.77174 1.16375,1.0356 0.0204,0.0111 0.0418,0.0209 0.0625,0.0315 0.006,0.30581 -0.0221,0.75219 -0.14624,1.00769 -0.087,0.179 -0.26207,0.36049 -0.416,0.54106 l -0.1974,-0.18759 c -0.17135,-0.16486 -0.44821,-0.14309 -0.5917,0.0465 l -0.14469,0.19172 c -0.60793,-0.52471 -0.81172,-1.14547 -0.69711,-1.7694 0.0637,-0.34685 0.22052,-0.67039 0.40049,-0.92811 z" />
          <path
             id="path4514"
             style="color:#000000;fill:#35b9ab;stroke-linecap:round;stroke-linejoin:round;-inkscape-stroke:none;paint-order:markers fill stroke"
             d="m -480.99792,-317.98437 c -0.025,-8.1e-4 -0.0502,3.9e-4 -0.0759,0.004 -0.51459,0.0755 -0.94019,0.24116 -1.28662,0.44617 -0.34539,0.2044 -0.6045,0.50129 -0.79168,0.76871 -0.53521,-0.48965 -1.29469,-0.79895 -2.2391,-0.68494 -0.20492,0.0243 -0.35705,0.20154 -0.34998,0.40778 l 0.008,0.25363 -0.25923,-0.0228 c -0.2063,-0.0181 -0.39183,0.12545 -0.42613,0.32967 -0.0857,0.5103 -0.057,0.96442 0.0335,1.35541 0.0746,0.32286 0.22884,0.60932 0.39255,0.84529 -0.68715,0.33356 -1.27898,0.96694 -1.48415,1.9476 a 0.39691519,0.39691519 0 0 0 0.27387,0.46034 l 0.24616,0.0742 -0.10228,0.23146 a 0.39691519,0.39691519 0 0 0 0.1771,0.51409 c 0.45879,0.2441 0.89844,0.36061 1.29954,0.40117 0.48069,0.0486 0.94342,-0.0835 1.27759,-0.2119 0.10331,0.77156 0.53733,1.54788 1.44199,2.04576 0.17943,0.0992 0.40491,0.0454 0.52024,-0.12408 l 0.14604,-0.21441 0.19806,0.17216 c 0.15624,0.1345 0.38945,0.12726 0.53669,-0.0175 0.37094,-0.36256 0.61611,-0.74553 0.77417,-1.1145 0.1588,-0.37072 0.19089,-0.76587 0.1823,-1.09356 0.72848,0.0942 1.53733,-0.0924 2.24522,-0.74064 0.15221,-0.13977 0.17169,-0.37293 0.0449,-0.53604 l -0.15646,-0.20002 0.22095,-0.1295 c 0.18025,-0.1055 0.24792,-0.33262 0.15479,-0.51955 -0.23075,-0.46383 -0.52082,-0.81666 -0.82389,-1.08136 -0.30758,-0.26863 -0.68004,-0.42344 -0.99779,-0.51795 0.32094,-0.66443 0.39394,-1.49629 -0.0158,-2.37286 -0.0868,-0.18498 -0.29995,-0.27378 -0.49246,-0.20522 l -0.24619,0.0883 -0.057,-0.25181 c -0.0408,-0.17637 -0.19423,-0.29962 -0.36903,-0.30733 z m -0.30854,0.90867 0.0596,0.26307 c 0.0537,0.23106 0.29661,0.36381 0.52001,0.28411 l 0.22894,-0.0813 c 0.21647,0.76858 0.0403,1.39656 -0.40263,1.85524 -0.29491,0.3054 -0.68329,0.51286 -1.02325,0.62091 -0.0652,-0.10154 -0.14753,-0.19312 -0.24516,-0.27029 0.0227,-0.5232 -0.11987,-1.09619 -0.40521,-1.62173 -0.0158,-0.0292 -0.0337,-0.0578 -0.0507,-0.0866 0.16609,-0.2562 0.42861,-0.59711 0.6684,-0.73903 0.17253,-0.10212 0.42044,-0.15775 0.64997,-0.22444 z m -3.62579,0.47372 c 0.80569,0.0329 1.35689,0.39436 1.66057,0.95356 0.17613,0.32437 0.25743,0.69115 0.27486,1.01386 -0.20576,0.0251 -0.40336,0.1056 -0.56772,0.235 -0.38359,-0.14412 -0.82718,-0.20333 -1.28403,-0.17322 -0.10967,0.007 -0.21994,0.0205 -0.33036,0.0374 -0.17974,-0.23069 -0.37817,-0.53387 -0.43299,-0.77093 -0.0445,-0.19261 -0.0216,-0.44134 -0.0162,-0.67592 l 0.27069,0.0243 c 0.23738,0.0213 0.43988,-0.16987 0.43223,-0.40807 z m 4.63326,2.36615 c 0.29953,0.0762 0.73739,0.22635 0.95682,0.418 0.14979,0.13083 0.27719,0.34549 0.4106,0.53971 l -0.23004,0.13408 c -0.20711,0.12117 -0.26017,0.39698 -0.11281,0.58635 l 0.14321,0.18253 c -0.67135,0.43761 -1.33147,0.46477 -1.90739,0.18652 -0.36819,-0.17789 -0.67413,-0.46488 -0.88119,-0.74183 0.0133,-0.0208 0.0263,-0.0415 0.0383,-0.0634 0.0582,-0.10521 0.0968,-0.21648 0.11782,-0.32895 0.50974,-0.1372 1.01741,-0.44744 1.43513,-0.88005 0.0102,-0.0106 0.0195,-0.0223 0.0295,-0.0329 z m -4.57451,0.4651 c 0.31596,-0.0211 0.63102,0.0248 0.89578,0.10324 -0.0303,0.24803 0.0245,0.49939 0.15186,0.71189 -0.22574,0.3494 -0.38329,0.77329 -0.45897,1.22624 a 0.3968755,0.3968755 0 0 0 -0.0363,0.01 c -0.25214,0.11436 -0.82868,0.3128 -1.18137,0.27715 -0.19906,-0.0202 -0.43019,-0.12226 -0.65328,-0.20377 l 0.10801,-0.24157 a 0.39691519,0.39691519 0 0 0 -0.24671,-0.54182 l -0.23041,-0.0692 c 0.28908,-0.74096 0.80931,-1.14185 1.4404,-1.24761 0.07,-0.0114 0.1405,-0.0198 0.21095,-0.0246 z m 1.97538,-0.084 c 0.0623,-0.005 0.12741,0.008 0.18872,0.0412 0.16353,0.089 0.21984,0.28115 0.1317,0.44073 -0.0881,0.15958 -0.28157,0.21578 -0.4451,0.12673 -0.16352,-0.089 -0.21772,-0.28022 -0.12958,-0.43979 0.0551,-0.0997 0.15046,-0.1598 0.25426,-0.16886 z m -0.26445,1.40012 c 0.18771,0.0503 0.38332,0.0496 0.56721,0.004 0.28993,0.39526 0.71397,0.73862 1.21168,0.97908 0.0209,0.0101 0.0428,0.0189 0.0639,0.0285 0.0205,0.30517 0.0137,0.75239 -0.0982,1.0135 -0.0784,0.18294 -0.24463,0.37255 -0.38979,0.56023 l -0.2061,-0.17799 c -0.179,-0.15652 -0.45451,-0.12161 -0.58882,0.0746 l -0.13541,0.19838 c -0.6322,-0.4952 -0.86528,-1.10557 -0.78047,-1.73424 0.0471,-0.34949 0.18839,-0.68012 0.3559,-0.94611 z" />
          <path
             id="path4515"
             style="color:#000000;fill:#35b9ab;stroke-linecap:round;stroke-linejoin:round;-inkscape-stroke:none;paint-order:markers fill stroke"
             d="m -468.17442,-322.79009 c -0.0249,-0.002 -0.0502,-0.002 -0.076,5.1e-4 -0.5176,0.0509 -0.9506,0.19617 -1.30638,0.38448 -0.35472,0.18774 -0.62766,0.47197 -0.82734,0.73019 -0.51132,-0.51455 -1.25523,-0.85962 -2.204,-0.79065 -0.20584,0.0145 -0.36623,0.18433 -0.36897,0.39067 l -0.004,0.25373 -0.25786,-0.0351 c -0.2052,-0.0279 -0.39735,0.10667 -0.44132,0.30903 -0.10984,0.50565 -0.1028,0.96062 -0.031,1.35547 0.0592,0.32604 0.19961,0.61951 0.35191,0.863 -0.70224,0.3005 -1.32352,0.90502 -1.57509,1.87482 a 0.39691519,0.39691519 0 0 0 0.25166,0.47284 l 0.24236,0.0858 -0.11317,0.22634 a 0.39691519,0.39691519 0 0 0 0.15245,0.52193 c 0.44666,0.26564 0.88027,0.40293 1.27899,0.46251 0.47784,0.0714 0.94632,-0.0385 1.28622,-0.1509 0.0665,0.7756 0.46311,1.57168 1.34307,2.11202 0.17451,0.10764 0.40229,0.0646 0.52555,-0.0992 l 0.15607,-0.20722 0.18965,0.18138 c 0.14967,0.14178 0.38296,0.14564 0.53692,0.008 0.38776,-0.34451 0.65087,-0.71539 0.8263,-1.07642 0.17625,-0.36275 0.22709,-0.75593 0.2341,-1.08366 0.72317,0.12876 1.53998,-0.0192 2.2779,-0.63303 0.15868,-0.13237 0.18923,-0.36434 0.0703,-0.5333 l -0.14677,-0.20723 0.22686,-0.11885 c 0.18506,-0.0968 0.26345,-0.32045 0.17932,-0.5116 -0.20843,-0.47428 -0.48139,-0.8405 -0.77153,-1.11931 -0.29446,-0.28296 -0.65914,-0.45531 -0.97203,-0.56482 0.35217,-0.64842 0.46465,-1.47586 0.0971,-2.37092 -0.0779,-0.1889 -0.28659,-0.28774 -0.48214,-0.22841 l -0.25012,0.0765 -0.045,-0.25424 c -0.0324,-0.17811 -0.17976,-0.30852 -0.35399,-0.32453 z m -0.3514,0.89297 0.047,0.26561 c 0.0426,0.23334 0.27897,0.3775 0.50591,0.30851 l 0.23254,-0.0703 c 0.17968,0.77801 -0.0262,1.3969 -0.4904,1.834 -0.3091,0.29103 -0.7069,0.47978 -1.05162,0.57154 -0.0603,-0.10452 -0.13818,-0.19992 -0.23203,-0.28164 0.0476,-0.52153 -0.0676,-1.10065 -0.32763,-1.63917 -0.0144,-0.0299 -0.0309,-0.0593 -0.0465,-0.0889 0.17809,-0.24801 0.45652,-0.57605 0.70279,-0.70641 0.17719,-0.0938 0.42747,-0.13757 0.65991,-0.19327 z m -3.64422,0.30075 c 0.80321,0.0712 1.3366,0.45845 1.61334,1.03146 0.16051,0.33238 0.22427,0.70261 0.22634,1.02578 -0.20672,0.0153 -0.40793,0.0863 -0.57826,0.20774 -0.3763,-0.1622 -0.81657,-0.24244 -1.27434,-0.23409 -0.10989,0.002 -0.22066,0.01 -0.33176,0.0217 -0.16857,-0.23898 -0.35236,-0.55126 -0.39584,-0.79065 -0.0353,-0.19451 -5.6e-4,-0.44187 0.016,-0.67593 l 0.26923,0.0372 c 0.23609,0.0326 0.44746,-0.14876 0.45114,-0.38706 z m 4.51549,2.58382 c 0.29557,0.0904 0.72579,0.26116 0.93586,0.46303 0.1434,0.1378 0.26045,0.35828 0.38447,0.55862 l -0.23616,0.12299 c -0.21263,0.11119 -0.27875,0.38416 -0.14056,0.58032 l 0.13436,0.18914 c -0.6914,0.40519 -1.35206,0.40092 -1.9141,0.0956 -0.35931,-0.1952 -0.65126,-0.49642 -0.84491,-0.7829 0.0143,-0.0201 0.0282,-0.0402 0.0413,-0.0615 0.0631,-0.10233 0.10699,-0.21164 0.13333,-0.32298 0.51569,-0.1128 1.03754,-0.39855 1.47536,-0.8108 0.0107,-0.0101 0.0205,-0.0213 0.031,-0.0315 z m -4.59145,0.24702 c 0.3166,-0.006 0.62913,0.0548 0.88986,0.14573 -0.0421,0.2463 7.5e-4,0.49999 0.11783,0.7183 -0.2421,0.33827 -0.41963,0.75419 -0.51677,1.20303 a 0.3968755,0.3968755 0 0 0 -0.0367,0.008 c -0.25729,0.10224 -0.84262,0.27304 -1.19321,0.22066 -0.19788,-0.0296 -0.42389,-0.14258 -0.64285,-0.23461 l 0.11937,-0.23616 a 0.39691519,0.39691519 0 0 0 -0.22066,-0.55294 l -0.22686,-0.0801 c 0.32399,-0.72637 0.8627,-1.10207 1.4981,-1.1777 0.0705,-0.008 0.14129,-0.0131 0.21188,-0.0145 z m 1.97714,0.01 c 0.0625,-0.002 0.12689,0.0139 0.18655,0.0501 0.15911,0.0967 0.20622,0.29129 0.11059,0.44649 -0.0956,0.15521 -0.29151,0.20215 -0.45062,0.10542 -0.1591,-0.0967 -0.20415,-0.29025 -0.10852,-0.44545 0.0598,-0.097 0.15789,-0.15246 0.262,-0.15658 z m -0.33073,1.38596 c 0.1851,0.0592 0.38052,0.0678 0.56637,0.031 0.27081,0.4086 0.67804,0.77174 1.16375,1.0356 0.0204,0.0111 0.0418,0.0209 0.0625,0.0315 0.006,0.30581 -0.0221,0.75219 -0.14624,1.00769 -0.087,0.179 -0.26207,0.36049 -0.416,0.54106 l -0.1974,-0.18759 c -0.17135,-0.16486 -0.44821,-0.14309 -0.5917,0.0465 l -0.14469,0.19172 c -0.60793,-0.52471 -0.81172,-1.14547 -0.69711,-1.7694 0.0637,-0.34685 0.22052,-0.67039 0.40049,-0.92811 z" />
        </g>
      </g>
    </g>
  </g>
</svg>
