<?xml version="1.0" encoding="UTF-8" standalone="no"?>
<!-- Created with Inkscape (http://www.inkscape.org/) -->

<svg
   width="99.810097mm"
   height="36.596039mm"
   viewBox="0 0 99.810099 36.596039"
   version="1.1"
   id="svg1"
   xmlns="http://www.w3.org/2000/svg"
   xmlns:svg="http://www.w3.org/2000/svg">
  <defs
     id="defs1" />
  <g
     id="layer1"
     transform="translate(115.54699,-49.112762)">
    <g
       id="g4551">
      <path
         id="path4502"
         style="fill:#214478;fill-opacity:1;stroke:none;stroke-width:23.8125;stroke-linecap:round;stroke-linejoin:round;stroke-opacity:1"
         d="m -39.90641,65.502792 -9.07335,0.28112 -10.38387,9.44801 -0.18706,7.01559 2.1518,3.46129 19.27014,-0.0935 3.18017,-7.76438 4.0225,-4.11603 2.05827,-1.40302 -2.24534,-3.74189 z m -49.43781,4.0225 -8.41913,2.85305 -5.84667,3.46129 -2.9931,4.16305 0.32711,3.13366 -0.32711,2.33836 1.07539,0.047 2.43241,0.18707 h 21.37492 l 1.77715,-4.53719 2.99362,-4.06901 -5.42551,-3.08715 z" />
      <path
         id="path4504"
         style="fill:#ffffff;fill-opacity:1;stroke:none;stroke-width:23.8125;stroke-linecap:round;stroke-linejoin:round;stroke-opacity:1"
         d="m -30.96019,49.698072 a 1.0417968,0.94257814 0 0 0 -1.0418,0.94258 1.0417968,0.94257814 0 0 0 1.0418,0.94258 1.0417968,0.94257814 0 0 0 1.0418,-0.94258 1.0417968,0.94257814 0 0 0 -1.0418,-0.94258 z m -9.38961,6.61562 -3.55482,0.70177 -4.35012,2.10478 -4.91081,4.11603 -7.42797,8.91831 -6.08542,7.07761 -3.40651,4.16719 -2.06964,2.24069 h 13.09636 18.14772 l -0.98236,-1.40354 1.12241,-0.70124 5.23844,1.07538 -3.74189,-2.52543 -3.41426,-0.23409 -3.55483,0.23409 -1.73012,-0.88883 0.88831,-1.0759 2.57246,-0.65474 -1.59009,-0.65474 -4.3496,0.74827 -3.32125,0.98237 -2.80603,-1.40302 -0.5612,-1.49706 0.98185,-2.94659 2.61948,-1.77715 2.52543,-0.42117 0.70176,1.63711 0.93534,-1.59008 -0.46767,-1.21595 -1.12241,-0.65526 4.20956,-1.77715 2.01125,1.82418 0.14004,1.30948 1.26297,-1.45004 0.2341,-0.70125 -0.56172,-1.40353 v -0.46767 l 2.61947,-0.32711 1.82418,0.79478 2.38539,2.57245 0.98237,-1.12241 -0.56173,-1.87069 4.35013,0.7953 1.6371,2.01073 1.02888,3.13418 1.12241,-1.68414 -0.23357,-1.96422 -0.46819,-0.70176 4.81779,0.74827 1.87069,1.54358 0.42116,0.74827 0.60823,-1.63711 -0.70176,-1.07538 -0.56121,-1.07591 2.24483,-0.0465 1.49706,0.56121 1.26246,1.26245 0.70176,1.31 0.60823,-2.57245 -1.02939,-1.68414 -2.52543,-1.54357 -2.61948,0.23409 -2.99309,0.84181 -1.77767,-0.37413 -2.10478,-1.68362 v -1.82418 l 1.77766,-0.7953 -1.54357,-1.40302 -4.11603,0.0465 -2.66599,0.74879 -2.15129,-0.5612 -0.42116,-1.49707 3.69487,-1.21594 0.70176,-0.0935 -3.55482,-1.63711 z m -19.15232,3.25665 a 1.0417968,0.94257814 0 0 0 -1.0418,0.94258 1.0417968,0.94257814 0 0 0 1.0418,0.94258 1.0417968,0.94257814 0 0 0 1.0418,-0.94258 1.0417968,0.94257814 0 0 0 -1.0418,-0.94258 z m -28.18122,1.98179 -4.5837,1.02888 -4.67724,2.52594 -8.13852,8.6062 -10.28981,11.97343 h 17.96066 l 3.55482,-1.21595 -1.68413,-0.93534 -6.36085,1.40301 -2.90009,-0.74827 -1.12241,-1.68414 1.59009,-3.64784 3.08715,-1.77767 2.24534,0.84181 1.21594,1.68414 0.65474,-2.15181 -0.84181,-2.05776 -0.74827,-0.65474 4.30258,-0.0935 0.74879,1.21595 0.46767,1.30948 1.40302,-1.96422 -0.46767,-1.77716 1.68361,-0.37465 2.61948,2.05827 2.52543,4.77077 0.65474,-5.33197 2.80655,1.12241 1.68362,4.39663 0.5612,-3.83543 4.0225,1.12242 1.02939,2.4324 1.02888,-2.05827 -0.74828,-2.33836 2.33836,0.28061 2.05776,3.27422 0.56172,-3.55483 c 0,0 -0.65507,-1.9642 -2.52594,-2.15129 -1.87089,-0.18709 -5.05138,0.65474 -5.05138,0.65474 l -1.87068,-0.84232 -1.0294,-2.52543 0.65526,-1.12241 2.15129,-0.37414 -3.08715,-1.8712 -3.92844,0.74827 -1.77767,-0.2806 -1.30948,-1.96422 0.93534,-0.46767 3.08715,-0.46767 z m 16.03881,6.57583 a 1.0417968,0.94257814 0 0 0 -1.0418,0.94258 1.0417968,0.94257814 0 0 0 1.0418,0.94257 1.0417968,0.94257814 0 0 0 1.0418,-0.94257 1.0417968,0.94257814 0 0 0 -1.0418,-0.94258 z m -6.19652,15.07298 a 1.0417968,0.94257814 0 0 0 -1.0418,0.94258 1.0417968,0.94257814 0 0 0 1.0418,0.94258 1.0417968,0.94257814 0 0 0 1.0418,-0.94258 1.0417968,0.94257814 0 0 0 -1.0418,-0.94258 z" />
      <path
         id="path4505"
         style="color:#000000;fill:#35b9ab;stroke-linecap:round;stroke-linejoin:round;-inkscape-stroke:none"
         d="m -30.83381,49.112762 c -0.88882,0 -1.64848,0.7008 -1.64848,1.58801 0,0.88722 0.75966,1.58802 1.64848,1.58802 0.88882,0 1.64848,-0.7008 1.64848,-1.58802 0,-0.88721 -0.75966,-1.58801 -1.64848,-1.58801 z m 0,1.05678 c 0.34739,0 0.58963,0.24823 0.58963,0.53123 0,0.28301 -0.24224,0.52917 -0.58963,0.52917 -0.34738,0 -0.58963,-0.24616 -0.58963,-0.52917 0,-0.283 0.24225,-0.53123 0.58963,-0.53123 z m -9.76323,5.64462 c -1.88597,-0.026 -3.71204,0.42835 -5.47305,1.26193 -4.0252,1.90535 -7.74833,5.70327 -11.49594,10.16373 -4.94731,5.88838 -9.95088,12.93527 -15.49156,18.41179 h 1.53427 c 5.33585,-5.44389 10.08745,-12.16137 14.76758,-17.73173 3.71471,-4.42134 7.38073,-8.10988 11.13885,-9.8888 1.62325,-0.76838 3.26254,-1.16466 4.95525,-1.12293 1.69272,0.0417 3.43882,0.52147 5.27513,1.50378 -1.38484,0.0658 -2.65256,0.31704 -3.46903,1.07435 a 0.52921795,0.52921795 0 0 0 -0.16589,0.44494 c 0.10442,0.95112 0.43837,1.66233 0.971,2.10943 0.53262,0.4471 1.20712,0.59559 1.87896,0.5979 1.3437,0.005 2.81047,-0.51816 3.97805,-0.79117 a 0.52921795,0.52921795 0 0 0 0.002,0 c 1.38314,-0.32785 2.90646,-0.1469 4.14651,0.39274 -0.15659,0.0269 -0.32932,-0.0116 -0.47645,0.0408 -0.44981,0.16034 -0.85785,0.46351 -1.08779,0.91002 -0.21921,0.42569 -0.2284,0.96139 -0.078,1.51774 0.0662,1.52584 1.15856,2.56659 2.4784,2.95124 1.34404,0.3917 2.93893,0.23753 4.24625,-0.4532 l -0.0413,0.0196 c 2.51132,-1.06469 4.35317,-0.42869 5.36711,0.73225 0.69898,0.8003 0.80453,1.83512 0.58602,2.84944 -0.40987,-1.06153 -0.95721,-1.93698 -1.78129,-2.3828 -1.21332,-0.65639 -2.72812,-0.58582 -4.34961,-0.0367 a 0.52921795,0.52921795 0 0 0 -0.17931,0.89607 c 0.69534,0.61582 1.11984,1.07399 1.34358,1.39681 0.22374,0.32283 0.2432,0.4687 0.23048,0.59377 -0.009,0.0883 -0.1018,0.25 -0.18552,0.40617 -0.15763,-0.3076 -0.33678,-0.6005 -0.58187,-0.82424 -0.58889,-0.53758 -1.35047,-0.8444 -2.15078,-1.07022 -1.60061,-0.45161 -3.42793,-0.61 -4.44107,-1.07435 a 0.52921795,0.52921795 0 0 0 -0.64079,0.80254 c 0.52671,0.68906 0.87799,1.46227 0.93173,2.14664 0.0318,0.40567 -0.0761,0.77074 -0.26769,1.12086 a 0.52916503,0.52916503 0 0 0 -0.0553,-0.0341 c -0.62386,-2.21035 -1.67595,-3.6224 -2.99362,-4.26227 -0.84524,-0.41048 -1.72699,-0.59877 -2.5678,-0.73226 0.19145,-1.07146 0.15365,-1.82988 -0.15916,-2.44585 -0.0616,-0.12124 -0.21437,-0.16169 -0.29094,-0.26561 0.52728,0.0904 1.01343,0.1092 1.52342,0.26406 1.08459,0.32934 2.00559,0.83335 2.37505,1.36685 a 0.52921795,0.52921795 0 0 0 0.94516,-0.1602 c 0.14238,-0.51235 0.0951,-1.01018 -0.0879,-1.41955 -0.18294,-0.40938 -0.47922,-0.72728 -0.79891,-0.99064 -0.63938,-0.52673 -1.4111,-0.87636 -1.85157,-1.16582 a 0.52916503,0.52916503 0 0 0 -0.39636,-0.076 0.52916503,0.52916503 0 0 0 -0.33538,0.22841 0.52916503,0.52916503 0 0 0 0.15193,0.73225 c 0.51178,0.33634 1.12755,0.64776 1.60197,0.99994 -0.41379,-0.19838 -0.83539,-0.3896 -1.29501,-0.52916 -1.19381,-0.36251 -2.48196,-0.54498 -3.49023,-0.60152 a 0.52921795,0.52921795 0 0 0 -0.31471,0.97255 c 0.71008,0.45639 1.12746,0.74823 1.31878,1.125 0.0828,0.16309 -0.0262,0.6764 -0.0103,0.95705 -0.83735,-0.94567 -1.63857,-1.58499 -3.01532,-2.00763 a 0.52916503,0.52916503 0 0 0 -0.66249,0.34933 0.52916503,0.52916503 0 0 0 0.35191,0.66198 c 1.38651,0.42563 1.90469,0.74295 2.69441,1.73271 -0.0687,-0.0126 -0.14727,-0.0213 -0.21394,-0.0351 a 0.52921795,0.52921795 0 0 0 -0.60151,0.70486 c 0.21532,0.57343 0.46265,1.09647 0.54674,1.59784 0.0285,0.16959 -0.11368,0.36945 -0.12299,0.53898 -0.60666,-0.97304 -1.37231,-1.93276 -2.42931,-2.59157 -1.47353,-0.91842 -3.41544,-1.1868 -5.31647,0.0605 a 0.52921795,0.52921795 0 0 0 -0.002,0.88263 c 0.58012,0.38328 0.90267,0.73541 1.05265,1.01183 0.14998,0.27641 0.15534,0.46876 0.0899,0.69143 -0.057,0.19417 -0.41866,0.41295 -0.63458,0.63252 a 0.52916503,0.52916503 0 0 0 -0.015,-0.0708 c 0.003,-0.20793 0.0118,-0.41983 -0.0305,-0.60668 a 0.52921795,0.52921795 0 0 0 -0.0486,-0.13074 c -0.39266,-0.74248 -1.06445,-1.18497 -1.78904,-1.35548 -0.7246,-0.17051 -1.50456,-0.10976 -2.27738,0.0527 -1.54566,0.32496 -3.0825,1.07297 -3.98632,1.55856 a 0.52921795,0.52921795 0 0 0 0.18552,0.99219 c 0.79667,0.0987 1.35892,0.2815 1.71307,0.48628 0.35416,0.20477 0.49756,0.4091 0.55656,0.61133 0.0694,0.23796 -0.038,0.57048 -0.24237,0.93172 -0.0661,-0.16476 -0.14218,-0.31912 -0.22686,-0.46353 a 0.52916503,0.52916503 0 0 0 -0.2651,-0.50333 0.52916503,0.52916503 0 0 0 -0.2098,-0.0599 c -0.14655,-0.12194 -0.30423,-0.22699 -0.48938,-0.28784 -0.8915,-0.293 -1.91575,-0.0589 -2.88303,0.44338 -1.93457,1.00447 -3.77842,3.23377 -3.33209,5.81257 0.19024,1.09915 0.89677,2.10053 2.10943,2.49235 1.20704,0.39001 2.82757,0.21473 4.9475,-0.70538 l 0.007,-0.003 c 0.67295,-0.24659 1.58935,-0.5875 2.51251,-0.80408 0.92585,-0.21722 1.85063,-0.28917 2.4691,-0.0879 a 0.52921795,0.52921795 0 0 0 0.031,0.01 c -0.30568,0.0243 -0.54458,-0.0259 -0.85163,0.0253 -0.50426,0.0841 -0.9917,0.20575 -1.42006,0.38705 -0.40334,0.17071 -0.75214,0.41202 -0.99374,0.77153 -0.17238,0.19747 -0.30652,0.49083 -0.24236,0.76326 0.0686,0.29114 0.25107,0.46845 0.43356,0.60565 0.36497,0.2744 0.83446,0.44262 1.35754,0.58601 0.52309,0.14339 1.09189,0.24443 1.60559,0.29094 0.51371,0.0465 0.93891,0.0677 1.34152,-0.0724 l -0.0331,0.01 c 2.03153,-0.55923 4.20133,-0.2924 6.11074,0.57826 -0.0208,0.0631 -0.0417,0.12605 -0.062,0.18913 -0.37969,-0.0836 -0.7548,-0.16044 -1.11104,-0.20102 -0.67536,-0.0769 -1.30952,-0.0901 -1.88516,0.0491 -0.57564,0.13923 -1.11036,0.46923 -1.40818,1.02113 a 0.52921795,0.52921795 0 0 0 0.0119,0.52348 c 0.16582,0.27673 0.39484,0.55514 0.63097,0.83561 h 1.36116 c -0.30181,-0.40182 -0.59877,-0.7549 -0.81649,-1.03043 0.13005,-0.12033 0.22482,-0.26141 0.46871,-0.32039 0.37723,-0.0912 0.90823,-0.0947 1.51774,-0.0253 0.29463,0.0335 0.60864,0.0843 0.93327,0.14417 -0.1141,0.41463 -0.18987,0.82187 -0.27853,1.23197 h 1.08778 c 0.0778,-0.34007 0.13849,-0.67461 0.23462,-1.01906 0.7224,0.15728 1.47299,0.33225 2.20245,0.47284 a 0.52921795,0.52921795 0 0 0 0.45888,-0.90795 c -0.61932,-0.57186 -1.30628,-1.06989 -2.03863,-1.48622 0.43919,-1.18425 0.97293,-2.34834 1.57975,-3.42615 1.48412,-2.63603 3.41426,-4.71813 5.32422,-5.4255 0.008,0.0427 0.0181,0.0775 0.0253,0.12092 a 0.52921795,0.52921795 0 0 0 0.85938,0.32039 c 0.89702,-0.74436 1.25167,-1.75461 1.17564,-2.72283 -0.0459,-0.58434 -0.4177,-1.09489 -0.69143,-1.63297 1.15346,0.31832 2.4002,0.54905 3.50004,0.85937 0.7221,0.20375 1.33162,0.47499 1.72496,0.83406 0.39334,0.35907 0.61228,0.78181 0.59738,1.50999 a 0.52921795,0.52921795 0 0 0 1.02164,0.20309 c 0.14523,-0.37294 0.32693,-0.65927 0.50385,-0.95137 0.17692,-0.29209 0.36818,-0.60328 0.41031,-1.01751 0.0421,-0.41423 -0.10245,-0.85764 -0.41238,-1.30483 -0.16707,-0.24107 -0.53943,-0.56888 -0.81649,-0.85317 1.03917,-0.21567 1.96067,-0.2278 2.62723,0.1328 0.85686,0.46356 1.49632,1.42776 1.75183,3.19309 a 0.52921795,0.52921795 0 0 0 0.93948,0.24805 c 1.34498,-1.72631 1.12351,-4.02502 -0.19533,-5.53506 -1.31887,-1.51005 -3.74232,-2.21399 -6.5779,-1.01183 a 0.52921795,0.52921795 0 0 0 -0.0393,0.0196 c -1.04084,0.54994 -2.41075,0.67747 -3.45509,0.37311 -1.04434,-0.30437 -1.72455,-0.92153 -1.74408,-2.02365 a 0.52921795,0.52921795 0 0 0 -0.0217,-0.14418 c -0.11754,-0.38946 -0.0783,-0.62937 0.0103,-0.80099 0.0884,-0.17162 0.24866,-0.30612 0.50178,-0.39635 0.50625,-0.18047 1.34365,-0.0959 1.99626,0.33021 a 0.52921795,0.52921795 0 0 0 0.71469,-0.7581 c -0.0378,-0.051 -0.0988,-0.0774 -0.1385,-0.1266 l 0.002,-0.002 c -0.002,-0.002 -0.005,-5e-4 -0.008,-0.002 -1.5239,-1.88285 -4.38324,-2.48562 -6.83575,-1.90428 -1.25295,0.29297 -2.68565,0.76737 -3.73259,0.76378 -0.52347,-0.002 -0.91739,-0.11181 -1.20096,-0.34985 -0.21942,-0.18419 -0.35198,-0.61699 -0.46509,-1.09399 0.88357,-0.62091 2.5026,-0.92698 4.42402,-0.67541 a 0.52921795,0.52921795 0 0 0 0.37103,-0.95912 c -2.3211,-1.62439 -4.57159,-2.45765 -6.74635,-2.64635 v -5.1e-4 c -0.27185,-0.0236 -0.54242,-0.0371 -0.81184,-0.0408 z m -18.85001,3.24218 c -0.88882,0 -1.64848,0.70286 -1.64848,1.59008 0,0.88722 0.75966,1.5875 1.64848,1.5875 0.88882,0 1.64848,-0.70028 1.64848,-1.5875 0,-0.88722 -0.75966,-1.59008 -1.64848,-1.59008 z m 0,1.05885 c 0.34739,0 0.58963,0.24823 0.58963,0.53123 0,0.283 -0.24224,0.52917 -0.58963,0.52917 -0.34738,0 -0.59015,-0.24617 -0.59015,-0.52917 0,-0.283 0.24277,-0.53123 0.59015,-0.53123 z m -30.0483,1.19062 c -0.34209,0.007 -0.68354,0.0343 -1.02422,0.0827 -0.90851,0.12893 -1.8114,0.40276 -2.70268,0.8046 -3.5651,1.60736 -7.00876,5.11068 -10.54148,9.26972 -3.79612,4.46915 -7.70412,9.68163 -11.78326,14.1888 h 1.48932 c 3.88174,-4.38597 7.54159,-9.31356 11.10061,-13.50357 3.5011,-4.12182 6.90301,-7.51723 10.16992,-8.99015 2.83626,-1.27875 5.53953,-1.08491 8.41241,1.16789 -1.19053,-0.0354 -2.30213,0.12667 -3.06235,0.82837 a 0.52921795,0.52921795 0 0 0 -0.17001,0.38861 c 0.001,0.94111 0.20363,1.6534 0.61908,2.15232 0.41544,0.49892 1.01244,0.71954 1.59939,0.77515 1.17389,0.11121 2.44964,-0.30736 3.43545,-0.48834 a 0.52921795,0.52921795 0 0 0 0.002,0 c 1.11816,-0.20946 2.21694,0.13615 3.16622,0.71727 -0.0793,0.0158 -0.16514,-0.0234 -0.24236,0.002 -0.41793,0.13462 -0.7984,0.42463 -1.02526,0.8418 -0.21695,0.39896 -0.27038,0.90373 -0.19534,1.45728 -0.0874,1.49761 0.72807,2.63488 1.84175,3.13883 1.11586,0.50493 2.49241,0.47083 3.66592,-0.11162 2.15138,-0.85372 3.51986,-0.12547 4.25814,1.10174 0.45088,0.74949 0.5073,1.68062 0.34933,2.5957 -0.25691,-0.91245 -0.62714,-1.68194 -1.22628,-2.15025 -0.98748,-0.77187 -2.3306,-0.82049 -3.75791,-0.38913 a 0.52921795,0.52921795 0 0 0 -0.262,0.83613 c 0.52374,0.66439 0.8359,1.14623 0.99426,1.48621 0.15837,0.33999 0.16648,0.50809 0.14056,0.65423 -0.0132,0.0745 -0.1662,0.31989 -0.22066,0.41806 -0.0999,-0.26676 -0.0451,-0.63734 -0.20877,-0.85163 -0.44998,-0.58892 -1.07921,-0.96735 -1.7384,-1.2578 -1.31839,-0.5809 -2.82264,-0.87866 -3.59151,-1.39423 a 0.52921795,0.52921795 0 0 0 -0.76378,0.68368 c 0.37759,0.72623 0.6051,1.52775 0.58756,2.23604 -0.003,0.11481 -0.0666,0.20436 -0.12816,0.29455 l -0.31832,-0.91519 c -0.26979,-1.17098 -0.65269,-2.03473 -1.2175,-2.51612 -0.9668,-0.82402 -2.1042,-0.85998 -3.13262,-1.21492 a 0.52921795,0.52921795 0 0 0 -0.68937,0.6134 c 0.11479,0.52688 0.28576,1.51609 0.3142,2.50993 0.0119,0.4148 -0.1409,0.66153 -0.19121,1.04076 -0.0421,-0.0904 -0.0923,-0.18277 -0.13642,-0.27389 a 0.52916503,0.52916503 0 0 0 -0.0904,-0.18086 c -0.49824,-0.99963 -1.12029,-2.02557 -1.95285,-2.93006 -0.71747,-0.77945 -1.5277,-1.4333 -2.42983,-1.76526 -0.90212,-0.33196 -1.92643,-0.30108 -2.83962,0.28887 a 0.52921795,0.52921795 0 0 0 -0.0765,0.82992 c 0.88589,0.83833 0.95128,1.36577 0.79117,1.83038 -0.0838,0.24314 -0.4513,0.46084 -0.70332,0.69918 -0.0508,-0.37389 0.0469,-0.82501 -0.13487,-1.12138 -0.37743,-0.61544 -0.99885,-1.00765 -1.70274,-1.21439 -1.40778,-0.41348 -3.20079,-0.17179 -4.85965,0.49971 a 0.52921795,0.52921795 0 0 0 0.0744,1.00614 c 1.93669,0.46812 2.40051,2.20532 1.97249,3.41788 -0.37435,-0.88462 -0.8775,-1.59676 -1.57975,-1.92185 -0.98716,-0.45698 -2.1288,-0.34051 -3.1719,0.10904 -2.0862,0.89911 -3.95591,3.15365 -3.81837,5.73453 0.0654,1.22823 1.07191,2.1633 2.42776,2.53887 1.35586,0.37556 3.11669,0.26339 5.01365,-0.51522 l -0.0336,0.0134 c 0.5856,-0.19511 1.38008,-0.46563 2.15852,-0.60926 0.77845,-0.14364 1.52172,-0.13694 1.97456,0.0879 a 0.52921795,0.52921795 0 0 0 0.0506,0.0217 c 6e-4,2.2e-4 0.005,0.003 0.006,0.004 -0.25952,0.002 -0.45884,-0.0668 -0.72295,-0.0388 -0.85181,0.0906 -1.7139,0.30024 -2.18746,0.9958 -0.085,0.0961 -0.15539,0.21282 -0.20309,0.33745 h 1.44125 c 0.26655,-0.12267 0.6321,-0.23502 1.06092,-0.2806 0.74147,-0.0788 1.5859,-0.0101 2.02313,0.1018 a 0.52921795,0.52921795 0 0 0 0.44339,-0.0842 c 0.12477,-0.0906 0.22206,-0.27927 0.23254,-0.42013 0.0105,-0.14086 -0.0239,-0.22871 -0.0527,-0.29456 -0.0576,-0.13169 -0.11732,-0.19572 -0.17983,-0.26561 -0.12502,-0.13978 -0.27452,-0.26838 -0.44339,-0.4005 -0.33003,-0.2582 -0.67835,-0.49678 -1.02732,-0.63096 -0.69177,-0.33333 -1.47575,-0.33383 -2.23759,-0.22686 1.00475,-2.50609 1.85514,-4.4479 2.61844,-5.66736 a 0.52921795,0.52921795 0 0 0 0.75189,0.37466 c 0.74928,-0.43927 1.50706,-1.02909 1.80868,-1.90428 0.23782,-0.69009 -0.034,-1.49993 -0.62322,-2.3027 0.22684,-0.075 0.45233,-0.11906 0.6811,-0.12248 0.22876,-0.003 0.46084,0.0338 0.70176,0.12248 0.50726,0.18665 1.03908,0.551 1.54978,1.02422 -2.70098,3.27977 -3.04221,7.06159 -3.62717,10.97711 h 1.07384 c 0.57218,-3.82242 0.9187,-7.25818 3.28403,-10.20093 0.55874,0.66139 1.0611,1.41919 1.46141,2.15078 -1.52502,2.35253 -1.97057,5.58948 -2.06809,8.05015 h 1.07487 c 0.11285,-2.14553 0.50024,-4.89778 1.55184,-6.90397 0.14859,0.35159 0.26297,0.67377 0.33228,0.94154 a 0.52921795,0.52921795 0 0 0 0.95137,0.16434 c 0.58434,-0.86397 0.66999,-2.02255 0.63872,-3.11558 -0.0208,-0.72684 -0.13184,-1.24051 -0.22479,-1.79834 0.7488,0.19927 1.53214,0.33759 1.9885,0.72657 0.24221,0.20644 0.47032,0.49929 0.66818,0.93742 -1.92989,1.61059 -3.66232,4.99144 -4.70565,8.58758 -0.0443,0.15268 -0.0761,0.30717 -0.11783,0.46044 h 1.56735 l 1.95285,-5.35109 1.60869,-2.06758 0.29455,1.20871 c 0.0212,0.24942 0.0421,0.5013 0.0558,0.7829 a 0.52921795,0.52921795 0 0 0 0.23874,0.38603 0.52916503,0.52916503 0 0 0 0.28784,0.31626 c -1.0397,1.59591 -1.76388,3.19625 -2.23707,4.72477 h 1.48724 l 0.0476,-0.19895 1.89859,-4.36873 a 0.52921795,0.52921795 0 0 0 0.0243,-0.0698 c 0.80073,-1.15582 1.77606,-2.30666 2.94762,-3.41529 0.42116,0.21831 0.76773,0.46949 0.9989,0.77204 0.28912,0.37839 0.44376,0.83938 0.36329,1.58388 a 0.52921795,0.52921795 0 0 0 1.01337,0.26562 c 0.31488,-0.73234 0.79861,-1.09914 0.93586,-1.87275 0.0686,-0.38681 -0.007,-0.82 -0.22479,-1.28726 -0.12367,-0.26549 -0.41571,-0.63718 -0.63872,-0.96273 0.843,-0.1279 1.55977,-0.0746 2.05259,0.31057 0.63986,0.50015 1.10793,1.52717 1.1622,3.32021 a 0.52921795,0.52921795 0 0 0 0.94516,0.31264 c 1.27941,-1.61785 1.29633,-3.84765 0.32815,-5.45703 -0.96819,-1.60937 -3.03653,-2.53871 -5.5547,-1.53944 a 0.52921795,0.52921795 0 0 0 -0.0465,0.0196 c -0.88985,0.45417 -1.99162,0.47223 -2.79311,0.10956 -0.8015,-0.36268 -1.32229,-1.0133 -1.2361,-2.15026 a 0.52921795,0.52921795 0 0 0 -0.004,-0.12351 c -0.065,-0.40971 -0.007,-0.67677 0.0879,-0.85111 0.0948,-0.17434 0.22847,-0.27829 0.42012,-0.34003 0.38334,-0.12348 1.01322,-0.002 1.49966,0.4532 a 0.52921795,0.52921795 0 0 0 0.83405,-0.62321 c -0.029,-0.0577 -0.0821,-0.0924 -0.11317,-0.14832 l 0.002,-0.002 c -0.002,-0.002 -0.006,-0.002 -0.008,-0.004 -1.10817,-1.98082 -3.50518,-2.84537 -5.65599,-2.44326 h -0.002 c -1.08599,0.19954 -2.32142,0.55424 -3.14245,0.47646 -0.41077,-0.0389 -0.68261,-0.15326 -0.88676,-0.39843 -0.16364,-0.19651 -0.24926,-0.65604 -0.29921,-1.18339 0.76923,-0.54194 2.0966,-0.71453 3.65662,-0.32401 a 0.52921795,0.52921795 0 0 0 0.50178,-0.88676 c -2.36145,-2.36422 -4.78423,-3.36502 -7.17889,-3.31918 z m 17.92501,6.16655 c -0.88882,0 -1.64848,0.70287 -1.64848,1.59008 0,0.88722 0.75966,1.5875 1.64848,1.5875 0.88882,0 1.64847,-0.70028 1.64847,-1.5875 0,-0.88721 -0.75965,-1.59008 -1.64847,-1.59008 z m 30.04829,0.58498 c 0.58378,0.0316 1.13653,0.21519 1.6552,0.53847 0.19396,0.12089 0.37953,0.26103 0.5612,0.40876 -2.22413,2.90203 -3.36985,6.22074 -4.24367,9.98233 -0.1014,-0.0636 -0.19119,-0.12898 -0.30799,-0.19223 -0.41262,-0.22344 -0.85907,-0.42928 -1.24437,-0.52142 -0.85779,-0.27419 -1.81332,-0.1878 -2.73678,0.006 0.37285,-1.01734 0.77002,-2.03192 1.17461,-3.04736 a 0.52921795,0.52921795 0 0 0 0.006,-0.0155 c 0.37907,-1.05137 0.88044,-1.93572 1.55753,-2.80913 a 0.52921795,0.52921795 0 0 0 0.70176,0.29559 c 0.83226,-0.49882 1.6584,-1.12969 1.93167,-2.06034 0.13664,-0.46533 0.0911,-1.00442 -0.1757,-1.49603 -0.13776,-0.2539 -0.47963,-0.47942 -0.72296,-0.71675 0.64427,-0.28371 1.25952,-0.4042 1.8433,-0.37259 z m -30.04829,0.47387 c 0.34738,0 0.59014,0.24823 0.59014,0.53123 0,0.28301 -0.24276,0.52917 -0.59014,0.52917 -0.34739,0 -0.58963,-0.24616 -0.58963,-0.52917 0,-0.283 0.24224,-0.53123 0.58963,-0.53123 z m 35.56475,0.15451 c 1.10345,0.16882 2.24163,0.2665 3.21272,0.69195 -4.00524,3.74645 -7.13746,7.73435 -8.27753,11.96774 -0.63268,-0.0573 -1.271,-0.0534 -1.90789,0.0145 0.93299,-4.57526 2.00419,-8.39618 4.44314,-11.62254 0.6034,0.66744 1.08489,1.42945 1.37304,2.10426 a 0.52921795,0.52921795 0 0 0 0.92759,0.0842 c 0.5431,-0.82523 0.64315,-1.65063 0.52555,-2.35179 -0.0582,-0.34704 -0.18623,-0.59304 -0.29662,-0.88832 z m -11.07684,1.08882 c 0.30765,-0.0119 0.59219,0.009 0.84026,0.0672 0.4749,0.11176 0.79995,0.34921 1.04903,0.78497 0.003,0.0305 0.003,0.17127 0.007,0.23823 -1.11055,1.23435 -1.91732,2.47019 -2.466,3.992 -0.49332,1.23828 -0.97988,2.48289 -1.42627,3.74344 -0.64536,0.19835 -1.23637,0.41636 -1.68672,0.58136 a 0.52921795,0.52921795 0 0 0 -0.0295,0.0119 c -0.82614,0.36049 -1.54119,0.57968 -2.16266,0.70074 0.0176,-0.10814 0.0224,-0.1398 0.22531,-1.38855 0.10317,-0.63476 0.70251,-2.03361 1.27538,-3.18947 0.2201,-0.44409 0.42497,-0.83712 0.60668,-1.18029 0.0184,0.14265 0.0371,0.28466 0.0341,0.47129 a 0.52921795,0.52921795 0 0 0 0.89039,0.39481 c 0.85457,-0.8005 1.42158,-1.79529 1.13275,-2.78536 -0.14442,-0.49504 -0.51412,-0.92472 -1.04283,-1.23042 -0.14089,-0.0815 -0.39798,-0.0986 -0.56276,-0.16588 0.76941,-0.34889 1.47976,-0.73789 2.33784,-0.91829 0.33967,-0.0714 0.67058,-0.11576 0.97824,-0.12764 z m 15.24248,0.15865 c 0.72952,0.56317 1.34066,1.43338 1.74304,2.88303 -2.36867,0.7965 -4.42671,3.13597 -6.01048,5.94899 -0.61735,1.09649 -1.16015,2.26996 -1.61127,3.46594 -0.7369,-0.32939 -1.50748,-0.57902 -2.29754,-0.73484 1.10755,-3.95686 4.17302,-7.85921 8.17625,-11.56312 z m -20.14089,3.13831 c 0.15296,0.005 0.29089,0.0264 0.40876,0.0651 0.0166,0.005 0.0288,0.0158 0.045,0.0217 -0.21691,0.39804 -0.53518,0.99347 -0.87902,1.68724 -0.58719,1.18474 -1.21201,2.52488 -1.36891,3.49022 -0.24421,1.50252 -0.26779,1.64584 -0.27182,1.6707 -0.37765,-0.002 -0.70607,-0.0466 -0.97461,-0.13332 -0.84911,-0.27436 -1.2538,-0.86569 -1.39268,-1.66812 -0.34188,-1.97529 1.17306,-3.85807 2.77761,-4.69119 0.60169,-0.31241 1.19681,-0.45575 1.65571,-0.44235 z m -43.76684,1.80661 c 0.22714,0.0166 0.43908,0.0516 0.63097,0.108 0.52398,0.1539 0.88651,0.40721 1.09916,0.75396 0.0239,0.0389 0.0398,0.0863 0.0605,0.12868 -1.26183,1.37079 -2.31314,3.93028 -3.74189,7.53855 -0.54697,0.14768 -1.04872,0.31536 -1.42989,0.44235 a 0.52921795,0.52921795 0 0 0 -0.0331,0.0114 c -0.59624,0.24473 -1.16978,0.40805 -1.71204,0.51005 0.0252,-0.10953 0.0313,-0.13621 0.31161,-1.35547 0.28666,-1.24708 1.40109,-3.79788 1.68465,-4.43797 0.27827,0.37154 0.50095,0.88804 0.62993,1.61385 a 0.52921795,0.52921795 0 0 0 0.88264,0.29301 c 1.46789,-1.36827 1.18617,-4.0154 -0.71262,-5.33818 0.8297,-0.202 1.64867,-0.31798 2.33009,-0.2682 z m 16.20108,1.49086 c 0.66176,0.2714 1.33485,0.52271 1.97921,0.77773 -0.62567,0.61429 -1.19731,1.24015 -1.71566,1.87276 0.1,-0.32476 0.15395,-0.66068 0.16226,-0.99632 0.0141,-0.56946 -0.24867,-1.10379 -0.42581,-1.65417 z m -21.18372,1.3777 c 0.35934,-0.0197 0.69451,0.0339 0.99322,0.15554 -0.0376,0.0813 -1.4653,3.17384 -1.85673,4.87671 -0.35505,1.54453 -0.39272,1.70886 -0.3943,1.71566 -0.56366,0.0157 -1.07317,-0.0414 -1.50378,-0.16072 -1.07142,-0.29678 -1.61582,-0.88367 -1.65261,-1.57406 -0.10751,-2.01746 1.4871,-3.97547 3.18017,-4.70514 0.42326,-0.18242 0.84176,-0.2865 1.23403,-0.30799 z m 39.54125,1.44849 c -0.8888,0 -1.64847,0.70235 -1.64847,1.58957 0,0.88721 0.75967,1.58801 1.64847,1.58801 0.88882,0 1.64797,-0.7008 1.64797,-1.58801 0,-0.88722 -0.75915,-1.58957 -1.64797,-1.58957 z m 16.49461,1.03869 c 0.32722,-0.008 0.61334,0.003 0.86402,0.0233 -0.0908,0.42579 -0.18016,0.85629 -0.26768,1.29295 -0.12223,0.0283 -0.24476,0.0533 -0.36638,0.0868 a 0.52921795,0.52921795 0 0 0 -0.0336,0.01 c -0.0521,0.0181 -0.4533,0.0579 -0.89814,0.0176 -0.44483,-0.0403 -0.96718,-0.1316 -1.42214,-0.25632 -0.42292,-0.11593 -0.76011,-0.27104 -0.92966,-0.3824 0.0728,-0.0942 0.22284,-0.22917 0.50798,-0.34985 0.31497,-0.1333 0.73439,-0.24166 1.18184,-0.31626 0.44745,-0.0746 0.92609,-0.11415 1.36375,-0.12557 z m -16.49461,0.0196 c 0.34738,0 0.58963,0.24823 0.58963,0.53124 0,0.283 -0.24225,0.52968 -0.58963,0.52968 -0.34739,0 -0.59014,-0.24668 -0.59014,-0.52968 0,-0.28301 0.24275,-0.53124 0.59014,-0.53124 z m 3.49798,1.57252 c -0.51648,-0.0189 -1.0693,0.0668 -1.64641,0.24029 a 0.52916503,0.52916503 0 0 0 -0.35553,0.65784 0.52916503,0.52916503 0 0 0 0.65991,0.35554 c 0.98695,-0.2967 1.69777,-0.25716 2.25981,0.0548 0.24752,0.13737 0.41193,0.62692 0.62683,0.90227 -1.46501,-0.46161 -2.93801,-0.57489 -4.22661,0.0294 a 0.52921795,0.52921795 0 0 0 -0.16795,0.83406 c 0.25994,0.28824 0.41251,0.5074 0.60306,0.75137 h 1.24902 c -0.18384,-0.24378 -0.37391,-0.49038 -0.57206,-0.74155 1.27197,-0.37455 2.68704,-0.29692 4.14445,0.55862 a 0.52921795,0.52921795 0 0 0 0.76946,-0.6289 c -0.4287,-1.2439 -1.04289,-2.14848 -1.91202,-2.63085 -0.43456,-0.24119 -0.91548,-0.36406 -1.43196,-0.38292 z m -20.16828,0.84956 c -0.8888,0 -1.64847,0.70235 -1.64847,1.58957 0,0.61413 0.37566,1.12159 0.89452,1.38647 h 1.50791 c 0.51887,-0.26488 0.89452,-0.77234 0.89452,-1.38647 0,-0.88722 -0.75966,-1.58957 -1.64848,-1.58957 z m 0,1.05833 c 0.34739,0 0.59015,0.24823 0.59015,0.53124 0,0.283 -0.24276,0.52968 -0.59015,0.52968 -0.34738,0 -0.58962,-0.24668 -0.58962,-0.52968 0,-0.28301 0.24224,-0.53124 0.58962,-0.53124 z m 25.66821,1.04697 c -0.7205,0.0139 -1.48669,0.28957 -2.31976,0.87074 h 4.50153 c -0.59725,-0.50695 -1.31983,-0.88733 -2.18177,-0.87074 z m 5.85752,0.12299 a 0.52921795,0.52921795 0 0 0 -0.58446,0.7307 c 0.002,0.004 0.004,0.013 0.006,0.0171 h 3.7698 c -0.0706,-0.0329 -0.14051,-0.0791 -0.21136,-0.10697 -1.0979,-0.43255 -2.15187,-0.48271 -2.98018,-0.64079 z" />
    </g>
  </g>
</svg>
